<ttFont>
    <TTGlyph name=".notdef" xMin="64" yMin="0" xMax="602" yMax="720">
      <contour>
        <pt x="64" y="0" on="1"/>
        <pt x="64" y="720" on="1"/>
        <pt x="602" y="720" on="1"/>
        <pt x="602" y="0" on="1"/>
      </contour>
      <contour>
        <pt x="84" y="20" on="1"/>
        <pt x="582" y="20" on="1"/>
        <pt x="582" y="700" on="1"/>
        <pt x="84" y="700" on="1"/>
      </contour>
      <contour>
        <pt x="130" y="80" on="1"/>
        <pt x="130" y="96" on="1"/>
        <pt x="319" y="360" on="1"/>
        <pt x="130" y="624" on="1"/>
        <pt x="130" y="640" on="1"/>
        <pt x="146" y="640" on="1"/>
        <pt x="333" y="379" on="1"/>
        <pt x="520" y="640" on="1"/>
        <pt x="536" y="640" on="1"/>
        <pt x="536" y="624" on="1"/>
        <pt x="347" y="360" on="1"/>
        <pt x="536" y="96" on="1"/>
        <pt x="536" y="80" on="1"/>
        <pt x="520" y="80" on="1"/>
        <pt x="333" y="341" on="1"/>
        <pt x="146" y="80" on="1"/>
      </contour>
    </TTGlyph>
    <TTGlyph name="A" xMin="48" yMin="0" xMax="652" yMax="720">
      <contour>
        <pt x="154" y="220" on="1"/>
        <pt x="162" y="240" on="1"/>
        <pt x="548" y="240" on="1"/>
        <pt x="556" y="220" on="1"/>
      </contour>
      <contour>
        <pt x="364" y="720" on="1"/>
        <pt x="652" y="0" on="1"/>
        <pt x="630" y="0" on="1"/>
        <pt x="350" y="696" on="1"/>
        <pt x="70" y="0" on="1"/>
        <pt x="48" y="0" on="1"/>
        <pt x="336" y="720" on="1"/>
      </contour>
    </TTGlyph>
    <TTGlyph name="AE" xMin="48" yMin="0" xMax="906" yMax="720">
      <contour>
        <pt x="48" y="0" on="1"/>
        <pt x="474" y="720" on="1"/>
        <pt x="510" y="720" on="1"/>
        <pt x="510" y="700" on="1"/>
        <pt x="488" y="700" on="1"/>
        <pt x="72" y="0" on="1"/>
      </contour>
      <contour>
        <pt x="211" y="250" on="1"/>
        <pt x="211" y="270" on="1"/>
        <pt x="506" y="270" on="1"/>
        <pt x="506" y="250" on="1"/>
      </contour>
      <contour>
        <pt x="496" y="0" on="1"/>
        <pt x="496" y="720" on="1"/>
        <pt x="906" y="720" on="1"/>
        <pt x="906" y="700" on="1"/>
        <pt x="516" y="700" on="1"/>
        <pt x="516" y="380" on="1"/>
        <pt x="886" y="380" on="1"/>
        <pt x="886" y="360" on="1"/>
        <pt x="516" y="360" on="1"/>
        <pt x="516" y="20" on="1"/>
        <pt x="906" y="20" on="1"/>
        <pt x="906" y="0" on="1"/>
      </contour>
    </TTGlyph>
    <TTGlyph name="AEacute" xMin="48" yMin="0" xMax="906" yMax="940">
      <component glyphName="AE" x="0" y="0" flags="0x204"/>
      <component glyphName="acutecomb" x="472" y="220" flags="0x4"/>
    </TTGlyph>
    <TTGlyph name="Aacute" xMin="48" yMin="0" xMax="652" yMax="940">
      <component glyphName="A" x="0" y="0" flags="0x204"/>
      <component glyphName="acutecomb" x="250" y="220" flags="0x4"/>
    </TTGlyph>
    <TTGlyph name="Abreve" xMin="48" yMin="0" xMax="652" yMax="940">
      <component glyphName="A" x="0" y="0" flags="0x204"/>
      <component glyphName="uni0306" x="150" y="220" flags="0x4"/>
    </TTGlyph>
    <TTGlyph name="Acircumflex" xMin="48" yMin="0" xMax="652" yMax="940">
      <component glyphName="A" x="0" y="0" flags="0x204"/>
      <component glyphName="uni0302" x="150" y="220" flags="0x4"/>
    </TTGlyph>
    <TTGlyph name="Adieresis" xMin="48" yMin="0" xMax="652" yMax="880">
      <component glyphName="A" x="0" y="0" flags="0x204"/>
      <component glyphName="uni0307" x="160" y="220" flags="0x4"/>
      <component glyphName="uni0307" x="340" y="220" flags="0x4"/>
    </TTGlyph>
    <TTGlyph name="Agrave" xMin="48" yMin="0" xMax="652" yMax="940">
      <component glyphName="A" x="0" y="0" flags="0x204"/>
      <component glyphName="gravecomb" x="150" y="220" flags="0x4"/>
    </TTGlyph>
    <TTGlyph name="Alpha" xMin="48" yMin="0" xMax="652" yMax="720">
      <component glyphName="A" x="0" y="0" flags="0x204"/>
    </TTGlyph>
    <TTGlyph name="Amacron" xMin="48" yMin="0" xMax="652" yMax="860">
      <component glyphName="A" x="0" y="0" flags="0x204"/>
      <component glyphName="uni0304" x="150" y="220" flags="0x4"/>
    </TTGlyph>
    <TTGlyph name="Aogonek" xMin="48" yMin="-200" xMax="691" yMax="720">
      <component glyphName="A" x="0" y="0" flags="0x204"/>
      <component glyphName="uni0328" x="472" y="0" flags="0x4"/>
    </TTGlyph>
    <TTGlyph name="Aring" xMin="48" yMin="0" xMax="652" yMax="940">
      <component glyphName="A" x="0" y="0" flags="0x204"/>
      <component glyphName="uni030A" x="200" y="220" flags="0x4"/>
    </TTGlyph>
    <TTGlyph name="Aringacute" xMin="48" yMin="0" xMax="652" yMax="1158">
      <component glyphName="A" x="0" y="0" flags="0x204"/>
      <component glyphName="uni030A" x="200" y="220" flags="0x4"/>
      <component glyphName="acutecomb" x="250" y="438" flags="0x4"/>
    </TTGlyph>
    <TTGlyph name="Atilde" xMin="48" yMin="0" xMax="652" yMax="902">
      <component glyphName="A" x="0" y="0" flags="0x204"/>
      <component glyphName="tildecomb" x="150" y="220" flags="0x4"/>
    </TTGlyph>
    <TTGlyph name="B" xMin="104" yMin="0" xMax="592" yMax="720">
      <contour>
        <pt x="104" y="0" on="1"/>
        <pt x="104" y="720" on="1"/>
        <pt x="390" y="720" on="1"/>
        <pt x="454" y="720" on="0"/>
        <pt x="534" y="677" on="0"/>
        <pt x="582" y="597" on="0"/>
        <pt x="582" y="538" on="1"/>
        <pt x="582" y="490" on="0"/>
        <pt x="555" y="422" on="0"/>
        <pt x="500" y="374" on="0"/>
        <pt x="468" y="366" on="1"/>
        <pt x="507" y="353" on="0"/>
        <pt x="562" y="302" on="0"/>
        <pt x="592" y="234" on="0"/>
        <pt x="592" y="188" on="1"/>
        <pt x="592" y="130" on="0"/>
        <pt x="544" y="48" on="0"/>
        <pt x="454" y="0" on="0"/>
        <pt x="390" y="0" on="1"/>
      </contour>
      <contour>
        <pt x="124" y="20" on="1"/>
        <pt x="390" y="20" on="1"/>
        <pt x="446" y="20" on="0"/>
        <pt x="530" y="64" on="0"/>
        <pt x="572" y="141" on="0"/>
        <pt x="572" y="188" on="1"/>
        <pt x="572" y="236" on="0"/>
        <pt x="526" y="316" on="0"/>
        <pt x="446" y="356" on="0"/>
        <pt x="390" y="356" on="1"/>
        <pt x="124" y="356" on="1"/>
      </contour>
      <contour>
        <pt x="124" y="376" on="1"/>
        <pt x="402" y="376" on="1"/>
        <pt x="459" y="376" on="0"/>
        <pt x="532" y="424" on="0"/>
        <pt x="562" y="496" on="0"/>
        <pt x="562" y="538" on="1"/>
        <pt x="562" y="591" on="0"/>
        <pt x="520" y="661" on="0"/>
        <pt x="446" y="700" on="0"/>
        <pt x="390" y="700" on="1"/>
        <pt x="124" y="700" on="1"/>
      </contour>
    </TTGlyph>
    <TTGlyph name="C" xMin="72" yMin="-12" xMax="610" yMax="732">
      <contour>
        <pt x="370" y="-12" on="1"/>
        <pt x="286" y="-12" on="0"/>
        <pt x="150" y="66" on="0"/>
        <pt x="72" y="232" on="0"/>
        <pt x="72" y="360" on="1"/>
        <pt x="72" y="488" on="0"/>
        <pt x="150" y="654" on="0"/>
        <pt x="286" y="732" on="0"/>
        <pt x="370" y="732" on="1"/>
        <pt x="450" y="732" on="0"/>
        <pt x="550" y="676" on="0"/>
        <pt x="610" y="588" on="0"/>
        <pt x="610" y="550" on="1"/>
        <pt x="590" y="550" on="1"/>
        <pt x="590" y="582" on="0"/>
        <pt x="536" y="660" on="0"/>
        <pt x="444" y="712" on="0"/>
        <pt x="370" y="712" on="1"/>
        <pt x="292" y="712" on="0"/>
        <pt x="166" y="640" on="0"/>
        <pt x="92" y="482" on="0"/>
        <pt x="92" y="360" on="1"/>
        <pt x="92" y="238" on="0"/>
        <pt x="166" y="80" on="0"/>
        <pt x="292" y="8" on="0"/>
        <pt x="370" y="8" on="1"/>
        <pt x="444" y="8" on="0"/>
        <pt x="536" y="60" on="0"/>
        <pt x="590" y="138" on="0"/>
        <pt x="590" y="170" on="1"/>
        <pt x="610" y="170" on="1"/>
        <pt x="610" y="132" on="0"/>
        <pt x="550" y="44" on="0"/>
        <pt x="450" y="-12" on="0"/>
      </contour>
    </TTGlyph>
    <TTGlyph name="Cacute" xMin="72" yMin="-12" xMax="610" yMax="940">
      <component glyphName="C" x="0" y="0" flags="0x204"/>
      <component glyphName="acutecomb" x="266" y="220" flags="0x4"/>
    </TTGlyph>
    <TTGlyph name="Ccaron" xMin="72" yMin="-12" xMax="610" yMax="940">
      <component glyphName="C" x="0" y="0" flags="0x204"/>
      <component glyphName="uni030C" x="166" y="220" flags="0x4"/>
    </TTGlyph>
    <TTGlyph name="Ccedilla" xMin="72" yMin="-200" xMax="610" yMax="732">
      <component glyphName="C" x="0" y="0" flags="0x204"/>
      <component glyphName="uni0327" x="232" y="0" flags="0x4"/>
    </TTGlyph>
    <TTGlyph name="Ccircumflex" xMin="72" yMin="-12" xMax="610" yMax="940">
      <component glyphName="C" x="0" y="0" flags="0x204"/>
      <component glyphName="uni0302" x="166" y="220" flags="0x4"/>
    </TTGlyph>
    <TTGlyph name="Cdotaccent" xMin="72" yMin="-12" xMax="610" yMax="880">
      <component glyphName="C" x="0" y="0" flags="0x204"/>
      <component glyphName="uni0307" x="266" y="220" flags="0x4"/>
    </TTGlyph>
    <TTGlyph name="D" xMin="104" yMin="0" xMax="608" yMax="720">
      <contour>
        <pt x="104" y="0" on="1"/>
        <pt x="104" y="720" on="1"/>
        <pt x="248" y="720" on="1"/>
        <pt x="402" y="720" on="0"/>
        <pt x="544" y="624" on="0"/>
        <pt x="608" y="466" on="0"/>
        <pt x="608" y="360" on="1"/>
        <pt x="608" y="254" on="0"/>
        <pt x="544" y="96" on="0"/>
        <pt x="402" y="0" on="0"/>
        <pt x="248" y="0" on="1"/>
      </contour>
      <contour>
        <pt x="124" y="20" on="1"/>
        <pt x="248" y="20" on="1"/>
        <pt x="396" y="20" on="0"/>
        <pt x="528" y="110" on="0"/>
        <pt x="588" y="260" on="0"/>
        <pt x="588" y="360" on="1"/>
        <pt x="588" y="460" on="0"/>
        <pt x="528" y="610" on="0"/>
        <pt x="396" y="700" on="0"/>
        <pt x="248" y="700" on="1"/>
        <pt x="124" y="700" on="1"/>
      </contour>
    </TTGlyph>
    <TTGlyph name="Dcaron" xMin="104" yMin="0" xMax="608" yMax="940">
      <component glyphName="D" x="0" y="0" flags="0x204"/>
      <component glyphName="uni030C" x="120" y="220" flags="0x4"/>
    </TTGlyph>
    <TTGlyph name="Dcroat" xMin="104" yMin="0" xMax="608" yMax="720">
      <component glyphName="D" x="0" y="0" flags="0x204"/>
      <component glyphName="uni0335" x="120" y="0" flags="0x4"/>
    </TTGlyph>
    <TTGlyph name="E" xMin="104" yMin="0" xMax="514" yMax="720">
      <contour>
        <pt x="104" y="0" on="1"/>
        <pt x="104" y="720" on="1"/>
        <pt x="514" y="720" on="1"/>
        <pt x="514" y="700" on="1"/>
        <pt x="124" y="700" on="1"/>
        <pt x="124" y="380" on="1"/>
        <pt x="494" y="380" on="1"/>
        <pt x="494" y="360" on="1"/>
        <pt x="124" y="360" on="1"/>
        <pt x="124" y="20" on="1"/>
        <pt x="514" y="20" on="1"/>
        <pt x="514" y="0" on="1"/>
      </contour>
    </TTGlyph>
    <TTGlyph name="Eacute" xMin="104" yMin="0" xMax="514" yMax="940">
      <component glyphName="E" x="0" y="0" flags="0x204"/>
      <component glyphName="acutecomb" x="204" y="220" flags="0x4"/>
    </TTGlyph>
    <TTGlyph name="Ebreve" xMin="104" yMin="0" xMax="514" yMax="940">
      <component glyphName="E" x="0" y="0" flags="0x204"/>
      <component glyphName="uni0306" x="104" y="220" flags="0x4"/>
    </TTGlyph>
    <TTGlyph name="Ecaron" xMin="104" yMin="0" xMax="514" yMax="940">
      <component glyphName="E" x="0" y="0" flags="0x204"/>
      <component glyphName="uni030C" x="104" y="220" flags="0x4"/>
    </TTGlyph>
    <TTGlyph name="Ecircumflex" xMin="104" yMin="0" xMax="514" yMax="940">
      <component glyphName="E" x="0" y="0" flags="0x204"/>
      <component glyphName="uni0302" x="104" y="220" flags="0x4"/>
    </TTGlyph>
    <TTGlyph name="Edieresis" xMin="104" yMin="0" xMax="514" yMax="880">
      <component glyphName="E" x="0" y="0" flags="0x204"/>
      <component glyphName="uni0307" x="114" y="220" flags="0x4"/>
      <component glyphName="uni0307" x="294" y="220" flags="0x4"/>
    </TTGlyph>
    <TTGlyph name="Edotaccent" xMin="104" yMin="0" xMax="514" yMax="880">
      <component glyphName="E" x="0" y="0" flags="0x204"/>
      <component glyphName="uni0307" x="204" y="220" flags="0x4"/>
    </TTGlyph>
    <TTGlyph name="Egrave" xMin="104" yMin="0" xMax="514" yMax="940">
      <component glyphName="E" x="0" y="0" flags="0x204"/>
      <component glyphName="gravecomb" x="104" y="220" flags="0x4"/>
    </TTGlyph>
    <TTGlyph name="Emacron" xMin="104" yMin="0" xMax="514" yMax="860">
      <component glyphName="E" x="0" y="0" flags="0x204"/>
      <component glyphName="uni0304" x="104" y="220" flags="0x4"/>
    </TTGlyph>
    <TTGlyph name="Eng" xMin="104" yMin="-160" xMax="590" yMax="720">
      <contour>
        <pt x="104" y="0" on="1"/>
        <pt x="104" y="720" on="1"/>
        <pt x="131" y="720" on="1"/>
        <pt x="570" y="38" on="1"/>
        <pt x="570" y="720" on="1"/>
        <pt x="590" y="720" on="1"/>
        <pt x="590" y="0" on="1"/>
        <pt x="570" y="0" on="1"/>
        <pt x="124" y="694" on="1"/>
        <pt x="124" y="0" on="1"/>
      </contour>
      <contour>
        <pt x="450" y="-160" on="1"/>
        <pt x="450" y="-140" on="1"/>
        <pt x="480" y="-140" on="1"/>
        <pt x="527" y="-140" on="0"/>
        <pt x="570" y="-99" on="0"/>
        <pt x="570" y="-42" on="1"/>
        <pt x="570" y="0" on="1"/>
        <pt x="590" y="20" on="1"/>
        <pt x="590" y="-44" on="1"/>
        <pt x="590" y="-108" on="0"/>
        <pt x="539" y="-160" on="0"/>
        <pt x="480" y="-160" on="1"/>
      </contour>
    </TTGlyph>
    <TTGlyph name="Eogonek" xMin="104" yMin="-200" xMax="553" yMax="720">
      <component glyphName="E" x="0" y="0" flags="0x204"/>
      <component glyphName="uni0328" x="334" y="0" flags="0x4"/>
    </TTGlyph>
    <TTGlyph name="Eth" xMin="104" yMin="0" xMax="608" yMax="720">
      <component glyphName="D" x="0" y="0" flags="0x204"/>
      <component glyphName="uni0335" x="120" y="0" flags="0x4"/>
    </TTGlyph>
    <TTGlyph name="Euro" xMin="56" yMin="-12" xMax="512" yMax="732">
      <contour>
        <pt x="335" y="-12" on="1"/>
        <pt x="263" y="-12" on="0"/>
        <pt x="167" y="74" on="0"/>
        <pt x="122" y="232" on="0"/>
        <pt x="122" y="360" on="1"/>
        <pt x="122" y="488" on="0"/>
        <pt x="167" y="646" on="0"/>
        <pt x="263" y="732" on="0"/>
        <pt x="335" y="732" on="1"/>
        <pt x="395" y="732" on="0"/>
        <pt x="471" y="686" on="0"/>
        <pt x="512" y="610" on="0"/>
        <pt x="512" y="550" on="1"/>
        <pt x="492" y="550" on="1"/>
        <pt x="492" y="604" on="0"/>
        <pt x="455" y="674" on="0"/>
        <pt x="389" y="712" on="0"/>
        <pt x="335" y="712" on="1"/>
        <pt x="269" y="712" on="0"/>
        <pt x="183" y="632" on="0"/>
        <pt x="142" y="482" on="0"/>
        <pt x="142" y="360" on="1"/>
        <pt x="142" y="238" on="0"/>
        <pt x="183" y="88" on="0"/>
        <pt x="269" y="8" on="0"/>
        <pt x="335" y="8" on="1"/>
        <pt x="389" y="8" on="0"/>
        <pt x="455" y="42" on="0"/>
        <pt x="492" y="116" on="0"/>
        <pt x="492" y="170" on="1"/>
        <pt x="512" y="170" on="1"/>
        <pt x="512" y="110" on="0"/>
        <pt x="471" y="30" on="0"/>
        <pt x="395" y="-12" on="0"/>
      </contour>
      <contour>
        <pt x="56" y="280" on="1"/>
        <pt x="56" y="300" on="1"/>
        <pt x="392" y="300" on="1"/>
        <pt x="392" y="280" on="1"/>
      </contour>
      <contour>
        <pt x="56" y="420" on="1"/>
        <pt x="56" y="440" on="1"/>
        <pt x="392" y="440" on="1"/>
        <pt x="392" y="420" on="1"/>
      </contour>
    </TTGlyph>
    <TTGlyph name="F" xMin="104" yMin="0" xMax="502" yMax="720">
      <contour>
        <pt x="104" y="0" on="1"/>
        <pt x="104" y="720" on="1"/>
        <pt x="502" y="720" on="1"/>
        <pt x="502" y="700" on="1"/>
        <pt x="124" y="700" on="1"/>
        <pt x="124" y="0" on="1"/>
      </contour>
      <contour>
        <pt x="124" y="360" on="1"/>
        <pt x="124" y="380" on="1"/>
        <pt x="482" y="380" on="1"/>
        <pt x="482" y="360" on="1"/>
      </contour>
    </TTGlyph>
    <TTGlyph name="G" xMin="72" yMin="-12" xMax="668" yMax="732">
      <contour>
        <pt x="382" y="-12" on="1"/>
        <pt x="278" y="-12" on="0"/>
        <pt x="140" y="86" on="0"/>
        <pt x="72" y="254" on="0"/>
        <pt x="72" y="360" on="1"/>
        <pt x="72" y="466" on="0"/>
        <pt x="140" y="634" on="0"/>
        <pt x="282" y="732" on="0"/>
        <pt x="382" y="732" on="1"/>
        <pt x="456" y="732" on="0"/>
        <pt x="570" y="685" on="0"/>
        <pt x="642" y="588" on="0"/>
        <pt x="642" y="550" on="1"/>
        <pt x="622" y="550" on="1"/>
        <pt x="622" y="582" on="0"/>
        <pt x="556" y="669" on="0"/>
        <pt x="450" y="712" on="0"/>
        <pt x="382" y="712" on="1"/>
        <pt x="288" y="712" on="0"/>
        <pt x="156" y="620" on="0"/>
        <pt x="92" y="460" on="0"/>
        <pt x="92" y="360" on="1"/>
        <pt x="92" y="260" on="0"/>
        <pt x="156" y="102" on="0"/>
        <pt x="284" y="8" on="0"/>
        <pt x="382" y="8" on="1"/>
        <pt x="482" y="8" on="0"/>
        <pt x="600" y="99" on="0"/>
        <pt x="648" y="252" on="0"/>
        <pt x="648" y="342" on="1"/>
        <pt x="408" y="342" on="1"/>
        <pt x="408" y="362" on="1"/>
        <pt x="667" y="362" on="1"/>
        <pt x="668" y="354" on="0"/>
        <pt x="668" y="344" on="1"/>
        <pt x="668" y="246" on="0"/>
        <pt x="616" y="85" on="0"/>
        <pt x="488" y="-12" on="0"/>
      </contour>
    </TTGlyph>
    <TTGlyph name="Gbreve" xMin="72" yMin="-12" xMax="668" yMax="940">
      <component glyphName="G" x="0" y="0" flags="0x204"/>
      <component glyphName="uni0306" x="178" y="220" flags="0x4"/>
    </TTGlyph>
    <TTGlyph name="Gcaron" xMin="72" yMin="-12" xMax="668" yMax="940">
      <component glyphName="G" x="0" y="0" flags="0x204"/>
      <component glyphName="uni030C" x="178" y="220" flags="0x4"/>
    </TTGlyph>
    <TTGlyph name="Gcircumflex" xMin="72" yMin="-12" xMax="668" yMax="940">
      <component glyphName="G" x="0" y="0" flags="0x204"/>
      <component glyphName="uni0302" x="178" y="220" flags="0x4"/>
    </TTGlyph>
    <TTGlyph name="Gdotaccent" xMin="72" yMin="-12" xMax="668" yMax="880">
      <component glyphName="G" x="0" y="0" flags="0x204"/>
      <component glyphName="uni0307" x="278" y="220" flags="0x4"/>
    </TTGlyph>
    <TTGlyph name="H" xMin="104" yMin="0" xMax="576" yMax="720">
      <contour>
        <pt x="104" y="0" on="1"/>
        <pt x="104" y="720" on="1"/>
        <pt x="124" y="720" on="1"/>
        <pt x="124" y="380" on="1"/>
        <pt x="556" y="380" on="1"/>
        <pt x="556" y="720" on="1"/>
        <pt x="576" y="720" on="1"/>
        <pt x="576" y="0" on="1"/>
        <pt x="556" y="0" on="1"/>
        <pt x="556" y="360" on="1"/>
        <pt x="124" y="360" on="1"/>
        <pt x="124" y="0" on="1"/>
      </contour>
    </TTGlyph>
    <TTGlyph name="Hbar" xMin="32" yMin="0" xMax="712" yMax="720">
      <contour>
        <pt x="32" y="550" on="1"/>
        <pt x="32" y="570" on="1"/>
        <pt x="712" y="570" on="1"/>
        <pt x="712" y="550" on="1"/>
      </contour>
      <contour>
        <pt x="140" y="0" on="1"/>
        <pt x="140" y="720" on="1"/>
        <pt x="160" y="720" on="1"/>
        <pt x="160" y="380" on="1"/>
        <pt x="592" y="380" on="1"/>
        <pt x="592" y="720" on="1"/>
        <pt x="612" y="720" on="1"/>
        <pt x="612" y="0" on="1"/>
        <pt x="592" y="0" on="1"/>
        <pt x="592" y="360" on="1"/>
        <pt x="160" y="360" on="1"/>
        <pt x="160" y="0" on="1"/>
      </contour>
    </TTGlyph>
    <TTGlyph name="Hcircumflex" xMin="104" yMin="0" xMax="576" yMax="940">
      <component glyphName="H" x="0" y="0" flags="0x204"/>
      <component glyphName="uni0302" x="140" y="220" flags="0x4"/>
    </TTGlyph>
    <TTGlyph name="I" xMin="125" yMin="0" xMax="145" yMax="720">
      <contour>
        <pt x="125" y="0" on="1"/>
        <pt x="125" y="720" on="1"/>
        <pt x="145" y="720" on="1"/>
        <pt x="145" y="0" on="1"/>
      </contour>
    </TTGlyph>
    <TTGlyph name="IJ" xMin="125" yMin="-4" xMax="718" yMax="720">
      <component glyphName="I" x="0" y="0" flags="0x4"/>
      <component glyphName="J" x="270" y="0" flags="0x4"/>
    </TTGlyph>
    <TTGlyph name="IJacute" xMin="115" yMin="-4" xMax="784" yMax="940">
      <component glyphName="I" x="0" y="0" flags="0x4"/>
      <component glyphName="acutecomb" x="35" y="220" flags="0x4"/>
      <component glyphName="J" x="270" y="0" flags="0x4"/>
      <component glyphName="acutecomb" x="606" y="220" flags="0x4"/>
    </TTGlyph>
    <TTGlyph name="I_J" xMin="98" yMin="-4" xMax="492" yMax="720">
      <contour>
        <pt x="98" y="240" on="1"/>
        <pt x="98" y="720" on="1"/>
        <pt x="118" y="720" on="1"/>
        <pt x="118" y="240" on="1"/>
      </contour>
      <contour>
        <pt x="296" y="-4" on="1"/>
        <pt x="232" y="-4" on="0"/>
        <pt x="148" y="38" on="0"/>
        <pt x="98" y="118" on="0"/>
        <pt x="98" y="170" on="1"/>
        <pt x="118" y="170" on="1"/>
        <pt x="118" y="124" on="0"/>
        <pt x="162" y="54" on="0"/>
        <pt x="238" y="16" on="0"/>
        <pt x="296" y="16" on="1"/>
        <pt x="358" y="16" on="0"/>
        <pt x="433" y="65" on="0"/>
        <pt x="472" y="150" on="0"/>
        <pt x="472" y="232" on="1"/>
        <pt x="472" y="720" on="1"/>
        <pt x="492" y="720" on="1"/>
        <pt x="492" y="232" on="1"/>
        <pt x="492" y="144" on="0"/>
        <pt x="447" y="49" on="0"/>
        <pt x="364" y="-4" on="0"/>
      </contour>
    </TTGlyph>
    <TTGlyph name="Iacute" xMin="115" yMin="0" xMax="213" yMax="940">
      <component glyphName="I" x="0" y="0" flags="0x204"/>
      <component glyphName="acutecomb" x="35" y="220" flags="0x4"/>
    </TTGlyph>
    <TTGlyph name="Ibreve" xMin="1" yMin="0" xMax="269" yMax="940">
      <component glyphName="I" x="0" y="0" flags="0x204"/>
      <component glyphName="uni0306" x="-65" y="220" flags="0x4"/>
    </TTGlyph>
    <TTGlyph name="Icircumflex" xMin="17" yMin="0" xMax="253" yMax="940">
      <component glyphName="I" x="0" y="0" flags="0x204"/>
      <component glyphName="uni0302" x="-65" y="220" flags="0x4"/>
    </TTGlyph>
    <TTGlyph name="Idieresis" xMin="15" yMin="0" xMax="255" yMax="880">
      <component glyphName="I" x="0" y="0" flags="0x204"/>
      <component glyphName="uni0307" x="-55" y="220" flags="0x4"/>
      <component glyphName="uni0307" x="125" y="220" flags="0x4"/>
    </TTGlyph>
    <TTGlyph name="Idotaccent" xMin="105" yMin="0" xMax="165" yMax="880">
      <component glyphName="I" x="0" y="0" flags="0x204"/>
      <component glyphName="uni0307" x="35" y="220" flags="0x4"/>
    </TTGlyph>
    <TTGlyph name="Igrave" xMin="57" yMin="0" xMax="155" yMax="940">
      <component glyphName="I" x="0" y="0" flags="0x204"/>
      <component glyphName="gravecomb" x="-65" y="220" flags="0x4"/>
    </TTGlyph>
    <TTGlyph name="Imacron" xMin="-5" yMin="0" xMax="275" yMax="860">
      <component glyphName="I" x="0" y="0" flags="0x204"/>
      <component glyphName="uni0304" x="-65" y="220" flags="0x4"/>
    </TTGlyph>
    <TTGlyph name="Iogonek" xMin="44" yMin="-200" xMax="184" yMax="720">
      <component glyphName="I" x="0" y="0" flags="0x204"/>
      <component glyphName="uni0328" x="-35" y="0" flags="0x4"/>
    </TTGlyph>
    <TTGlyph name="Itilde" xMin="-17" yMin="0" xMax="287" yMax="902">
      <component glyphName="I" x="0" y="0" flags="0x204"/>
      <component glyphName="tildecomb" x="-65" y="220" flags="0x4"/>
    </TTGlyph>
    <TTGlyph name="J" xMin="54" yMin="-4" xMax="448" yMax="720">
      <contour>
        <pt x="252" y="-4" on="1"/>
        <pt x="188" y="-4" on="0"/>
        <pt x="104" y="38" on="0"/>
        <pt x="54" y="118" on="0"/>
        <pt x="54" y="170" on="1"/>
        <pt x="74" y="170" on="1"/>
        <pt x="74" y="124" on="0"/>
        <pt x="118" y="54" on="0"/>
        <pt x="194" y="16" on="0"/>
        <pt x="252" y="16" on="1"/>
        <pt x="314" y="16" on="0"/>
        <pt x="389" y="65" on="0"/>
        <pt x="428" y="150" on="0"/>
        <pt x="428" y="232" on="1"/>
        <pt x="428" y="720" on="1"/>
        <pt x="448" y="720" on="1"/>
        <pt x="448" y="232" on="1"/>
        <pt x="448" y="144" on="0"/>
        <pt x="403" y="49" on="0"/>
        <pt x="320" y="-4" on="0"/>
      </contour>
    </TTGlyph>
    <TTGlyph name="Jcircumflex" xMin="54" yMin="-4" xMax="554" yMax="940">
      <component glyphName="J" x="0" y="0" flags="0x204"/>
      <component glyphName="uni0302" x="236" y="220" flags="0x4"/>
    </TTGlyph>
    <TTGlyph name="K" xMin="104" yMin="0" xMax="606" yMax="720">
      <contour>
        <pt x="104" y="0" on="1"/>
        <pt x="104" y="720" on="1"/>
        <pt x="124" y="720" on="1"/>
        <pt x="124" y="304" on="1"/>
        <pt x="580" y="720" on="1"/>
        <pt x="606" y="720" on="1"/>
        <pt x="295" y="438" on="1"/>
        <pt x="606" y="0" on="1"/>
        <pt x="582" y="0" on="1"/>
        <pt x="280" y="423" on="1"/>
        <pt x="124" y="278" on="1"/>
        <pt x="124" y="0" on="1"/>
      </contour>
    </TTGlyph>
    <TTGlyph name="K.ss02" xMin="104" yMin="0" xMax="626" yMax="720">
      <component glyphName="uni041A" x="0" y="0" flags="0x204"/>
    </TTGlyph>
    <TTGlyph name="L" xMin="104" yMin="0" xMax="480" yMax="720">
      <contour>
        <pt x="104" y="0" on="1"/>
        <pt x="104" y="720" on="1"/>
        <pt x="124" y="720" on="1"/>
        <pt x="124" y="20" on="1"/>
        <pt x="480" y="20" on="1"/>
        <pt x="480" y="0" on="1"/>
      </contour>
    </TTGlyph>
    <TTGlyph name="L.ss02" xMin="104" yMin="0" xMax="480" yMax="720">
      <contour>
        <pt x="254" y="0" on="1"/>
        <pt x="182" y="0" on="0"/>
        <pt x="104" y="78" on="0"/>
        <pt x="104" y="150" on="1"/>
        <pt x="104" y="720" on="1"/>
        <pt x="124" y="720" on="1"/>
        <pt x="124" y="150" on="1"/>
        <pt x="124" y="86" on="0"/>
        <pt x="190" y="20" on="0"/>
        <pt x="254" y="20" on="1"/>
        <pt x="480" y="20" on="1"/>
        <pt x="480" y="0" on="1"/>
      </contour>
    </TTGlyph>
    <TTGlyph name="Lacute" xMin="104" yMin="0" xMax="480" yMax="940">
      <component glyphName="L" x="0" y="0" flags="0x204"/>
      <component glyphName="acutecomb" x="40" y="220" flags="0x4"/>
    </TTGlyph>
    <TTGlyph name="Lacute.ss02" xMin="104" yMin="0" xMax="480" yMax="940">
      <component glyphName="L.ss02" x="0" y="0" flags="0x204"/>
      <component glyphName="acutecomb" x="40" y="220" flags="0x4"/>
    </TTGlyph>
    <TTGlyph name="Lcaron" xMin="104" yMin="0" xMax="480" yMax="720">
      <component glyphName="L" x="0" y="0" flags="0x204"/>
      <component glyphName="uni030C.alt" x="246" y="0" flags="0x4"/>
    </TTGlyph>
    <TTGlyph name="Lcaron.ss02" xMin="104" yMin="0" xMax="480" yMax="720">
      <component glyphName="L.ss02" x="0" y="0" flags="0x204"/>
      <component glyphName="uni030C.alt" x="246" y="0" flags="0x4"/>
    </TTGlyph>
    <TTGlyph name="Ldot" xMin="104" yMin="0" xMax="480" yMax="720">
      <component glyphName="L" x="0" y="0" flags="0x204"/>
      <component glyphName="period" x="186" y="336" flags="0x4"/>
    </TTGlyph>
    <TTGlyph name="Ldot.ss02" xMin="104" yMin="0" xMax="480" yMax="720">
      <component glyphName="L.ss02" x="0" y="0" flags="0x204"/>
      <component glyphName="period" x="186" y="336" flags="0x4"/>
    </TTGlyph>
    <TTGlyph name="Lslash" xMin="28" yMin="0" xMax="486" yMax="720">
      <contour>
        <pt x="28" y="285" on="1"/>
        <pt x="28" y="306" on="1"/>
        <pt x="391" y="448" on="1"/>
        <pt x="391" y="427" on="1"/>
      </contour>
      <contour>
        <pt x="110" y="0" on="1"/>
        <pt x="110" y="720" on="1"/>
        <pt x="130" y="720" on="1"/>
        <pt x="130" y="20" on="1"/>
        <pt x="486" y="20" on="1"/>
        <pt x="486" y="0" on="1"/>
      </contour>
    </TTGlyph>
    <TTGlyph name="Lslash.ss02" xMin="28" yMin="0" xMax="486" yMax="720">
      <contour>
        <pt x="28" y="285" on="1"/>
        <pt x="28" y="306" on="1"/>
        <pt x="391" y="448" on="1"/>
        <pt x="391" y="427" on="1"/>
      </contour>
      <contour>
        <pt x="260" y="0" on="1"/>
        <pt x="188" y="0" on="0"/>
        <pt x="110" y="78" on="0"/>
        <pt x="110" y="150" on="1"/>
        <pt x="110" y="720" on="1"/>
        <pt x="130" y="720" on="1"/>
        <pt x="130" y="150" on="1"/>
        <pt x="130" y="86" on="0"/>
        <pt x="196" y="20" on="0"/>
        <pt x="260" y="20" on="1"/>
        <pt x="486" y="20" on="1"/>
        <pt x="486" y="0" on="1"/>
      </contour>
    </TTGlyph>
    <TTGlyph name="M" xMin="104" yMin="0" xMax="736" yMax="720">
      <contour>
        <pt x="104" y="0" on="1"/>
        <pt x="104" y="720" on="1"/>
        <pt x="136" y="720" on="1"/>
        <pt x="422" y="24" on="1"/>
        <pt x="704" y="720" on="1"/>
        <pt x="736" y="720" on="1"/>
        <pt x="736" y="0" on="1"/>
        <pt x="716" y="0" on="1"/>
        <pt x="716" y="696" on="1"/>
        <pt x="432" y="0" on="1"/>
        <pt x="410" y="0" on="1"/>
        <pt x="124" y="696" on="1"/>
        <pt x="124" y="0" on="1"/>
      </contour>
    </TTGlyph>
    <TTGlyph name="N" xMin="104" yMin="0" xMax="590" yMax="720">
      <contour>
        <pt x="104" y="0" on="1"/>
        <pt x="104" y="720" on="1"/>
        <pt x="131" y="720" on="1"/>
        <pt x="570" y="26" on="1"/>
        <pt x="570" y="720" on="1"/>
        <pt x="590" y="720" on="1"/>
        <pt x="590" y="0" on="1"/>
        <pt x="563" y="0" on="1"/>
        <pt x="124" y="694" on="1"/>
        <pt x="124" y="0" on="1"/>
      </contour>
    </TTGlyph>
    <TTGlyph name="NULL" xMin="44" yMin="-26" xMax="596" yMax="526">
      <contour>
        <pt x="58" y="-26" on="1"/>
        <pt x="44" y="-12" on="1"/>
        <pt x="582" y="526" on="1"/>
        <pt x="596" y="512" on="1"/>
      </contour>
      <contour>
        <pt x="320" y="0" on="1"/>
        <pt x="214" y="0" on="0"/>
        <pt x="70" y="144" on="0"/>
        <pt x="70" y="250" on="1"/>
        <pt x="70" y="356" on="0"/>
        <pt x="214" y="500" on="0"/>
        <pt x="320" y="500" on="1"/>
        <pt x="426" y="500" on="0"/>
        <pt x="570" y="356" on="0"/>
        <pt x="570" y="250" on="1"/>
        <pt x="570" y="144" on="0"/>
        <pt x="426" y="0" on="0"/>
      </contour>
      <contour>
        <pt x="320" y="20" on="1"/>
        <pt x="419" y="20" on="0"/>
        <pt x="550" y="151" on="0"/>
        <pt x="550" y="250" on="1"/>
        <pt x="550" y="349" on="0"/>
        <pt x="419" y="480" on="0"/>
        <pt x="320" y="480" on="1"/>
        <pt x="221" y="480" on="0"/>
        <pt x="90" y="349" on="0"/>
        <pt x="90" y="250" on="1"/>
        <pt x="90" y="151" on="0"/>
        <pt x="221" y="20" on="0"/>
      </contour>
    </TTGlyph>
    <TTGlyph name="Nacute" xMin="104" yMin="0" xMax="590" yMax="940">
      <component glyphName="N" x="0" y="0" flags="0x204"/>
      <component glyphName="acutecomb" x="246" y="220" flags="0x4"/>
    </TTGlyph>
    <TTGlyph name="Ncaron" xMin="104" yMin="0" xMax="590" yMax="940">
      <component glyphName="N" x="0" y="0" flags="0x204"/>
      <component glyphName="uni030C" x="146" y="220" flags="0x4"/>
    </TTGlyph>
    <TTGlyph name="Ntilde" xMin="104" yMin="0" xMax="590" yMax="902">
      <component glyphName="N" x="0" y="0" flags="0x204"/>
      <component glyphName="tildecomb" x="146" y="220" flags="0x4"/>
    </TTGlyph>
    <TTGlyph name="O" xMin="72" yMin="-12" xMax="688" yMax="732">
      <contour>
        <pt x="380" y="-12" on="1"/>
        <pt x="284" y="-12" on="0"/>
        <pt x="140" y="88" on="0"/>
        <pt x="72" y="256" on="0"/>
        <pt x="72" y="360" on="1"/>
        <pt x="72" y="464" on="0"/>
        <pt x="140" y="632" on="0"/>
        <pt x="284" y="732" on="0"/>
        <pt x="380" y="732" on="1"/>
        <pt x="476" y="732" on="0"/>
        <pt x="620" y="632" on="0"/>
        <pt x="688" y="464" on="0"/>
        <pt x="688" y="360" on="1"/>
        <pt x="688" y="256" on="0"/>
        <pt x="620" y="88" on="0"/>
        <pt x="476" y="-12" on="0"/>
      </contour>
      <contour>
        <pt x="380" y="8" on="1"/>
        <pt x="470" y="8" on="0"/>
        <pt x="604" y="102" on="0"/>
        <pt x="668" y="262" on="0"/>
        <pt x="668" y="360" on="1"/>
        <pt x="668" y="458" on="0"/>
        <pt x="604" y="618" on="0"/>
        <pt x="470" y="712" on="0"/>
        <pt x="380" y="712" on="1"/>
        <pt x="290" y="712" on="0"/>
        <pt x="156" y="618" on="0"/>
        <pt x="92" y="458" on="0"/>
        <pt x="92" y="360" on="1"/>
        <pt x="92" y="262" on="0"/>
        <pt x="156" y="102" on="0"/>
        <pt x="290" y="8" on="0"/>
      </contour>
    </TTGlyph>
    <TTGlyph name="OE" xMin="72" yMin="-12" xMax="1026" yMax="732">
      <contour>
        <pt x="354" y="-12" on="1"/>
        <pt x="263" y="-12" on="0"/>
        <pt x="136" y="85" on="0"/>
        <pt x="72" y="253" on="0"/>
        <pt x="72" y="360" on="1"/>
        <pt x="72" y="463" on="0"/>
        <pt x="133" y="632" on="0"/>
        <pt x="260" y="732" on="0"/>
        <pt x="354" y="732" on="1"/>
        <pt x="448" y="732" on="0"/>
        <pt x="575" y="632" on="0"/>
        <pt x="636" y="464" on="0"/>
        <pt x="636" y="360" on="1"/>
        <pt x="636" y="257" on="0"/>
        <pt x="575" y="88" on="0"/>
        <pt x="448" y="-12" on="0"/>
      </contour>
      <contour>
        <pt x="354" y="8" on="1"/>
        <pt x="440" y="8" on="0"/>
        <pt x="558" y="103" on="0"/>
        <pt x="616" y="263" on="0"/>
        <pt x="616" y="360" on="1"/>
        <pt x="616" y="455" on="0"/>
        <pt x="561" y="615" on="0"/>
        <pt x="443" y="712" on="0"/>
        <pt x="354" y="712" on="1"/>
        <pt x="268" y="712" on="0"/>
        <pt x="150" y="617" on="0"/>
        <pt x="92" y="457" on="0"/>
        <pt x="92" y="360" on="1"/>
        <pt x="92" y="265" on="0"/>
        <pt x="148" y="105" on="0"/>
        <pt x="266" y="8" on="0"/>
      </contour>
      <contour>
        <pt x="616" y="0" on="1"/>
        <pt x="616" y="720" on="1"/>
        <pt x="1026" y="720" on="1"/>
        <pt x="1026" y="700" on="1"/>
        <pt x="636" y="700" on="1"/>
        <pt x="636" y="380" on="1"/>
        <pt x="1006" y="380" on="1"/>
        <pt x="1006" y="360" on="1"/>
        <pt x="636" y="360" on="1"/>
        <pt x="636" y="20" on="1"/>
        <pt x="1026" y="20" on="1"/>
        <pt x="1026" y="0" on="1"/>
      </contour>
    </TTGlyph>
    <TTGlyph name="Oacute" xMin="72" yMin="-12" xMax="688" yMax="940">
      <component glyphName="O" x="0" y="0" flags="0x204"/>
      <component glyphName="acutecomb" x="280" y="220" flags="0x4"/>
    </TTGlyph>
    <TTGlyph name="Obreve" xMin="72" yMin="-12" xMax="688" yMax="940">
      <component glyphName="O" x="0" y="0" flags="0x204"/>
      <component glyphName="uni0306" x="180" y="220" flags="0x4"/>
    </TTGlyph>
    <TTGlyph name="Ocircumflex" xMin="72" yMin="-12" xMax="688" yMax="940">
      <component glyphName="O" x="0" y="0" flags="0x204"/>
      <component glyphName="uni0302" x="180" y="220" flags="0x4"/>
    </TTGlyph>
    <TTGlyph name="Odieresis" xMin="72" yMin="-12" xMax="688" yMax="880">
      <component glyphName="O" x="0" y="0" flags="0x204"/>
      <component glyphName="uni0307" x="190" y="220" flags="0x4"/>
      <component glyphName="uni0307" x="370" y="220" flags="0x4"/>
    </TTGlyph>
    <TTGlyph name="Ograve" xMin="72" yMin="-12" xMax="688" yMax="940">
      <component glyphName="O" x="0" y="0" flags="0x204"/>
      <component glyphName="gravecomb" x="180" y="220" flags="0x4"/>
    </TTGlyph>
    <TTGlyph name="Ohungarumlaut" xMin="72" yMin="-12" xMax="688" yMax="940">
      <component glyphName="O" x="0" y="0" flags="0x204"/>
      <component glyphName="acutecomb" x="230" y="220" flags="0x4"/>
      <component glyphName="acutecomb" x="350" y="220" flags="0x4"/>
    </TTGlyph>
    <TTGlyph name="Omacron" xMin="72" yMin="-12" xMax="688" yMax="860">
      <component glyphName="O" x="0" y="0" flags="0x204"/>
      <component glyphName="uni0304" x="180" y="220" flags="0x4"/>
    </TTGlyph>
    <TTGlyph name="Oslash" xMin="72" yMin="-12" xMax="688" yMax="732">
      <contour>
        <pt x="73" y="0" on="1"/>
        <pt x="661" y="720" on="1"/>
        <pt x="687" y="720" on="1"/>
        <pt x="99" y="0" on="1"/>
      </contour>
      <contour>
        <pt x="380" y="-12" on="1"/>
        <pt x="284" y="-12" on="0"/>
        <pt x="140" y="88" on="0"/>
        <pt x="72" y="256" on="0"/>
        <pt x="72" y="360" on="1"/>
        <pt x="72" y="464" on="0"/>
        <pt x="140" y="632" on="0"/>
        <pt x="284" y="732" on="0"/>
        <pt x="380" y="732" on="1"/>
        <pt x="476" y="732" on="0"/>
        <pt x="620" y="632" on="0"/>
        <pt x="688" y="464" on="0"/>
        <pt x="688" y="360" on="1"/>
        <pt x="688" y="256" on="0"/>
        <pt x="620" y="88" on="0"/>
        <pt x="476" y="-12" on="0"/>
      </contour>
      <contour>
        <pt x="380" y="8" on="1"/>
        <pt x="470" y="8" on="0"/>
        <pt x="604" y="102" on="0"/>
        <pt x="668" y="262" on="0"/>
        <pt x="668" y="360" on="1"/>
        <pt x="668" y="458" on="0"/>
        <pt x="604" y="618" on="0"/>
        <pt x="470" y="712" on="0"/>
        <pt x="380" y="712" on="1"/>
        <pt x="290" y="712" on="0"/>
        <pt x="156" y="618" on="0"/>
        <pt x="92" y="458" on="0"/>
        <pt x="92" y="360" on="1"/>
        <pt x="92" y="262" on="0"/>
        <pt x="156" y="102" on="0"/>
        <pt x="290" y="8" on="0"/>
      </contour>
    </TTGlyph>
    <TTGlyph name="Oslashacute" xMin="72" yMin="-12" xMax="688" yMax="940">
      <component glyphName="Oslash" x="0" y="0" flags="0x204"/>
      <component glyphName="acutecomb" x="280" y="220" flags="0x4"/>
    </TTGlyph>
    <TTGlyph name="Otilde" xMin="72" yMin="-12" xMax="688" yMax="902">
      <component glyphName="O" x="0" y="0" flags="0x204"/>
      <component glyphName="tildecomb" x="180" y="220" flags="0x4"/>
    </TTGlyph>
    <TTGlyph name="P" xMin="104" yMin="0" xMax="606" yMax="720">
      <contour>
        <pt x="104" y="0" on="1"/>
        <pt x="104" y="720" on="1"/>
        <pt x="362" y="720" on="1"/>
        <pt x="438" y="720" on="0"/>
        <pt x="544" y="670" on="0"/>
        <pt x="606" y="574" on="0"/>
        <pt x="606" y="508" on="1"/>
        <pt x="606" y="442" on="0"/>
        <pt x="544" y="346" on="0"/>
        <pt x="438" y="296" on="0"/>
        <pt x="362" y="296" on="1"/>
        <pt x="124" y="296" on="1"/>
        <pt x="124" y="0" on="1"/>
      </contour>
      <contour>
        <pt x="124" y="316" on="1"/>
        <pt x="360" y="316" on="1"/>
        <pt x="430" y="316" on="0"/>
        <pt x="528" y="360" on="0"/>
        <pt x="586" y="448" on="0"/>
        <pt x="586" y="508" on="1"/>
        <pt x="586" y="568" on="0"/>
        <pt x="528" y="656" on="0"/>
        <pt x="430" y="700" on="0"/>
        <pt x="360" y="700" on="1"/>
        <pt x="124" y="700" on="1"/>
      </contour>
    </TTGlyph>
    <TTGlyph name="Q" xMin="72" yMin="-120" xMax="688" yMax="732">
      <contour>
        <pt x="637" y="-120" on="1"/>
        <pt x="525" y="37" on="1"/>
        <pt x="543" y="48" on="1"/>
        <pt x="663" y="-120" on="1"/>
      </contour>
      <contour>
        <pt x="380" y="-12" on="1"/>
        <pt x="284" y="-12" on="0"/>
        <pt x="140" y="88" on="0"/>
        <pt x="72" y="256" on="0"/>
        <pt x="72" y="360" on="1"/>
        <pt x="72" y="464" on="0"/>
        <pt x="140" y="632" on="0"/>
        <pt x="284" y="732" on="0"/>
        <pt x="380" y="732" on="1"/>
        <pt x="476" y="732" on="0"/>
        <pt x="620" y="632" on="0"/>
        <pt x="688" y="464" on="0"/>
        <pt x="688" y="360" on="1"/>
        <pt x="688" y="256" on="0"/>
        <pt x="620" y="88" on="0"/>
        <pt x="476" y="-12" on="0"/>
      </contour>
      <contour>
        <pt x="380" y="8" on="1"/>
        <pt x="470" y="8" on="0"/>
        <pt x="604" y="102" on="0"/>
        <pt x="668" y="262" on="0"/>
        <pt x="668" y="360" on="1"/>
        <pt x="668" y="458" on="0"/>
        <pt x="604" y="618" on="0"/>
        <pt x="470" y="712" on="0"/>
        <pt x="380" y="712" on="1"/>
        <pt x="290" y="712" on="0"/>
        <pt x="156" y="618" on="0"/>
        <pt x="92" y="458" on="0"/>
        <pt x="92" y="360" on="1"/>
        <pt x="92" y="262" on="0"/>
        <pt x="156" y="102" on="0"/>
        <pt x="290" y="8" on="0"/>
      </contour>
    </TTGlyph>
    <TTGlyph name="R" xMin="104" yMin="0" xMax="616" yMax="720">
      <contour>
        <pt x="104" y="0" on="1"/>
        <pt x="104" y="720" on="1"/>
        <pt x="386" y="720" on="1"/>
        <pt x="458" y="720" on="0"/>
        <pt x="545" y="674" on="0"/>
        <pt x="598" y="588" on="0"/>
        <pt x="598" y="526" on="1"/>
        <pt x="598" y="472" on="0"/>
        <pt x="545" y="378" on="0"/>
        <pt x="458" y="332" on="0"/>
        <pt x="386" y="332" on="1"/>
        <pt x="616" y="0" on="1"/>
        <pt x="591" y="0" on="1"/>
        <pt x="361" y="332" on="1"/>
        <pt x="124" y="332" on="1"/>
        <pt x="124" y="0" on="1"/>
      </contour>
      <contour>
        <pt x="124" y="352" on="1"/>
        <pt x="386" y="352" on="1"/>
        <pt x="452" y="352" on="0"/>
        <pt x="529" y="392" on="0"/>
        <pt x="578" y="478" on="0"/>
        <pt x="578" y="526" on="1"/>
        <pt x="578" y="582" on="0"/>
        <pt x="529" y="660" on="0"/>
        <pt x="452" y="700" on="0"/>
        <pt x="386" y="700" on="1"/>
        <pt x="124" y="700" on="1"/>
      </contour>
    </TTGlyph>
    <TTGlyph name="Racute" xMin="104" yMin="0" xMax="616" yMax="940">
      <component glyphName="R" x="0" y="0" flags="0x204"/>
      <component glyphName="acutecomb" x="206" y="220" flags="0x4"/>
    </TTGlyph>
    <TTGlyph name="Rcaron" xMin="104" yMin="0" xMax="616" yMax="940">
      <component glyphName="R" x="0" y="0" flags="0x204"/>
      <component glyphName="uni030C" x="106" y="220" flags="0x4"/>
    </TTGlyph>
    <TTGlyph name="S" xMin="80" yMin="-12" xMax="560" yMax="732">
      <contour>
        <pt x="326" y="-12" on="1"/>
        <pt x="254" y="-12" on="0"/>
        <pt x="149" y="23" on="0"/>
        <pt x="80" y="106" on="0"/>
        <pt x="80" y="170" on="1"/>
        <pt x="100" y="170" on="1"/>
        <pt x="100" y="112" on="0"/>
        <pt x="163" y="39" on="0"/>
        <pt x="260" y="8" on="0"/>
        <pt x="326" y="8" on="1"/>
        <pt x="392" y="8" on="0"/>
        <pt x="483" y="43" on="0"/>
        <pt x="540" y="126" on="0"/>
        <pt x="540" y="186" on="1"/>
        <pt x="540" y="232" on="0"/>
        <pt x="513" y="297" on="0"/>
        <pt x="439" y="345" on="0"/>
        <pt x="358" y="355" on="1"/>
        <pt x="278" y="365" on="1"/>
        <pt x="198" y="375" on="0"/>
        <pt x="122" y="426" on="0"/>
        <pt x="88" y="492" on="0"/>
        <pt x="88" y="546" on="1"/>
        <pt x="88" y="604" on="0"/>
        <pt x="145" y="686" on="0"/>
        <pt x="242" y="732" on="0"/>
        <pt x="312" y="732" on="1"/>
        <pt x="380" y="732" on="0"/>
        <pt x="475" y="690" on="0"/>
        <pt x="538" y="602" on="0"/>
        <pt x="538" y="550" on="1"/>
        <pt x="518" y="550" on="1"/>
        <pt x="518" y="594" on="0"/>
        <pt x="461" y="674" on="0"/>
        <pt x="374" y="712" on="0"/>
        <pt x="312" y="712" on="1"/>
        <pt x="248" y="712" on="0"/>
        <pt x="159" y="670" on="0"/>
        <pt x="108" y="598" on="0"/>
        <pt x="108" y="546" on="1"/>
        <pt x="108" y="500" on="0"/>
        <pt x="136" y="442" on="0"/>
        <pt x="204" y="395" on="0"/>
        <pt x="282" y="385" on="1"/>
        <pt x="362" y="375" on="1"/>
        <pt x="447" y="366" on="0"/>
        <pt x="529" y="311" on="0"/>
        <pt x="560" y="238" on="0"/>
        <pt x="560" y="186" on="1"/>
        <pt x="560" y="120" on="0"/>
        <pt x="497" y="27" on="0"/>
        <pt x="398" y="-12" on="0"/>
      </contour>
    </TTGlyph>
    <TTGlyph name="Sacute" xMin="80" yMin="-12" xMax="560" yMax="940">
      <component glyphName="S" x="0" y="0" flags="0x204"/>
      <component glyphName="acutecomb" x="220" y="220" flags="0x4"/>
    </TTGlyph>
    <TTGlyph name="Scaron" xMin="80" yMin="-12" xMax="560" yMax="940">
      <component glyphName="S" x="0" y="0" flags="0x204"/>
      <component glyphName="uni030C" x="120" y="220" flags="0x4"/>
    </TTGlyph>
    <TTGlyph name="Scedilla" xMin="80" yMin="-200" xMax="560" yMax="732">
      <component glyphName="S" x="0" y="0" flags="0x204"/>
      <component glyphName="uni0327" x="186" y="0" flags="0x4"/>
    </TTGlyph>
    <TTGlyph name="Scircumflex" xMin="80" yMin="-12" xMax="560" yMax="940">
      <component glyphName="S" x="0" y="0" flags="0x204"/>
      <component glyphName="uni0302" x="120" y="220" flags="0x4"/>
    </TTGlyph>
    <TTGlyph name="T" xMin="40" yMin="0" xMax="500" yMax="720">
      <contour>
        <pt x="260" y="0" on="1"/>
        <pt x="260" y="700" on="1"/>
        <pt x="40" y="700" on="1"/>
        <pt x="40" y="720" on="1"/>
        <pt x="500" y="720" on="1"/>
        <pt x="500" y="700" on="1"/>
        <pt x="280" y="700" on="1"/>
        <pt x="280" y="0" on="1"/>
      </contour>
    </TTGlyph>
    <TTGlyph name="Tbar" xMin="40" yMin="0" xMax="500" yMax="720">
      <component glyphName="T" x="0" y="0" flags="0x204"/>
      <component glyphName="uni0335" x="70" y="0" flags="0x4"/>
    </TTGlyph>
    <TTGlyph name="Tcaron" xMin="40" yMin="0" xMax="500" yMax="940">
      <component glyphName="T" x="0" y="0" flags="0x204"/>
      <component glyphName="uni030C" x="70" y="220" flags="0x4"/>
    </TTGlyph>
    <TTGlyph name="Thorn" xMin="104" yMin="0" xMax="546" yMax="720">
      <contour>
        <pt x="104" y="158" on="1"/>
        <pt x="104" y="582" on="1"/>
        <pt x="302" y="582" on="1"/>
        <pt x="378" y="582" on="0"/>
        <pt x="484" y="532" on="0"/>
        <pt x="546" y="436" on="0"/>
        <pt x="546" y="370" on="1"/>
        <pt x="546" y="304" on="0"/>
        <pt x="484" y="208" on="0"/>
        <pt x="378" y="158" on="0"/>
        <pt x="302" y="158" on="1"/>
      </contour>
      <contour>
        <pt x="104" y="0" on="1"/>
        <pt x="104" y="720" on="1"/>
        <pt x="124" y="720" on="1"/>
        <pt x="124" y="0" on="1"/>
      </contour>
      <contour>
        <pt x="124" y="178" on="1"/>
        <pt x="300" y="178" on="1"/>
        <pt x="370" y="178" on="0"/>
        <pt x="468" y="222" on="0"/>
        <pt x="526" y="310" on="0"/>
        <pt x="526" y="370" on="1"/>
        <pt x="526" y="430" on="0"/>
        <pt x="468" y="518" on="0"/>
        <pt x="370" y="562" on="0"/>
        <pt x="300" y="562" on="1"/>
        <pt x="124" y="562" on="1"/>
      </contour>
    </TTGlyph>
    <TTGlyph name="U" xMin="98" yMin="-12" xMax="582" yMax="720">
      <contour>
        <pt x="340" y="-12" on="1"/>
        <pt x="256" y="-12" on="0"/>
        <pt x="153" y="51" on="0"/>
        <pt x="98" y="154" on="0"/>
        <pt x="98" y="240" on="1"/>
        <pt x="98" y="720" on="1"/>
        <pt x="118" y="720" on="1"/>
        <pt x="118" y="240" on="1"/>
        <pt x="118" y="160" on="0"/>
        <pt x="167" y="65" on="0"/>
        <pt x="262" y="8" on="0"/>
        <pt x="340" y="8" on="1"/>
        <pt x="418" y="8" on="0"/>
        <pt x="513" y="65" on="0"/>
        <pt x="562" y="160" on="0"/>
        <pt x="562" y="240" on="1"/>
        <pt x="562" y="720" on="1"/>
        <pt x="582" y="720" on="1"/>
        <pt x="582" y="240" on="1"/>
        <pt x="582" y="154" on="0"/>
        <pt x="527" y="51" on="0"/>
        <pt x="424" y="-12" on="0"/>
      </contour>
    </TTGlyph>
    <TTGlyph name="Uacute" xMin="98" yMin="-12" xMax="582" yMax="940">
      <component glyphName="U" x="0" y="0" flags="0x204"/>
      <component glyphName="acutecomb" x="240" y="220" flags="0x4"/>
    </TTGlyph>
    <TTGlyph name="Ubreve" xMin="98" yMin="-12" xMax="582" yMax="940">
      <component glyphName="U" x="0" y="0" flags="0x204"/>
      <component glyphName="uni0306" x="140" y="220" flags="0x4"/>
    </TTGlyph>
    <TTGlyph name="Ucircumflex" xMin="98" yMin="-12" xMax="582" yMax="940">
      <component glyphName="U" x="0" y="0" flags="0x204"/>
      <component glyphName="uni0302" x="140" y="220" flags="0x4"/>
    </TTGlyph>
    <TTGlyph name="Udieresis" xMin="98" yMin="-12" xMax="582" yMax="880">
      <component glyphName="U" x="0" y="0" flags="0x204"/>
      <component glyphName="uni0307" x="150" y="220" flags="0x4"/>
      <component glyphName="uni0307" x="330" y="220" flags="0x4"/>
    </TTGlyph>
    <TTGlyph name="Ugrave" xMin="98" yMin="-12" xMax="582" yMax="940">
      <component glyphName="U" x="0" y="0" flags="0x204"/>
      <component glyphName="gravecomb" x="140" y="220" flags="0x4"/>
    </TTGlyph>
    <TTGlyph name="Uhungarumlaut" xMin="98" yMin="-12" xMax="582" yMax="940">
      <component glyphName="U" x="0" y="0" flags="0x204"/>
      <component glyphName="acutecomb" x="190" y="220" flags="0x4"/>
      <component glyphName="acutecomb" x="310" y="220" flags="0x4"/>
    </TTGlyph>
    <TTGlyph name="Umacron" xMin="98" yMin="-12" xMax="582" yMax="860">
      <component glyphName="U" x="0" y="0" flags="0x204"/>
      <component glyphName="uni0304" x="140" y="220" flags="0x4"/>
    </TTGlyph>
    <TTGlyph name="Uogonek" xMin="98" yMin="-200" xMax="582" yMax="720">
      <component glyphName="U" x="0" y="0" flags="0x204"/>
      <component glyphName="uni0328" x="217" y="0" flags="0x4"/>
    </TTGlyph>
    <TTGlyph name="Uring" xMin="98" yMin="-12" xMax="582" yMax="940">
      <component glyphName="U" x="0" y="0" flags="0x204"/>
      <component glyphName="uni030A" x="190" y="220" flags="0x4"/>
    </TTGlyph>
    <TTGlyph name="Utilde" xMin="98" yMin="-12" xMax="582" yMax="902">
      <component glyphName="U" x="0" y="0" flags="0x204"/>
      <component glyphName="tildecomb" x="140" y="220" flags="0x4"/>
    </TTGlyph>
    <TTGlyph name="V" xMin="48" yMin="0" xMax="652" yMax="720">
      <contour>
        <pt x="336" y="0" on="1"/>
        <pt x="48" y="720" on="1"/>
        <pt x="70" y="720" on="1"/>
        <pt x="350" y="24" on="1"/>
        <pt x="630" y="720" on="1"/>
        <pt x="652" y="720" on="1"/>
        <pt x="364" y="0" on="1"/>
      </contour>
    </TTGlyph>
    <TTGlyph name="W" xMin="40" yMin="0" xMax="900" yMax="720">
      <contour>
        <pt x="252" y="0" on="1"/>
        <pt x="40" y="720" on="1"/>
        <pt x="61" y="720" on="1"/>
        <pt x="266" y="22" on="1"/>
        <pt x="460" y="720" on="1"/>
        <pt x="480" y="720" on="1"/>
        <pt x="674" y="22" on="1"/>
        <pt x="879" y="720" on="1"/>
        <pt x="900" y="720" on="1"/>
        <pt x="688" y="0" on="1"/>
        <pt x="660" y="0" on="1"/>
        <pt x="470" y="688" on="1"/>
        <pt x="280" y="0" on="1"/>
      </contour>
    </TTGlyph>
    <TTGlyph name="Wacute" xMin="40" yMin="0" xMax="900" yMax="940">
      <component glyphName="W" x="0" y="0" flags="0x204"/>
      <component glyphName="acutecomb" x="370" y="220" flags="0x4"/>
    </TTGlyph>
    <TTGlyph name="Wcircumflex" xMin="40" yMin="0" xMax="900" yMax="940">
      <component glyphName="W" x="0" y="0" flags="0x204"/>
      <component glyphName="uni0302" x="270" y="220" flags="0x4"/>
    </TTGlyph>
    <TTGlyph name="Wdieresis" xMin="40" yMin="0" xMax="900" yMax="880">
      <component glyphName="W" x="0" y="0" flags="0x204"/>
      <component glyphName="uni0307" x="280" y="220" flags="0x4"/>
      <component glyphName="uni0307" x="460" y="220" flags="0x4"/>
    </TTGlyph>
    <TTGlyph name="Wgrave" xMin="40" yMin="0" xMax="900" yMax="940">
      <component glyphName="W" x="0" y="0" flags="0x204"/>
      <component glyphName="gravecomb" x="270" y="220" flags="0x4"/>
    </TTGlyph>
    <TTGlyph name="X" xMin="50" yMin="0" xMax="610" yMax="720">
      <contour>
        <pt x="50" y="0" on="1"/>
        <pt x="316" y="368" on="1"/>
        <pt x="64" y="720" on="1"/>
        <pt x="90" y="720" on="1"/>
        <pt x="330" y="382" on="1"/>
        <pt x="570" y="720" on="1"/>
        <pt x="596" y="720" on="1"/>
        <pt x="344" y="368" on="1"/>
        <pt x="610" y="0" on="1"/>
        <pt x="584" y="0" on="1"/>
        <pt x="330" y="354" on="1"/>
        <pt x="76" y="0" on="1"/>
      </contour>
    </TTGlyph>
    <TTGlyph name="Xi" xMin="56" yMin="0" xMax="464" yMax="720">
      <contour>
        <pt x="56" y="700" on="1"/>
        <pt x="56" y="720" on="1"/>
        <pt x="464" y="720" on="1"/>
        <pt x="464" y="700" on="1"/>
      </contour>
      <contour>
        <pt x="56" y="0" on="1"/>
        <pt x="56" y="20" on="1"/>
        <pt x="464" y="20" on="1"/>
        <pt x="464" y="0" on="1"/>
      </contour>
      <contour>
        <pt x="116" y="350" on="1"/>
        <pt x="116" y="370" on="1"/>
        <pt x="404" y="370" on="1"/>
        <pt x="404" y="350" on="1"/>
      </contour>
    </TTGlyph>
    <TTGlyph name="Y" xMin="48" yMin="0" xMax="612" yMax="720">
      <contour>
        <pt x="320" y="0" on="1"/>
        <pt x="320" y="278" on="1"/>
        <pt x="48" y="720" on="1"/>
        <pt x="71" y="720" on="1"/>
        <pt x="331" y="300" on="1"/>
        <pt x="589" y="720" on="1"/>
        <pt x="612" y="720" on="1"/>
        <pt x="340" y="278" on="1"/>
        <pt x="340" y="0" on="1"/>
      </contour>
    </TTGlyph>
    <TTGlyph name="Yacute" xMin="48" yMin="0" xMax="612" yMax="940">
      <component glyphName="Y" x="0" y="0" flags="0x204"/>
      <component glyphName="acutecomb" x="230" y="220" flags="0x4"/>
    </TTGlyph>
    <TTGlyph name="Ycircumflex" xMin="48" yMin="0" xMax="612" yMax="940">
      <component glyphName="Y" x="0" y="0" flags="0x204"/>
      <component glyphName="uni0302" x="130" y="220" flags="0x4"/>
    </TTGlyph>
    <TTGlyph name="Ydieresis" xMin="48" yMin="0" xMax="612" yMax="880">
      <component glyphName="Y" x="0" y="0" flags="0x204"/>
      <component glyphName="uni0307" x="140" y="220" flags="0x4"/>
      <component glyphName="uni0307" x="320" y="220" flags="0x4"/>
    </TTGlyph>
    <TTGlyph name="Ygrave" xMin="48" yMin="0" xMax="612" yMax="940">
      <component glyphName="Y" x="0" y="0" flags="0x204"/>
      <component glyphName="gravecomb" x="130" y="220" flags="0x4"/>
    </TTGlyph>
    <TTGlyph name="Z" xMin="60" yMin="0" xMax="570" yMax="720">
      <contour>
        <pt x="60" y="0" on="1"/>
        <pt x="60" y="8" on="1"/>
        <pt x="528" y="700" on="1"/>
        <pt x="70" y="700" on="1"/>
        <pt x="70" y="720" on="1"/>
        <pt x="560" y="720" on="1"/>
        <pt x="560" y="712" on="1"/>
        <pt x="92" y="20" on="1"/>
        <pt x="570" y="20" on="1"/>
        <pt x="570" y="0" on="1"/>
      </contour>
    </TTGlyph>
    <TTGlyph name="Zacute" xMin="60" yMin="0" xMax="570" yMax="940">
      <component glyphName="Z" x="0" y="0" flags="0x204"/>
      <component glyphName="acutecomb" x="209" y="220" flags="0x4"/>
    </TTGlyph>
    <TTGlyph name="Zcaron" xMin="60" yMin="0" xMax="570" yMax="940">
      <component glyphName="Z" x="0" y="0" flags="0x204"/>
      <component glyphName="uni030C" x="109" y="220" flags="0x4"/>
    </TTGlyph>
    <TTGlyph name="Zdotaccent" xMin="60" yMin="0" xMax="570" yMax="880">
      <component glyphName="Z" x="0" y="0" flags="0x204"/>
      <component glyphName="uni0307" x="209" y="220" flags="0x4"/>
    </TTGlyph>
    <TTGlyph name="a" xMin="58" yMin="-6" xMax="444" yMax="512">
      <contour>
        <pt x="208" y="-6" on="1"/>
        <pt x="159" y="-6" on="0"/>
        <pt x="92" y="28" on="0"/>
        <pt x="58" y="90" on="0"/>
        <pt x="58" y="130" on="1"/>
        <pt x="58" y="186" on="0"/>
        <pt x="115" y="256" on="0"/>
        <pt x="204" y="280" on="0"/>
        <pt x="288" y="280" on="1"/>
        <pt x="412" y="280" on="1"/>
        <pt x="412" y="260" on="1"/>
        <pt x="288" y="260" on="1"/>
        <pt x="208" y="260" on="0"/>
        <pt x="128" y="240" on="0"/>
        <pt x="78" y="180" on="0"/>
        <pt x="78" y="130" on="1"/>
        <pt x="78" y="96" on="0"/>
        <pt x="107" y="43" on="0"/>
        <pt x="164" y="14" on="0"/>
        <pt x="208" y="14" on="1"/>
        <pt x="264" y="14" on="0"/>
        <pt x="352" y="68" on="0"/>
        <pt x="402" y="162" on="0"/>
        <pt x="402" y="220" on="1"/>
        <pt x="402" y="338" on="1"/>
        <pt x="402" y="397" on="0"/>
        <pt x="371" y="460" on="0"/>
        <pt x="300" y="492" on="0"/>
        <pt x="254" y="492" on="1"/>
        <pt x="212" y="492" on="0"/>
        <pt x="145" y="466" on="0"/>
        <pt x="106" y="412" on="0"/>
        <pt x="106" y="370" on="1"/>
        <pt x="86" y="370" on="1"/>
        <pt x="86" y="418" on="0"/>
        <pt x="130" y="480" on="0"/>
        <pt x="208" y="512" on="0"/>
        <pt x="254" y="512" on="1"/>
        <pt x="304" y="512" on="0"/>
        <pt x="386" y="474" on="0"/>
        <pt x="422" y="404" on="0"/>
        <pt x="422" y="342" on="1"/>
        <pt x="422" y="140" on="1"/>
        <pt x="422" y="54" on="0"/>
        <pt x="444" y="0" on="1"/>
        <pt x="423" y="0" on="1"/>
        <pt x="402" y="50" on="0"/>
        <pt x="402" y="124" on="1"/>
        <pt x="382" y="76" on="0"/>
        <pt x="320" y="20" on="0"/>
        <pt x="252" y="-6" on="0"/>
      </contour>
    </TTGlyph>
    <TTGlyph name="a.cv01" xMin="68" yMin="-12" xMax="484" yMax="512">
      <contour>
        <pt x="276" y="-12" on="1"/>
        <pt x="210" y="-12" on="0"/>
        <pt x="121" y="50" on="0"/>
        <pt x="68" y="164" on="0"/>
        <pt x="68" y="250" on="1"/>
        <pt x="68" y="336" on="0"/>
        <pt x="121" y="450" on="0"/>
        <pt x="210" y="512" on="0"/>
        <pt x="276" y="512" on="1"/>
        <pt x="324" y="512" on="0"/>
        <pt x="401" y="478" on="0"/>
        <pt x="456" y="408" on="0"/>
        <pt x="464" y="380" on="1"/>
        <pt x="464" y="500" on="1"/>
        <pt x="484" y="500" on="1"/>
        <pt x="484" y="0" on="1"/>
        <pt x="464" y="0" on="1"/>
        <pt x="464" y="120" on="1"/>
        <pt x="456" y="92" on="0"/>
        <pt x="401" y="22" on="0"/>
        <pt x="324" y="-12" on="0"/>
      </contour>
      <contour>
        <pt x="276" y="8" on="1"/>
        <pt x="336" y="8" on="0"/>
        <pt x="417" y="64" on="0"/>
        <pt x="464" y="170" on="0"/>
        <pt x="464" y="250" on="1"/>
        <pt x="464" y="330" on="0"/>
        <pt x="417" y="436" on="0"/>
        <pt x="336" y="492" on="0"/>
        <pt x="276" y="492" on="1"/>
        <pt x="216" y="492" on="0"/>
        <pt x="137" y="436" on="0"/>
        <pt x="88" y="330" on="0"/>
        <pt x="88" y="250" on="1"/>
        <pt x="88" y="170" on="0"/>
        <pt x="137" y="64" on="0"/>
        <pt x="216" y="8" on="0"/>
      </contour>
    </TTGlyph>
    <TTGlyph name="a.small" xMin="35" yMin="-4" xMax="272" yMax="313">
      <contour>
        <pt x="127" y="-4" on="1"/>
        <pt x="97" y="-4" on="0"/>
        <pt x="56" y="17" on="0"/>
        <pt x="35" y="55" on="0"/>
        <pt x="35" y="80" on="1"/>
        <pt x="35" y="114" on="0"/>
        <pt x="70" y="157" on="0"/>
        <pt x="125" y="171" on="0"/>
        <pt x="176" y="171" on="1"/>
        <pt x="252" y="171" on="1"/>
        <pt x="252" y="159" on="1"/>
        <pt x="176" y="159" on="1"/>
        <pt x="127" y="159" on="0"/>
        <pt x="78" y="147" on="0"/>
        <pt x="48" y="110" on="0"/>
        <pt x="48" y="80" on="1"/>
        <pt x="48" y="59" on="0"/>
        <pt x="65" y="26" on="0"/>
        <pt x="100" y="9" on="0"/>
        <pt x="127" y="9" on="1"/>
        <pt x="162" y="9" on="0"/>
        <pt x="215" y="42" on="0"/>
        <pt x="246" y="99" on="0"/>
        <pt x="246" y="135" on="1"/>
        <pt x="246" y="207" on="1"/>
        <pt x="246" y="243" on="0"/>
        <pt x="227" y="282" on="0"/>
        <pt x="184" y="301" on="0"/>
        <pt x="155" y="301" on="1"/>
        <pt x="130" y="301" on="0"/>
        <pt x="89" y="285" on="0"/>
        <pt x="65" y="252" on="0"/>
        <pt x="65" y="226" on="1"/>
        <pt x="53" y="226" on="1"/>
        <pt x="53" y="256" on="0"/>
        <pt x="80" y="294" on="0"/>
        <pt x="127" y="313" on="0"/>
        <pt x="155" y="313" on="1"/>
        <pt x="186" y="313" on="0"/>
        <pt x="236" y="290" on="0"/>
        <pt x="258" y="247" on="0"/>
        <pt x="258" y="209" on="1"/>
        <pt x="258" y="86" on="1"/>
        <pt x="258" y="33" on="0"/>
        <pt x="272" y="0" on="1"/>
        <pt x="259" y="0" on="1"/>
        <pt x="246" y="31" on="0"/>
        <pt x="246" y="76" on="1"/>
        <pt x="234" y="47" on="0"/>
        <pt x="196" y="12" on="0"/>
        <pt x="154" y="-4" on="0"/>
      </contour>
    </TTGlyph>
    <TTGlyph name="a.ss01" xMin="58" yMin="-6" xMax="522" yMax="512">
      <contour>
        <pt x="208" y="-6" on="1"/>
        <pt x="159" y="-6" on="0"/>
        <pt x="92" y="28" on="0"/>
        <pt x="58" y="90" on="0"/>
        <pt x="58" y="130" on="1"/>
        <pt x="58" y="186" on="0"/>
        <pt x="115" y="256" on="0"/>
        <pt x="204" y="280" on="0"/>
        <pt x="288" y="280" on="1"/>
        <pt x="412" y="280" on="1"/>
        <pt x="412" y="260" on="1"/>
        <pt x="288" y="260" on="1"/>
        <pt x="208" y="260" on="0"/>
        <pt x="128" y="240" on="0"/>
        <pt x="78" y="180" on="0"/>
        <pt x="78" y="130" on="1"/>
        <pt x="78" y="96" on="0"/>
        <pt x="107" y="43" on="0"/>
        <pt x="164" y="14" on="0"/>
        <pt x="208" y="14" on="1"/>
        <pt x="264" y="14" on="0"/>
        <pt x="352" y="68" on="0"/>
        <pt x="402" y="162" on="0"/>
        <pt x="402" y="220" on="1"/>
        <pt x="402" y="338" on="1"/>
        <pt x="402" y="397" on="0"/>
        <pt x="371" y="460" on="0"/>
        <pt x="300" y="492" on="0"/>
        <pt x="254" y="492" on="1"/>
        <pt x="212" y="492" on="0"/>
        <pt x="145" y="466" on="0"/>
        <pt x="106" y="412" on="0"/>
        <pt x="106" y="370" on="1"/>
        <pt x="86" y="370" on="1"/>
        <pt x="86" y="418" on="0"/>
        <pt x="130" y="480" on="0"/>
        <pt x="208" y="512" on="0"/>
        <pt x="254" y="512" on="1"/>
        <pt x="304" y="512" on="0"/>
        <pt x="386" y="474" on="0"/>
        <pt x="422" y="404" on="0"/>
        <pt x="422" y="342" on="1"/>
        <pt x="422" y="80" on="1"/>
        <pt x="422" y="50" on="0"/>
        <pt x="452" y="20" on="0"/>
        <pt x="482" y="20" on="1"/>
        <pt x="522" y="20" on="1"/>
        <pt x="522" y="0" on="1"/>
        <pt x="482" y="0" on="1"/>
        <pt x="444" y="0" on="0"/>
        <pt x="402" y="40" on="0"/>
        <pt x="402" y="80" on="1"/>
        <pt x="402" y="124" on="1"/>
        <pt x="382" y="76" on="0"/>
        <pt x="320" y="20" on="0"/>
        <pt x="252" y="-6" on="0"/>
      </contour>
    </TTGlyph>
    <TTGlyph name="a.ss01.cv01" xMin="68" yMin="-12" xMax="562" yMax="512">
      <contour>
        <pt x="276" y="-12" on="1"/>
        <pt x="210" y="-12" on="0"/>
        <pt x="121" y="50" on="0"/>
        <pt x="68" y="164" on="0"/>
        <pt x="68" y="250" on="1"/>
        <pt x="68" y="336" on="0"/>
        <pt x="121" y="450" on="0"/>
        <pt x="210" y="512" on="0"/>
        <pt x="276" y="512" on="1"/>
        <pt x="324" y="512" on="0"/>
        <pt x="401" y="478" on="0"/>
        <pt x="456" y="408" on="0"/>
        <pt x="464" y="380" on="1"/>
        <pt x="464" y="500" on="1"/>
        <pt x="484" y="500" on="1"/>
        <pt x="484" y="80" on="1"/>
        <pt x="484" y="50" on="0"/>
        <pt x="514" y="20" on="0"/>
        <pt x="544" y="20" on="1"/>
        <pt x="562" y="20" on="1"/>
        <pt x="562" y="0" on="1"/>
        <pt x="544" y="0" on="1"/>
        <pt x="504" y="0" on="0"/>
        <pt x="464" y="40" on="0"/>
        <pt x="464" y="80" on="1"/>
        <pt x="464" y="120" on="1"/>
        <pt x="456" y="92" on="0"/>
        <pt x="401" y="22" on="0"/>
        <pt x="324" y="-12" on="0"/>
      </contour>
      <contour>
        <pt x="276" y="8" on="1"/>
        <pt x="336" y="8" on="0"/>
        <pt x="417" y="64" on="0"/>
        <pt x="464" y="170" on="0"/>
        <pt x="464" y="250" on="1"/>
        <pt x="464" y="330" on="0"/>
        <pt x="417" y="436" on="0"/>
        <pt x="336" y="492" on="0"/>
        <pt x="276" y="492" on="1"/>
        <pt x="216" y="492" on="0"/>
        <pt x="137" y="436" on="0"/>
        <pt x="88" y="330" on="0"/>
        <pt x="88" y="250" on="1"/>
        <pt x="88" y="170" on="0"/>
        <pt x="137" y="64" on="0"/>
        <pt x="216" y="8" on="0"/>
      </contour>
    </TTGlyph>
    <TTGlyph name="a.ss02" xMin="58" yMin="-6" xMax="422" yMax="512">
      <contour>
        <pt x="208" y="-6" on="1"/>
        <pt x="159" y="-6" on="0"/>
        <pt x="92" y="28" on="0"/>
        <pt x="58" y="90" on="0"/>
        <pt x="58" y="130" on="1"/>
        <pt x="58" y="186" on="0"/>
        <pt x="115" y="256" on="0"/>
        <pt x="204" y="280" on="0"/>
        <pt x="288" y="280" on="1"/>
        <pt x="412" y="280" on="1"/>
        <pt x="412" y="260" on="1"/>
        <pt x="288" y="260" on="1"/>
        <pt x="208" y="260" on="0"/>
        <pt x="128" y="240" on="0"/>
        <pt x="78" y="180" on="0"/>
        <pt x="78" y="130" on="1"/>
        <pt x="78" y="96" on="0"/>
        <pt x="107" y="43" on="0"/>
        <pt x="164" y="14" on="0"/>
        <pt x="208" y="14" on="1"/>
        <pt x="264" y="14" on="0"/>
        <pt x="352" y="68" on="0"/>
        <pt x="402" y="162" on="0"/>
        <pt x="402" y="220" on="1"/>
        <pt x="402" y="338" on="1"/>
        <pt x="402" y="397" on="0"/>
        <pt x="371" y="460" on="0"/>
        <pt x="300" y="492" on="0"/>
        <pt x="254" y="492" on="1"/>
        <pt x="212" y="492" on="0"/>
        <pt x="145" y="466" on="0"/>
        <pt x="106" y="412" on="0"/>
        <pt x="106" y="370" on="1"/>
        <pt x="86" y="370" on="1"/>
        <pt x="86" y="418" on="0"/>
        <pt x="130" y="480" on="0"/>
        <pt x="208" y="512" on="0"/>
        <pt x="254" y="512" on="1"/>
        <pt x="304" y="512" on="0"/>
        <pt x="386" y="474" on="0"/>
        <pt x="422" y="404" on="0"/>
        <pt x="422" y="342" on="1"/>
        <pt x="422" y="0" on="1"/>
        <pt x="402" y="0" on="1"/>
        <pt x="402" y="124" on="1"/>
        <pt x="382" y="76" on="0"/>
        <pt x="320" y="20" on="0"/>
        <pt x="252" y="-6" on="0"/>
      </contour>
    </TTGlyph>
    <TTGlyph name="a.ss02.cv01" xMin="68" yMin="-12" xMax="484" yMax="512">
      <component glyphName="a.cv01" x="0" y="0" flags="0x204"/>
    </TTGlyph>
    <TTGlyph name="aacute" xMin="58" yMin="-6" xMax="444" yMax="720">
      <component glyphName="a" x="0" y="0" flags="0x204"/>
      <component glyphName="acutecomb" x="154" y="0" flags="0x4"/>
    </TTGlyph>
    <TTGlyph name="aacute.cv01" xMin="68" yMin="-12" xMax="484" yMax="720">
      <component glyphName="a.cv01" x="0" y="0" flags="0x204"/>
      <component glyphName="acutecomb" x="180" y="0" flags="0x4"/>
    </TTGlyph>
    <TTGlyph name="aacute.ss01" xMin="58" yMin="-6" xMax="522" yMax="720">
      <component glyphName="a.ss01" x="0" y="0" flags="0x204"/>
      <component glyphName="acutecomb" x="154" y="0" flags="0x4"/>
    </TTGlyph>
    <TTGlyph name="aacute.ss01.cv01" xMin="68" yMin="-12" xMax="562" yMax="720">
      <component glyphName="a.ss01.cv01" x="0" y="0" flags="0x204"/>
      <component glyphName="acutecomb" x="180" y="0" flags="0x4"/>
    </TTGlyph>
    <TTGlyph name="aacute.ss02" xMin="58" yMin="-6" xMax="422" yMax="720">
      <component glyphName="a.ss02" x="0" y="0" flags="0x204"/>
      <component glyphName="acutecomb" x="154" y="0" flags="0x4"/>
    </TTGlyph>
    <TTGlyph name="aacute.ss02.cv01" xMin="68" yMin="-12" xMax="484" yMax="720">
      <component glyphName="a.cv01" x="0" y="0" flags="0x204"/>
      <component glyphName="acutecomb" x="180" y="0" flags="0x4"/>
    </TTGlyph>
    <TTGlyph name="abreve" xMin="58" yMin="-6" xMax="444" yMax="720">
      <component glyphName="a" x="0" y="0" flags="0x204"/>
      <component glyphName="uni0306" x="54" y="0" flags="0x4"/>
    </TTGlyph>
    <TTGlyph name="abreve.cv01" xMin="68" yMin="-12" xMax="484" yMax="720">
      <component glyphName="a.cv01" x="0" y="0" flags="0x204"/>
      <component glyphName="uni0306" x="80" y="0" flags="0x4"/>
    </TTGlyph>
    <TTGlyph name="abreve.ss01" xMin="58" yMin="-6" xMax="522" yMax="720">
      <component glyphName="a.ss01" x="0" y="0" flags="0x204"/>
      <component glyphName="uni0306" x="54" y="0" flags="0x4"/>
    </TTGlyph>
    <TTGlyph name="abreve.ss01.cv01" xMin="68" yMin="-12" xMax="562" yMax="720">
      <component glyphName="a.ss01.cv01" x="0" y="0" flags="0x204"/>
      <component glyphName="uni0306" x="80" y="0" flags="0x4"/>
    </TTGlyph>
    <TTGlyph name="abreve.ss02" xMin="58" yMin="-6" xMax="422" yMax="720">
      <component glyphName="a.ss02" x="0" y="0" flags="0x204"/>
      <component glyphName="uni0306" x="54" y="0" flags="0x4"/>
    </TTGlyph>
    <TTGlyph name="abreve.ss02.cv01" xMin="68" yMin="-12" xMax="484" yMax="720">
      <component glyphName="a.cv01" x="0" y="0" flags="0x204"/>
      <component glyphName="uni0306" x="80" y="0" flags="0x4"/>
    </TTGlyph>
    <TTGlyph name="acircumflex" xMin="58" yMin="-6" xMax="444" yMax="720">
      <component glyphName="a" x="0" y="0" flags="0x204"/>
      <component glyphName="uni0302" x="54" y="0" flags="0x4"/>
    </TTGlyph>
    <TTGlyph name="acircumflex.cv01" xMin="68" yMin="-12" xMax="484" yMax="720">
      <component glyphName="a.cv01" x="0" y="0" flags="0x204"/>
      <component glyphName="uni0302" x="80" y="0" flags="0x4"/>
    </TTGlyph>
    <TTGlyph name="acircumflex.ss01" xMin="58" yMin="-6" xMax="522" yMax="720">
      <component glyphName="a.ss01" x="0" y="0" flags="0x204"/>
      <component glyphName="uni0302" x="54" y="0" flags="0x4"/>
    </TTGlyph>
    <TTGlyph name="acircumflex.ss01.cv01" xMin="68" yMin="-12" xMax="562" yMax="720">
      <component glyphName="a.ss01.cv01" x="0" y="0" flags="0x204"/>
      <component glyphName="uni0302" x="80" y="0" flags="0x4"/>
    </TTGlyph>
    <TTGlyph name="acircumflex.ss02" xMin="58" yMin="-6" xMax="422" yMax="720">
      <component glyphName="a.ss02" x="0" y="0" flags="0x204"/>
      <component glyphName="uni0302" x="54" y="0" flags="0x4"/>
    </TTGlyph>
    <TTGlyph name="acircumflex.ss02.cv01" xMin="68" yMin="-12" xMax="484" yMax="720">
      <component glyphName="a.cv01" x="0" y="0" flags="0x204"/>
      <component glyphName="uni0302" x="80" y="0" flags="0x4"/>
    </TTGlyph>
    <TTGlyph name="acute" xMin="80" yMin="580" xMax="178" yMax="720">
      <component glyphName="acutecomb" x="0" y="0" flags="0x4"/>
    </TTGlyph>
    <TTGlyph name="acutecomb" xMin="80" yMin="580" xMax="178" yMax="720">
      <contour>
        <pt x="80" y="580" on="1"/>
        <pt x="154" y="720" on="1"/>
        <pt x="178" y="720" on="1"/>
        <pt x="104" y="580" on="1"/>
      </contour>
    </TTGlyph>
    <TTGlyph name="adieresis" xMin="58" yMin="-6" xMax="444" yMax="660">
      <component glyphName="a" x="0" y="0" flags="0x204"/>
      <component glyphName="uni0307" x="64" y="0" flags="0x4"/>
      <component glyphName="uni0307" x="244" y="0" flags="0x4"/>
    </TTGlyph>
    <TTGlyph name="adieresis.cv01" xMin="68" yMin="-12" xMax="484" yMax="660">
      <component glyphName="a.cv01" x="0" y="0" flags="0x204"/>
      <component glyphName="uni0307" x="90" y="0" flags="0x4"/>
      <component glyphName="uni0307" x="270" y="0" flags="0x4"/>
    </TTGlyph>
    <TTGlyph name="adieresis.ss01" xMin="58" yMin="-6" xMax="522" yMax="660">
      <component glyphName="a.ss01" x="0" y="0" flags="0x204"/>
      <component glyphName="uni0307" x="64" y="0" flags="0x4"/>
      <component glyphName="uni0307" x="244" y="0" flags="0x4"/>
    </TTGlyph>
    <TTGlyph name="adieresis.ss01.cv01" xMin="68" yMin="-12" xMax="562" yMax="660">
      <component glyphName="a.ss01.cv01" x="0" y="0" flags="0x204"/>
      <component glyphName="uni0307" x="90" y="0" flags="0x4"/>
      <component glyphName="uni0307" x="270" y="0" flags="0x4"/>
    </TTGlyph>
    <TTGlyph name="adieresis.ss02" xMin="58" yMin="-6" xMax="422" yMax="660">
      <component glyphName="a.ss02" x="0" y="0" flags="0x204"/>
      <component glyphName="uni0307" x="64" y="0" flags="0x4"/>
      <component glyphName="uni0307" x="244" y="0" flags="0x4"/>
    </TTGlyph>
    <TTGlyph name="adieresis.ss02.cv01" xMin="68" yMin="-12" xMax="484" yMax="660">
      <component glyphName="a.cv01" x="0" y="0" flags="0x204"/>
      <component glyphName="uni0307" x="90" y="0" flags="0x4"/>
      <component glyphName="uni0307" x="270" y="0" flags="0x4"/>
    </TTGlyph>
    <TTGlyph name="ae" xMin="50" yMin="-12" xMax="768" yMax="512">
      <contour>
        <pt x="204" y="-12" on="1"/>
        <pt x="154" y="-12" on="0"/>
        <pt x="85" y="26" on="0"/>
        <pt x="50" y="86" on="0"/>
        <pt x="50" y="130" on="1"/>
        <pt x="50" y="176" on="0"/>
        <pt x="100" y="245" on="0"/>
        <pt x="186" y="272" on="0"/>
        <pt x="254" y="272" on="1"/>
        <pt x="388" y="272" on="1"/>
        <pt x="388" y="366" on="0"/>
        <pt x="350" y="454" on="0"/>
        <pt x="280" y="492" on="0"/>
        <pt x="242" y="492" on="1"/>
        <pt x="200" y="492" on="0"/>
        <pt x="137" y="464" on="0"/>
        <pt x="102" y="414" on="0"/>
        <pt x="102" y="380" on="1"/>
        <pt x="82" y="380" on="1"/>
        <pt x="82" y="420" on="0"/>
        <pt x="123" y="480" on="0"/>
        <pt x="194" y="512" on="0"/>
        <pt x="242" y="512" on="1"/>
        <pt x="286" y="512" on="0"/>
        <pt x="360" y="472" on="0"/>
        <pt x="399" y="394" on="0"/>
        <pt x="401" y="366" on="1"/>
        <pt x="406" y="394" on="0"/>
        <pt x="447" y="460" on="0"/>
        <pt x="525" y="512" on="0"/>
        <pt x="585" y="512" on="1"/>
        <pt x="645" y="512" on="0"/>
        <pt x="728" y="446" on="0"/>
        <pt x="768" y="338" on="0"/>
        <pt x="768" y="272" on="1"/>
        <pt x="768" y="252" on="1"/>
        <pt x="408" y="252" on="1"/>
        <pt x="408" y="170" on="0"/>
        <pt x="452" y="60" on="0"/>
        <pt x="533" y="8" on="0"/>
        <pt x="587" y="8" on="1"/>
        <pt x="637" y="8" on="0"/>
        <pt x="699" y="42" on="0"/>
        <pt x="735" y="107" on="0"/>
        <pt x="735" y="130" on="1"/>
        <pt x="756" y="130" on="1"/>
        <pt x="756" y="104" on="0"/>
        <pt x="715" y="28" on="0"/>
        <pt x="643" y="-12" on="0"/>
        <pt x="587" y="-12" on="1"/>
        <pt x="527" y="-12" on="0"/>
        <pt x="440" y="44" on="0"/>
        <pt x="400" y="128" on="0"/>
        <pt x="398" y="160" on="1"/>
        <pt x="394" y="128" on="0"/>
        <pt x="356" y="47" on="0"/>
        <pt x="270" y="-12" on="0"/>
      </contour>
      <contour>
        <pt x="204" y="8" on="1"/>
        <pt x="252" y="8" on="0"/>
        <pt x="328" y="46" on="0"/>
        <pt x="384" y="142" on="0"/>
        <pt x="388" y="252" on="1"/>
        <pt x="254" y="252" on="1"/>
        <pt x="192" y="252" on="0"/>
        <pt x="114" y="229" on="0"/>
        <pt x="70" y="170" on="0"/>
        <pt x="70" y="130" on="1"/>
        <pt x="70" y="92" on="0"/>
        <pt x="101" y="40" on="0"/>
        <pt x="160" y="8" on="0"/>
      </contour>
      <contour>
        <pt x="408" y="272" on="1"/>
        <pt x="748" y="272" on="1"/>
        <pt x="748" y="332" on="0"/>
        <pt x="711" y="437" on="0"/>
        <pt x="637" y="492" on="0"/>
        <pt x="585" y="492" on="1"/>
        <pt x="533" y="492" on="0"/>
        <pt x="462" y="449" on="0"/>
        <pt x="408" y="354" on="0"/>
      </contour>
    </TTGlyph>
    <TTGlyph name="aeacute" xMin="50" yMin="-12" xMax="768" yMax="720">
      <component glyphName="ae" x="0" y="0" flags="0x204"/>
      <component glyphName="acutecomb" x="305" y="0" flags="0x4"/>
    </TTGlyph>
    <TTGlyph name="agrave" xMin="58" yMin="-6" xMax="444" yMax="720">
      <component glyphName="a" x="0" y="0" flags="0x204"/>
      <component glyphName="gravecomb" x="54" y="0" flags="0x4"/>
    </TTGlyph>
    <TTGlyph name="agrave.cv01" xMin="68" yMin="-12" xMax="484" yMax="720">
      <component glyphName="a.cv01" x="0" y="0" flags="0x204"/>
      <component glyphName="gravecomb" x="80" y="0" flags="0x4"/>
    </TTGlyph>
    <TTGlyph name="agrave.ss01" xMin="58" yMin="-6" xMax="522" yMax="720">
      <component glyphName="a.ss01" x="0" y="0" flags="0x204"/>
      <component glyphName="gravecomb" x="54" y="0" flags="0x4"/>
    </TTGlyph>
    <TTGlyph name="agrave.ss01.cv01" xMin="68" yMin="-12" xMax="562" yMax="720">
      <component glyphName="a.ss01.cv01" x="0" y="0" flags="0x204"/>
      <component glyphName="gravecomb" x="80" y="0" flags="0x4"/>
    </TTGlyph>
    <TTGlyph name="agrave.ss02" xMin="58" yMin="-6" xMax="422" yMax="720">
      <component glyphName="a.ss02" x="0" y="0" flags="0x204"/>
      <component glyphName="gravecomb" x="54" y="0" flags="0x4"/>
    </TTGlyph>
    <TTGlyph name="agrave.ss02.cv01" xMin="68" yMin="-12" xMax="484" yMax="720">
      <component glyphName="a.cv01" x="0" y="0" flags="0x204"/>
      <component glyphName="gravecomb" x="80" y="0" flags="0x4"/>
    </TTGlyph>
    <TTGlyph name="alpha" xMin="68" yMin="-12" xMax="562" yMax="512">
      <component glyphName="a.ss01.cv01" x="0" y="0" flags="0x204"/>
    </TTGlyph>
    <TTGlyph name="amacron" xMin="58" yMin="-6" xMax="444" yMax="640">
      <component glyphName="a" x="0" y="0" flags="0x204"/>
      <component glyphName="uni0304" x="54" y="0" flags="0x4"/>
    </TTGlyph>
    <TTGlyph name="amacron.cv01" xMin="68" yMin="-12" xMax="484" yMax="640">
      <component glyphName="a.cv01" x="0" y="0" flags="0x204"/>
      <component glyphName="uni0304" x="80" y="0" flags="0x4"/>
    </TTGlyph>
    <TTGlyph name="amacron.ss01" xMin="58" yMin="-6" xMax="522" yMax="640">
      <component glyphName="a.ss01" x="0" y="0" flags="0x204"/>
      <component glyphName="uni0304" x="54" y="0" flags="0x4"/>
    </TTGlyph>
    <TTGlyph name="amacron.ss01.cv01" xMin="68" yMin="-12" xMax="562" yMax="640">
      <component glyphName="a.ss01.cv01" x="0" y="0" flags="0x204"/>
      <component glyphName="uni0304" x="80" y="0" flags="0x4"/>
    </TTGlyph>
    <TTGlyph name="amacron.ss02" xMin="58" yMin="-6" xMax="422" yMax="640">
      <component glyphName="a.ss02" x="0" y="0" flags="0x204"/>
      <component glyphName="uni0304" x="54" y="0" flags="0x4"/>
    </TTGlyph>
    <TTGlyph name="amacron.ss02.cv01" xMin="68" yMin="-12" xMax="484" yMax="640">
      <component glyphName="a.cv01" x="0" y="0" flags="0x204"/>
      <component glyphName="uni0304" x="80" y="0" flags="0x4"/>
    </TTGlyph>
    <TTGlyph name="ampersand" xMin="74" yMin="-12" xMax="676" yMax="732">
      <contour>
        <pt x="301" y="-12" on="1"/>
        <pt x="243" y="-12" on="0"/>
        <pt x="138" y="30" on="0"/>
        <pt x="74" y="116" on="0"/>
        <pt x="74" y="174" on="1"/>
        <pt x="74" y="231" on="0"/>
        <pt x="116" y="309" on="0"/>
        <pt x="193" y="380" on="0"/>
        <pt x="240" y="402" on="1"/>
        <pt x="325" y="442" on="0"/>
        <pt x="394" y="482" on="0"/>
        <pt x="438" y="540" on="0"/>
        <pt x="438" y="580" on="1"/>
        <pt x="438" y="616" on="0"/>
        <pt x="401" y="678" on="0"/>
        <pt x="336" y="712" on="0"/>
        <pt x="292" y="712" on="1"/>
        <pt x="248" y="712" on="0"/>
        <pt x="182" y="680" on="0"/>
        <pt x="142" y="620" on="0"/>
        <pt x="142" y="580" on="1"/>
        <pt x="142" y="542" on="0"/>
        <pt x="176" y="483" on="0"/>
        <pt x="227" y="422" on="0"/>
        <pt x="290" y="363" on="1"/>
        <pt x="676" y="0" on="1"/>
        <pt x="646" y="0" on="1"/>
        <pt x="274" y="350" on="1"/>
        <pt x="211" y="410" on="0"/>
        <pt x="156" y="475" on="0"/>
        <pt x="122" y="538" on="0"/>
        <pt x="122" y="580" on="1"/>
        <pt x="122" y="624" on="0"/>
        <pt x="166" y="694" on="0"/>
        <pt x="244" y="732" on="0"/>
        <pt x="292" y="732" on="1"/>
        <pt x="340" y="732" on="0"/>
        <pt x="417" y="692" on="0"/>
        <pt x="458" y="618" on="0"/>
        <pt x="458" y="580" on="1"/>
        <pt x="458" y="534" on="0"/>
        <pt x="406" y="466" on="0"/>
        <pt x="335" y="427" on="0"/>
        <pt x="250" y="386" on="1"/>
        <pt x="202" y="363" on="0"/>
        <pt x="132" y="297" on="0"/>
        <pt x="94" y="223" on="0"/>
        <pt x="94" y="174" on="1"/>
        <pt x="94" y="122" on="0"/>
        <pt x="152" y="46" on="0"/>
        <pt x="251" y="8" on="0"/>
        <pt x="301" y="8" on="1"/>
        <pt x="351" y="8" on="0"/>
        <pt x="452" y="46" on="0"/>
        <pt x="536" y="148" on="0"/>
        <pt x="536" y="238" on="1"/>
        <pt x="536" y="400" on="1"/>
        <pt x="556" y="400" on="1"/>
        <pt x="556" y="238" on="1"/>
        <pt x="556" y="142" on="0"/>
        <pt x="468" y="30" on="0"/>
        <pt x="359" y="-12" on="0"/>
      </contour>
    </TTGlyph>
    <TTGlyph name="angleleft" xMin="100" yMin="-120" xMax="300" yMax="720">
      <contour>
        <pt x="278" y="-120" on="1"/>
        <pt x="100" y="300" on="1"/>
        <pt x="278" y="720" on="1"/>
        <pt x="300" y="720" on="1"/>
        <pt x="122" y="300" on="1"/>
        <pt x="300" y="-120" on="1"/>
      </contour>
    </TTGlyph>
    <TTGlyph name="angleleft.case" xMin="100" yMin="-60" xMax="300" yMax="720">
      <contour>
        <pt x="278" y="-60" on="1"/>
        <pt x="100" y="330" on="1"/>
        <pt x="278" y="720" on="1"/>
        <pt x="300" y="720" on="1"/>
        <pt x="122" y="330" on="1"/>
        <pt x="300" y="-60" on="1"/>
      </contour>
    </TTGlyph>
    <TTGlyph name="angleright" xMin="100" yMin="-120" xMax="300" yMax="720">
      <contour>
        <pt x="122" y="-120" on="1"/>
        <pt x="100" y="-120" on="1"/>
        <pt x="278" y="300" on="1"/>
        <pt x="100" y="720" on="1"/>
        <pt x="122" y="720" on="1"/>
        <pt x="300" y="300" on="1"/>
      </contour>
    </TTGlyph>
    <TTGlyph name="angleright.case" xMin="100" yMin="-60" xMax="300" yMax="720">
      <contour>
        <pt x="122" y="-60" on="1"/>
        <pt x="100" y="-60" on="1"/>
        <pt x="278" y="330" on="1"/>
        <pt x="100" y="720" on="1"/>
        <pt x="122" y="720" on="1"/>
        <pt x="300" y="330" on="1"/>
      </contour>
    </TTGlyph>
    <TTGlyph name="aogonek" xMin="58" yMin="-200" xMax="477" yMax="512">
      <component glyphName="a" x="0" y="0" flags="0x204"/>
      <component glyphName="uni0328" x="258" y="0" flags="0x4"/>
    </TTGlyph>
    <TTGlyph name="aogonek.cv01" xMin="68" yMin="-200" xMax="523" yMax="512">
      <component glyphName="a.cv01" x="0" y="0" flags="0x204"/>
      <component glyphName="uni0328" x="304" y="0" flags="0x4"/>
    </TTGlyph>
    <TTGlyph name="aogonek.ss01" xMin="58" yMin="-200" xMax="549" yMax="512">
      <component glyphName="a.ss01" x="0" y="0" flags="0x204"/>
      <component glyphName="uni0328" x="330" y="0" flags="0x4"/>
    </TTGlyph>
    <TTGlyph name="aogonek.ss01.cv01" xMin="68" yMin="-200" xMax="562" yMax="512">
      <component glyphName="a.ss01.cv01" x="0" y="0" flags="0x204"/>
      <component glyphName="uni0328" x="304" y="0" flags="0x4"/>
    </TTGlyph>
    <TTGlyph name="aogonek.ss02" xMin="58" yMin="-200" xMax="469" yMax="512">
      <component glyphName="a.ss02" x="0" y="0" flags="0x204"/>
      <component glyphName="uni0328" x="250" y="0" flags="0x4"/>
    </TTGlyph>
    <TTGlyph name="aogonek.ss02.cv01" xMin="68" yMin="-200" xMax="523" yMax="512">
      <component glyphName="a.cv01" x="0" y="0" flags="0x204"/>
      <component glyphName="uni0328" x="304" y="0" flags="0x4"/>
    </TTGlyph>
    <TTGlyph name="approxequal" xMin="76" yMin="159" xMax="524" yMax="481">
      <component glyphName="asciitilde" x="0" y="-111" flags="0x204"/>
      <component glyphName="asciitilde" x="0" y="111" flags="0x4"/>
    </TTGlyph>
    <TTGlyph name="aring" xMin="58" yMin="-6" xMax="444" yMax="720">
      <component glyphName="a" x="0" y="0" flags="0x204"/>
      <component glyphName="uni030A" x="104" y="0" flags="0x4"/>
    </TTGlyph>
    <TTGlyph name="aring.cv01" xMin="68" yMin="-12" xMax="484" yMax="720">
      <component glyphName="a.cv01" x="0" y="0" flags="0x204"/>
      <component glyphName="uni030A" x="130" y="0" flags="0x4"/>
    </TTGlyph>
    <TTGlyph name="aring.ss01" xMin="58" yMin="-6" xMax="522" yMax="720">
      <component glyphName="a.ss01" x="0" y="0" flags="0x204"/>
      <component glyphName="uni030A" x="104" y="0" flags="0x4"/>
    </TTGlyph>
    <TTGlyph name="aring.ss01.cv01" xMin="68" yMin="-12" xMax="562" yMax="720">
      <component glyphName="a.ss01.cv01" x="0" y="0" flags="0x204"/>
      <component glyphName="uni030A" x="130" y="0" flags="0x4"/>
    </TTGlyph>
    <TTGlyph name="aring.ss02" xMin="58" yMin="-6" xMax="422" yMax="720">
      <component glyphName="a.ss02" x="0" y="0" flags="0x204"/>
      <component glyphName="uni030A" x="104" y="0" flags="0x4"/>
    </TTGlyph>
    <TTGlyph name="aring.ss02.cv01" xMin="68" yMin="-12" xMax="484" yMax="720">
      <component glyphName="a.cv01" x="0" y="0" flags="0x204"/>
      <component glyphName="uni030A" x="130" y="0" flags="0x4"/>
    </TTGlyph>
    <TTGlyph name="aringacute" xMin="58" yMin="-6" xMax="444" yMax="938">
      <component glyphName="a" x="0" y="0" flags="0x204"/>
      <component glyphName="uni030A" x="104" y="0" flags="0x4"/>
      <component glyphName="acutecomb" x="154" y="218" flags="0x4"/>
    </TTGlyph>
    <TTGlyph name="aringacute.cv01" xMin="68" yMin="-12" xMax="484" yMax="938">
      <component glyphName="a.cv01" x="0" y="0" flags="0x204"/>
      <component glyphName="uni030A" x="130" y="0" flags="0x4"/>
      <component glyphName="acutecomb" x="180" y="218" flags="0x4"/>
    </TTGlyph>
    <TTGlyph name="aringacute.ss01" xMin="58" yMin="-6" xMax="522" yMax="938">
      <component glyphName="a.ss01" x="0" y="0" flags="0x204"/>
      <component glyphName="uni030A" x="104" y="0" flags="0x4"/>
      <component glyphName="acutecomb" x="154" y="218" flags="0x4"/>
    </TTGlyph>
    <TTGlyph name="aringacute.ss01.cv01" xMin="68" yMin="-12" xMax="562" yMax="938">
      <component glyphName="a.ss01.cv01" x="0" y="0" flags="0x204"/>
      <component glyphName="uni030A" x="130" y="0" flags="0x4"/>
      <component glyphName="acutecomb" x="180" y="218" flags="0x4"/>
    </TTGlyph>
    <TTGlyph name="aringacute.ss02" xMin="58" yMin="-6" xMax="422" yMax="938">
      <component glyphName="a.ss02" x="0" y="0" flags="0x204"/>
      <component glyphName="uni030A" x="104" y="0" flags="0x4"/>
      <component glyphName="acutecomb" x="154" y="218" flags="0x4"/>
    </TTGlyph>
    <TTGlyph name="aringacute.ss02.cv01" xMin="68" yMin="-12" xMax="484" yMax="938">
      <component glyphName="a.cv01" x="0" y="0" flags="0x204"/>
      <component glyphName="uni030A" x="130" y="0" flags="0x4"/>
      <component glyphName="acutecomb" x="180" y="218" flags="0x4"/>
    </TTGlyph>
    <TTGlyph name="arrowboth" xMin="34" yMin="60" xMax="966" yMax="680">
      <contour>
        <pt x="780" y="380" on="1"/>
        <pt x="780" y="360" on="1"/>
        <pt x="72" y="360" on="1"/>
        <pt x="358" y="74" on="1"/>
        <pt x="344" y="60" on="1"/>
        <pt x="34" y="370" on="1"/>
        <pt x="344" y="680" on="1"/>
        <pt x="358" y="666" on="1"/>
        <pt x="72" y="380" on="1"/>
      </contour>
      <contour>
        <pt x="220" y="360" on="1"/>
        <pt x="220" y="380" on="1"/>
        <pt x="928" y="380" on="1"/>
        <pt x="642" y="666" on="1"/>
        <pt x="656" y="680" on="1"/>
        <pt x="966" y="370" on="1"/>
        <pt x="656" y="60" on="1"/>
        <pt x="642" y="74" on="1"/>
        <pt x="928" y="360" on="1"/>
      </contour>
    </TTGlyph>
    <TTGlyph name="arrowdown" xMin="40" yMin="-26" xMax="660" yMax="720">
      <contour>
        <pt x="340" y="720" on="1"/>
        <pt x="360" y="720" on="1"/>
        <pt x="360" y="12" on="1"/>
        <pt x="646" y="298" on="1"/>
        <pt x="660" y="284" on="1"/>
        <pt x="350" y="-26" on="1"/>
        <pt x="40" y="284" on="1"/>
        <pt x="54" y="298" on="1"/>
        <pt x="340" y="12" on="1"/>
      </contour>
    </TTGlyph>
    <TTGlyph name="arrowleft" xMin="34" yMin="60" xMax="780" yMax="680">
      <contour>
        <pt x="780" y="380" on="1"/>
        <pt x="780" y="360" on="1"/>
        <pt x="72" y="360" on="1"/>
        <pt x="358" y="74" on="1"/>
        <pt x="344" y="60" on="1"/>
        <pt x="34" y="370" on="1"/>
        <pt x="344" y="680" on="1"/>
        <pt x="358" y="666" on="1"/>
        <pt x="72" y="380" on="1"/>
      </contour>
    </TTGlyph>
    <TTGlyph name="arrowright" xMin="20" yMin="60" xMax="766" yMax="680">
      <contour>
        <pt x="20" y="380" on="1"/>
        <pt x="728" y="380" on="1"/>
        <pt x="442" y="666" on="1"/>
        <pt x="456" y="680" on="1"/>
        <pt x="766" y="370" on="1"/>
        <pt x="456" y="60" on="1"/>
        <pt x="442" y="74" on="1"/>
        <pt x="728" y="360" on="1"/>
        <pt x="20" y="360" on="1"/>
      </contour>
    </TTGlyph>
    <TTGlyph name="arrowup" xMin="40" yMin="0" xMax="660" yMax="746">
      <contour>
        <pt x="340" y="0" on="1"/>
        <pt x="340" y="708" on="1"/>
        <pt x="54" y="422" on="1"/>
        <pt x="40" y="436" on="1"/>
        <pt x="350" y="746" on="1"/>
        <pt x="660" y="436" on="1"/>
        <pt x="646" y="422" on="1"/>
        <pt x="360" y="708" on="1"/>
        <pt x="360" y="0" on="1"/>
      </contour>
    </TTGlyph>
    <TTGlyph name="arrowupdn" xMin="40" yMin="-77" xMax="660" yMax="797">
      <contour>
        <pt x="340" y="669" on="1"/>
        <pt x="360" y="669" on="1"/>
        <pt x="360" y="-39" on="1"/>
        <pt x="646" y="247" on="1"/>
        <pt x="660" y="233" on="1"/>
        <pt x="350" y="-77" on="1"/>
        <pt x="40" y="233" on="1"/>
        <pt x="54" y="247" on="1"/>
        <pt x="340" y="-39" on="1"/>
      </contour>
      <contour>
        <pt x="360" y="51" on="1"/>
        <pt x="340" y="51" on="1"/>
        <pt x="340" y="759" on="1"/>
        <pt x="54" y="473" on="1"/>
        <pt x="40" y="487" on="1"/>
        <pt x="350" y="797" on="1"/>
        <pt x="660" y="487" on="1"/>
        <pt x="646" y="473" on="1"/>
        <pt x="360" y="759" on="1"/>
      </contour>
    </TTGlyph>
    <TTGlyph name="asciicircum" xMin="100" yMin="400" xMax="500" yMax="720">
      <contour>
        <pt x="100" y="400" on="1"/>
        <pt x="290" y="720" on="1"/>
        <pt x="310" y="720" on="1"/>
        <pt x="500" y="400" on="1"/>
        <pt x="476" y="400" on="1"/>
        <pt x="300" y="702" on="1"/>
        <pt x="124" y="400" on="1"/>
      </contour>
    </TTGlyph>
    <TTGlyph name="asciitilde" xMin="76" yMin="270" xMax="524" yMax="370">
      <contour>
        <pt x="76" y="270" on="1"/>
        <pt x="84" y="313" on="0"/>
        <pt x="153" y="370" on="0"/>
        <pt x="200" y="370" on="1"/>
        <pt x="231" y="370" on="0"/>
        <pt x="276" y="352" on="0"/>
        <pt x="306" y="328" on="1"/>
        <pt x="335" y="306" on="0"/>
        <pt x="375" y="290" on="0"/>
        <pt x="400" y="290" on="1"/>
        <pt x="440" y="290" on="0"/>
        <pt x="494" y="334" on="0"/>
        <pt x="502" y="370" on="1"/>
        <pt x="524" y="370" on="1"/>
        <pt x="516" y="327" on="0"/>
        <pt x="447" y="270" on="0"/>
        <pt x="400" y="270" on="1"/>
        <pt x="369" y="270" on="0"/>
        <pt x="324" y="288" on="0"/>
        <pt x="294" y="312" on="1"/>
        <pt x="265" y="334" on="0"/>
        <pt x="225" y="350" on="0"/>
        <pt x="200" y="350" on="1"/>
        <pt x="161" y="350" on="0"/>
        <pt x="106" y="306" on="0"/>
        <pt x="98" y="270" on="1"/>
      </contour>
    </TTGlyph>
    <TTGlyph name="asterisk" xMin="40" yMin="420" xMax="380" yMax="800">
      <contour>
        <pt x="200" y="420" on="1"/>
        <pt x="200" y="592" on="1"/>
        <pt x="50" y="506" on="1"/>
        <pt x="40" y="524" on="1"/>
        <pt x="189" y="610" on="1"/>
        <pt x="40" y="696" on="1"/>
        <pt x="50" y="714" on="1"/>
        <pt x="200" y="628" on="1"/>
        <pt x="200" y="800" on="1"/>
        <pt x="220" y="800" on="1"/>
        <pt x="220" y="628" on="1"/>
        <pt x="370" y="714" on="1"/>
        <pt x="380" y="696" on="1"/>
        <pt x="231" y="610" on="1"/>
        <pt x="380" y="524" on="1"/>
        <pt x="370" y="506" on="1"/>
        <pt x="220" y="592" on="1"/>
        <pt x="220" y="420" on="1"/>
      </contour>
    </TTGlyph>
    <TTGlyph name="at" xMin="50" yMin="-148" xMax="910" yMax="732">
      <contour>
        <pt x="480" y="-148" on="1"/>
        <pt x="352" y="-148" on="0"/>
        <pt x="157" y="-37" on="0"/>
        <pt x="50" y="163" on="0"/>
        <pt x="50" y="293" on="1"/>
        <pt x="50" y="418" on="0"/>
        <pt x="157" y="618" on="0"/>
        <pt x="352" y="732" on="0"/>
        <pt x="480" y="732" on="1"/>
        <pt x="619" y="732" on="0"/>
        <pt x="812" y="622" on="0"/>
        <pt x="910" y="424" on="0"/>
        <pt x="910" y="293" on="1"/>
        <pt x="910" y="228" on="0"/>
        <pt x="869" y="129" on="0"/>
        <pt x="798" y="74" on="0"/>
        <pt x="754" y="74" on="1"/>
        <pt x="701" y="74" on="0"/>
        <pt x="640" y="137" on="0"/>
        <pt x="638" y="193" on="1"/>
        <pt x="625" y="139" on="0"/>
        <pt x="532" y="74" on="0"/>
        <pt x="464" y="74" on="1"/>
        <pt x="376" y="74" on="0"/>
        <pt x="272" y="193" on="0"/>
        <pt x="272" y="293" on="1"/>
        <pt x="272" y="393" on="0"/>
        <pt x="376" y="512" on="0"/>
        <pt x="464" y="512" on="1"/>
        <pt x="528" y="512" on="0"/>
        <pt x="622" y="451" on="0"/>
        <pt x="634" y="403" on="1"/>
        <pt x="634" y="494" on="1"/>
        <pt x="654" y="494" on="1"/>
        <pt x="654" y="231" on="1"/>
        <pt x="654" y="165" on="0"/>
        <pt x="705" y="94" on="0"/>
        <pt x="754" y="94" on="1"/>
        <pt x="790" y="94" on="0"/>
        <pt x="853" y="147" on="0"/>
        <pt x="890" y="238" on="0"/>
        <pt x="890" y="293" on="1"/>
        <pt x="890" y="423" on="0"/>
        <pt x="793" y="611" on="0"/>
        <pt x="608" y="712" on="0"/>
        <pt x="480" y="712" on="1"/>
        <pt x="355" y="712" on="0"/>
        <pt x="169" y="601" on="0"/>
        <pt x="70" y="410" on="0"/>
        <pt x="70" y="293" on="1"/>
        <pt x="70" y="177" on="0"/>
        <pt x="166" y="-15" on="0"/>
        <pt x="352" y="-128" on="0"/>
        <pt x="480" y="-128" on="1"/>
        <pt x="594" y="-128" on="1"/>
        <pt x="594" y="-148" on="1"/>
      </contour>
      <contour>
        <pt x="464" y="94" on="1"/>
        <pt x="545" y="94" on="0"/>
        <pt x="636" y="200" on="0"/>
        <pt x="636" y="293" on="1"/>
        <pt x="636" y="389" on="0"/>
        <pt x="547" y="492" on="0"/>
        <pt x="464" y="492" on="1"/>
        <pt x="385" y="492" on="0"/>
        <pt x="292" y="384" on="0"/>
        <pt x="292" y="293" on="1"/>
        <pt x="292" y="202" on="0"/>
        <pt x="385" y="94" on="0"/>
      </contour>
    </TTGlyph>
    <TTGlyph name="atilde" xMin="58" yMin="-6" xMax="444" yMax="682">
      <component glyphName="a" x="0" y="0" flags="0x204"/>
      <component glyphName="tildecomb" x="54" y="0" flags="0x4"/>
    </TTGlyph>
    <TTGlyph name="atilde.cv01" xMin="68" yMin="-12" xMax="484" yMax="682">
      <component glyphName="a.cv01" x="0" y="0" flags="0x204"/>
      <component glyphName="tildecomb" x="80" y="0" flags="0x4"/>
    </TTGlyph>
    <TTGlyph name="atilde.ss01" xMin="58" yMin="-6" xMax="522" yMax="682">
      <component glyphName="a.ss01" x="0" y="0" flags="0x204"/>
      <component glyphName="tildecomb" x="54" y="0" flags="0x4"/>
    </TTGlyph>
    <TTGlyph name="atilde.ss01.cv01" xMin="68" yMin="-12" xMax="562" yMax="682">
      <component glyphName="a.ss01.cv01" x="0" y="0" flags="0x204"/>
      <component glyphName="tildecomb" x="80" y="0" flags="0x4"/>
    </TTGlyph>
    <TTGlyph name="atilde.ss02" xMin="58" yMin="-6" xMax="422" yMax="682">
      <component glyphName="a.ss02" x="0" y="0" flags="0x204"/>
      <component glyphName="tildecomb" x="54" y="0" flags="0x4"/>
    </TTGlyph>
    <TTGlyph name="atilde.ss02.cv01" xMin="68" yMin="-12" xMax="484" yMax="682">
      <component glyphName="a.cv01" x="0" y="0" flags="0x204"/>
      <component glyphName="tildecomb" x="80" y="0" flags="0x4"/>
    </TTGlyph>
    <TTGlyph name="b" xMin="100" yMin="-12" xMax="516" yMax="720">
      <contour>
        <pt x="308" y="-12" on="1"/>
        <pt x="260" y="-12" on="0"/>
        <pt x="183" y="22" on="0"/>
        <pt x="128" y="92" on="0"/>
        <pt x="120" y="120" on="1"/>
        <pt x="120" y="0" on="1"/>
        <pt x="100" y="0" on="1"/>
        <pt x="100" y="720" on="1"/>
        <pt x="120" y="720" on="1"/>
        <pt x="120" y="380" on="1"/>
        <pt x="128" y="408" on="0"/>
        <pt x="183" y="478" on="0"/>
        <pt x="260" y="512" on="0"/>
        <pt x="308" y="512" on="1"/>
        <pt x="374" y="512" on="0"/>
        <pt x="463" y="450" on="0"/>
        <pt x="516" y="336" on="0"/>
        <pt x="516" y="250" on="1"/>
        <pt x="516" y="164" on="0"/>
        <pt x="463" y="50" on="0"/>
        <pt x="374" y="-12" on="0"/>
      </contour>
      <contour>
        <pt x="308" y="8" on="1"/>
        <pt x="368" y="8" on="0"/>
        <pt x="447" y="64" on="0"/>
        <pt x="496" y="170" on="0"/>
        <pt x="496" y="250" on="1"/>
        <pt x="496" y="330" on="0"/>
        <pt x="447" y="436" on="0"/>
        <pt x="368" y="492" on="0"/>
        <pt x="308" y="492" on="1"/>
        <pt x="248" y="492" on="0"/>
        <pt x="167" y="436" on="0"/>
        <pt x="120" y="330" on="0"/>
        <pt x="120" y="250" on="1"/>
        <pt x="120" y="170" on="0"/>
        <pt x="167" y="64" on="0"/>
        <pt x="248" y="8" on="0"/>
      </contour>
    </TTGlyph>
    <TTGlyph name="b.small" xMin="61" yMin="-7" xMax="316" yMax="441">
      <contour>
        <pt x="188" y="-7" on="1"/>
        <pt x="159" y="-7" on="0"/>
        <pt x="112" y="13" on="0"/>
        <pt x="78" y="56" on="0"/>
        <pt x="73" y="73" on="1"/>
        <pt x="73" y="0" on="1"/>
        <pt x="61" y="0" on="1"/>
        <pt x="61" y="441" on="1"/>
        <pt x="73" y="441" on="1"/>
        <pt x="73" y="233" on="1"/>
        <pt x="78" y="250" on="0"/>
        <pt x="112" y="293" on="0"/>
        <pt x="159" y="313" on="0"/>
        <pt x="188" y="313" on="1"/>
        <pt x="229" y="313" on="0"/>
        <pt x="283" y="275" on="0"/>
        <pt x="316" y="206" on="0"/>
        <pt x="316" y="153" on="1"/>
        <pt x="316" y="100" on="0"/>
        <pt x="283" y="31" on="0"/>
        <pt x="229" y="-7" on="0"/>
      </contour>
      <contour>
        <pt x="188" y="5" on="1"/>
        <pt x="225" y="5" on="0"/>
        <pt x="274" y="39" on="0"/>
        <pt x="304" y="104" on="0"/>
        <pt x="304" y="153" on="1"/>
        <pt x="304" y="202" on="0"/>
        <pt x="274" y="267" on="0"/>
        <pt x="225" y="301" on="0"/>
        <pt x="188" y="301" on="1"/>
        <pt x="152" y="301" on="0"/>
        <pt x="102" y="267" on="0"/>
        <pt x="73" y="202" on="0"/>
        <pt x="73" y="153" on="1"/>
        <pt x="73" y="104" on="0"/>
        <pt x="102" y="39" on="0"/>
        <pt x="152" y="5" on="0"/>
      </contour>
    </TTGlyph>
    <TTGlyph name="b.sub" xMin="61" yMin="-87" xMax="316" yMax="361">
      <component glyphName="b.small" x="0" y="-80" flags="0x204"/>
    </TTGlyph>
    <TTGlyph name="backslash" xMin="28" yMin="-200" xMax="352" yMax="720">
      <contour>
        <pt x="352" y="-200" on="1"/>
        <pt x="330" y="-200" on="1"/>
        <pt x="28" y="720" on="1"/>
        <pt x="50" y="720" on="1"/>
      </contour>
    </TTGlyph>
    <TTGlyph name="backslash.case" xMin="28" yMin="-100" xMax="352" yMax="820">
      <contour>
        <pt x="352" y="-100" on="1"/>
        <pt x="330" y="-100" on="1"/>
        <pt x="28" y="820" on="1"/>
        <pt x="50" y="820" on="1"/>
      </contour>
    </TTGlyph>
    <TTGlyph name="bar" xMin="120" yMin="-240" xMax="140" yMax="800">
      <contour>
        <pt x="120" y="-240" on="1"/>
        <pt x="120" y="800" on="1"/>
        <pt x="140" y="800" on="1"/>
        <pt x="140" y="-240" on="1"/>
      </contour>
    </TTGlyph>
    <TTGlyph name="braceleft" xMin="80" yMin="-140" xMax="320" yMax="740">
      <contour>
        <pt x="320" y="-140" on="1"/>
        <pt x="262" y="-140" on="0"/>
        <pt x="200" y="-94" on="0"/>
        <pt x="172" y="-12" on="0"/>
        <pt x="172" y="80" on="1"/>
        <pt x="172" y="130" on="1"/>
        <pt x="172" y="184" on="0"/>
        <pt x="160" y="242" on="0"/>
        <pt x="124" y="276" on="0"/>
        <pt x="80" y="290" on="1"/>
        <pt x="80" y="310" on="1"/>
        <pt x="124" y="324" on="0"/>
        <pt x="160" y="358" on="0"/>
        <pt x="172" y="416" on="0"/>
        <pt x="172" y="470" on="1"/>
        <pt x="172" y="520" on="1"/>
        <pt x="172" y="612" on="0"/>
        <pt x="200" y="694" on="0"/>
        <pt x="262" y="740" on="0"/>
        <pt x="320" y="740" on="1"/>
        <pt x="320" y="720" on="1"/>
        <pt x="270" y="720" on="0"/>
        <pt x="216" y="682" on="0"/>
        <pt x="192" y="606" on="0"/>
        <pt x="192" y="520" on="1"/>
        <pt x="192" y="470" on="1"/>
        <pt x="192" y="418" on="0"/>
        <pt x="182" y="356" on="0"/>
        <pt x="144" y="310" on="0"/>
        <pt x="104" y="300" on="1"/>
        <pt x="144" y="290" on="0"/>
        <pt x="182" y="244" on="0"/>
        <pt x="192" y="182" on="0"/>
        <pt x="192" y="130" on="1"/>
        <pt x="192" y="80" on="1"/>
        <pt x="192" y="-6" on="0"/>
        <pt x="216" y="-82" on="0"/>
        <pt x="270" y="-120" on="0"/>
        <pt x="320" y="-120" on="1"/>
      </contour>
    </TTGlyph>
    <TTGlyph name="braceleft.case" xMin="80" yMin="-80" xMax="320" yMax="760">
      <contour>
        <pt x="320" y="-80" on="1"/>
        <pt x="262" y="-80" on="0"/>
        <pt x="200" y="-40" on="0"/>
        <pt x="172" y="48" on="0"/>
        <pt x="172" y="140" on="1"/>
        <pt x="172" y="170" on="1"/>
        <pt x="172" y="224" on="0"/>
        <pt x="160" y="282" on="0"/>
        <pt x="124" y="316" on="0"/>
        <pt x="80" y="330" on="1"/>
        <pt x="80" y="350" on="1"/>
        <pt x="124" y="364" on="0"/>
        <pt x="160" y="398" on="0"/>
        <pt x="172" y="456" on="0"/>
        <pt x="172" y="510" on="1"/>
        <pt x="172" y="540" on="1"/>
        <pt x="172" y="632" on="0"/>
        <pt x="200" y="720" on="0"/>
        <pt x="262" y="760" on="0"/>
        <pt x="320" y="760" on="1"/>
        <pt x="320" y="740" on="1"/>
        <pt x="270" y="740" on="0"/>
        <pt x="216" y="708" on="0"/>
        <pt x="192" y="626" on="0"/>
        <pt x="192" y="540" on="1"/>
        <pt x="192" y="510" on="1"/>
        <pt x="192" y="458" on="0"/>
        <pt x="182" y="396" on="0"/>
        <pt x="144" y="350" on="0"/>
        <pt x="104" y="340" on="1"/>
        <pt x="144" y="330" on="0"/>
        <pt x="182" y="284" on="0"/>
        <pt x="192" y="222" on="0"/>
        <pt x="192" y="170" on="1"/>
        <pt x="192" y="140" on="1"/>
        <pt x="192" y="54" on="0"/>
        <pt x="216" y="-28" on="0"/>
        <pt x="270" y="-60" on="0"/>
        <pt x="320" y="-60" on="1"/>
      </contour>
    </TTGlyph>
    <TTGlyph name="braceright" xMin="80" yMin="-140" xMax="320" yMax="740">
      <contour>
        <pt x="80" y="-140" on="1"/>
        <pt x="80" y="-120" on="1"/>
        <pt x="130" y="-120" on="0"/>
        <pt x="184" y="-82" on="0"/>
        <pt x="208" y="-6" on="0"/>
        <pt x="208" y="80" on="1"/>
        <pt x="208" y="130" on="1"/>
        <pt x="208" y="182" on="0"/>
        <pt x="218" y="244" on="0"/>
        <pt x="256" y="290" on="0"/>
        <pt x="296" y="300" on="1"/>
        <pt x="256" y="310" on="0"/>
        <pt x="218" y="356" on="0"/>
        <pt x="208" y="418" on="0"/>
        <pt x="208" y="470" on="1"/>
        <pt x="208" y="520" on="1"/>
        <pt x="208" y="606" on="0"/>
        <pt x="184" y="682" on="0"/>
        <pt x="130" y="720" on="0"/>
        <pt x="80" y="720" on="1"/>
        <pt x="80" y="740" on="1"/>
        <pt x="138" y="740" on="0"/>
        <pt x="200" y="694" on="0"/>
        <pt x="228" y="612" on="0"/>
        <pt x="228" y="520" on="1"/>
        <pt x="228" y="470" on="1"/>
        <pt x="228" y="416" on="0"/>
        <pt x="240" y="358" on="0"/>
        <pt x="276" y="324" on="0"/>
        <pt x="320" y="310" on="1"/>
        <pt x="320" y="290" on="1"/>
        <pt x="276" y="276" on="0"/>
        <pt x="240" y="242" on="0"/>
        <pt x="228" y="184" on="0"/>
        <pt x="228" y="130" on="1"/>
        <pt x="228" y="80" on="1"/>
        <pt x="228" y="-12" on="0"/>
        <pt x="200" y="-94" on="0"/>
        <pt x="138" y="-140" on="0"/>
      </contour>
    </TTGlyph>
    <TTGlyph name="braceright.case" xMin="80" yMin="-80" xMax="320" yMax="760">
      <contour>
        <pt x="80" y="-80" on="1"/>
        <pt x="80" y="-60" on="1"/>
        <pt x="130" y="-60" on="0"/>
        <pt x="184" y="-28" on="0"/>
        <pt x="208" y="54" on="0"/>
        <pt x="208" y="140" on="1"/>
        <pt x="208" y="170" on="1"/>
        <pt x="208" y="222" on="0"/>
        <pt x="218" y="284" on="0"/>
        <pt x="256" y="330" on="0"/>
        <pt x="296" y="340" on="1"/>
        <pt x="256" y="350" on="0"/>
        <pt x="218" y="396" on="0"/>
        <pt x="208" y="458" on="0"/>
        <pt x="208" y="510" on="1"/>
        <pt x="208" y="540" on="1"/>
        <pt x="208" y="626" on="0"/>
        <pt x="184" y="708" on="0"/>
        <pt x="130" y="740" on="0"/>
        <pt x="80" y="740" on="1"/>
        <pt x="80" y="760" on="1"/>
        <pt x="138" y="760" on="0"/>
        <pt x="200" y="720" on="0"/>
        <pt x="228" y="632" on="0"/>
        <pt x="228" y="540" on="1"/>
        <pt x="228" y="510" on="1"/>
        <pt x="228" y="456" on="0"/>
        <pt x="240" y="398" on="0"/>
        <pt x="276" y="364" on="0"/>
        <pt x="320" y="350" on="1"/>
        <pt x="320" y="330" on="1"/>
        <pt x="276" y="316" on="0"/>
        <pt x="240" y="282" on="0"/>
        <pt x="228" y="224" on="0"/>
        <pt x="228" y="170" on="1"/>
        <pt x="228" y="140" on="1"/>
        <pt x="228" y="48" on="0"/>
        <pt x="200" y="-40" on="0"/>
        <pt x="138" y="-80" on="0"/>
      </contour>
    </TTGlyph>
    <TTGlyph name="bracketleft" xMin="120" yMin="-140" xMax="320" yMax="740">
      <contour>
        <pt x="120" y="-140" on="1"/>
        <pt x="120" y="740" on="1"/>
        <pt x="320" y="740" on="1"/>
        <pt x="320" y="720" on="1"/>
        <pt x="140" y="720" on="1"/>
        <pt x="140" y="-120" on="1"/>
        <pt x="320" y="-120" on="1"/>
        <pt x="320" y="-140" on="1"/>
      </contour>
    </TTGlyph>
    <TTGlyph name="bracketleft.case" xMin="120" yMin="-80" xMax="320" yMax="760">
      <contour>
        <pt x="120" y="-80" on="1"/>
        <pt x="120" y="760" on="1"/>
        <pt x="320" y="760" on="1"/>
        <pt x="320" y="740" on="1"/>
        <pt x="140" y="740" on="1"/>
        <pt x="140" y="-60" on="1"/>
        <pt x="320" y="-60" on="1"/>
        <pt x="320" y="-80" on="1"/>
      </contour>
    </TTGlyph>
    <TTGlyph name="bracketright" xMin="80" yMin="-140" xMax="280" yMax="740">
      <contour>
        <pt x="280" y="-140" on="1"/>
        <pt x="80" y="-140" on="1"/>
        <pt x="80" y="-120" on="1"/>
        <pt x="260" y="-120" on="1"/>
        <pt x="260" y="720" on="1"/>
        <pt x="80" y="720" on="1"/>
        <pt x="80" y="740" on="1"/>
        <pt x="280" y="740" on="1"/>
      </contour>
    </TTGlyph>
    <TTGlyph name="bracketright.case" xMin="80" yMin="-80" xMax="280" yMax="760">
      <contour>
        <pt x="280" y="-80" on="1"/>
        <pt x="80" y="-80" on="1"/>
        <pt x="80" y="-60" on="1"/>
        <pt x="260" y="-60" on="1"/>
        <pt x="260" y="740" on="1"/>
        <pt x="80" y="740" on="1"/>
        <pt x="80" y="760" on="1"/>
        <pt x="280" y="760" on="1"/>
      </contour>
    </TTGlyph>
    <TTGlyph name="breve" xMin="66" yMin="578" xMax="334" yMax="720">
      <component glyphName="uni0306" x="0" y="0" flags="0x4"/>
    </TTGlyph>
    <TTGlyph name="brokenbar" xMin="120" yMin="-240" xMax="140" yMax="800">
      <contour>
        <pt x="120" y="400" on="1"/>
        <pt x="120" y="800" on="1"/>
        <pt x="140" y="800" on="1"/>
        <pt x="140" y="400" on="1"/>
      </contour>
      <contour>
        <pt x="120" y="-240" on="1"/>
        <pt x="120" y="160" on="1"/>
        <pt x="140" y="160" on="1"/>
        <pt x="140" y="-240" on="1"/>
      </contour>
    </TTGlyph>
    <TTGlyph name="bullet" xMin="110" yMin="170" xMax="290" yMax="350">
      <contour>
        <pt x="200" y="170" on="1"/>
        <pt x="159" y="170" on="0"/>
        <pt x="110" y="219" on="0"/>
        <pt x="110" y="260" on="1"/>
        <pt x="110" y="301" on="0"/>
        <pt x="159" y="350" on="0"/>
        <pt x="200" y="350" on="1"/>
        <pt x="241" y="350" on="0"/>
        <pt x="290" y="301" on="0"/>
        <pt x="290" y="260" on="1"/>
        <pt x="290" y="219" on="0"/>
        <pt x="241" y="170" on="0"/>
      </contour>
    </TTGlyph>
    <TTGlyph name="bullet.case" xMin="110" yMin="270" xMax="290" yMax="450">
      <component glyphName="bullet" x="0" y="100" flags="0x204"/>
    </TTGlyph>
    <TTGlyph name="c" xMin="68" yMin="-12" xMax="446" yMax="512">
      <contour>
        <pt x="272" y="-12" on="1"/>
        <pt x="212" y="-12" on="0"/>
        <pt x="118" y="50" on="0"/>
        <pt x="68" y="164" on="0"/>
        <pt x="68" y="250" on="1"/>
        <pt x="68" y="336" on="0"/>
        <pt x="118" y="450" on="0"/>
        <pt x="212" y="512" on="0"/>
        <pt x="272" y="512" on="1"/>
        <pt x="328" y="512" on="0"/>
        <pt x="404" y="470" on="0"/>
        <pt x="446" y="398" on="0"/>
        <pt x="446" y="370" on="1"/>
        <pt x="426" y="370" on="1"/>
        <pt x="426" y="392" on="0"/>
        <pt x="388" y="456" on="0"/>
        <pt x="322" y="492" on="0"/>
        <pt x="272" y="492" on="1"/>
        <pt x="218" y="492" on="0"/>
        <pt x="134" y="436" on="0"/>
        <pt x="88" y="330" on="0"/>
        <pt x="88" y="250" on="1"/>
        <pt x="88" y="170" on="0"/>
        <pt x="134" y="64" on="0"/>
        <pt x="218" y="8" on="0"/>
        <pt x="272" y="8" on="1"/>
        <pt x="322" y="8" on="0"/>
        <pt x="388" y="44" on="0"/>
        <pt x="426" y="108" on="0"/>
        <pt x="426" y="130" on="1"/>
        <pt x="446" y="130" on="1"/>
        <pt x="446" y="102" on="0"/>
        <pt x="404" y="30" on="0"/>
        <pt x="328" y="-12" on="0"/>
      </contour>
    </TTGlyph>
    <TTGlyph name="c.small" xMin="42" yMin="-7" xMax="273" yMax="313">
      <contour>
        <pt x="166" y="-7" on="1"/>
        <pt x="130" y="-7" on="0"/>
        <pt x="72" y="31" on="0"/>
        <pt x="42" y="100" on="0"/>
        <pt x="42" y="153" on="1"/>
        <pt x="42" y="206" on="0"/>
        <pt x="72" y="275" on="0"/>
        <pt x="130" y="313" on="0"/>
        <pt x="166" y="313" on="1"/>
        <pt x="201" y="313" on="0"/>
        <pt x="247" y="288" on="0"/>
        <pt x="273" y="244" on="0"/>
        <pt x="273" y="226" on="1"/>
        <pt x="261" y="226" on="1"/>
        <pt x="261" y="240" on="0"/>
        <pt x="237" y="279" on="0"/>
        <pt x="197" y="301" on="0"/>
        <pt x="166" y="301" on="1"/>
        <pt x="133" y="301" on="0"/>
        <pt x="82" y="267" on="0"/>
        <pt x="54" y="202" on="0"/>
        <pt x="54" y="153" on="1"/>
        <pt x="54" y="104" on="0"/>
        <pt x="82" y="39" on="0"/>
        <pt x="133" y="5" on="0"/>
        <pt x="166" y="5" on="1"/>
        <pt x="197" y="5" on="0"/>
        <pt x="237" y="27" on="0"/>
        <pt x="261" y="66" on="0"/>
        <pt x="261" y="80" on="1"/>
        <pt x="273" y="80" on="1"/>
        <pt x="273" y="62" on="0"/>
        <pt x="247" y="18" on="0"/>
        <pt x="201" y="-7" on="0"/>
      </contour>
    </TTGlyph>
    <TTGlyph name="c.sub" xMin="42" yMin="-87" xMax="273" yMax="233">
      <component glyphName="c.small" x="0" y="-80" flags="0x204"/>
    </TTGlyph>
    <TTGlyph name="c.superior" xMin="42" yMin="407" xMax="273" yMax="727">
      <component glyphName="c.small" x="0" y="414" flags="0x204"/>
    </TTGlyph>
    <TTGlyph name="cacute" xMin="68" yMin="-12" xMax="446" yMax="720">
      <component glyphName="c" x="0" y="0" flags="0x204"/>
      <component glyphName="acutecomb" x="176" y="0" flags="0x4"/>
    </TTGlyph>
    <TTGlyph name="caron" xMin="82" yMin="560" xMax="318" yMax="720">
      <component glyphName="uni030C" x="0" y="0" flags="0x4"/>
    </TTGlyph>
    <TTGlyph name="ccaron" xMin="68" yMin="-12" xMax="446" yMax="720">
      <component glyphName="c" x="0" y="0" flags="0x204"/>
      <component glyphName="uni030C" x="76" y="0" flags="0x4"/>
    </TTGlyph>
    <TTGlyph name="ccedilla" xMin="68" yMin="-200" xMax="446" yMax="512">
      <component glyphName="c" x="0" y="0" flags="0x204"/>
      <component glyphName="uni0327" x="142" y="0" flags="0x4"/>
    </TTGlyph>
    <TTGlyph name="ccircumflex" xMin="68" yMin="-12" xMax="446" yMax="720">
      <component glyphName="c" x="0" y="0" flags="0x204"/>
      <component glyphName="uni0302" x="76" y="0" flags="0x4"/>
    </TTGlyph>
    <TTGlyph name="cdotaccent" xMin="68" yMin="-12" xMax="446" yMax="660">
      <component glyphName="c" x="0" y="0" flags="0x204"/>
      <component glyphName="uni0307" x="176" y="0" flags="0x4"/>
    </TTGlyph>
    <TTGlyph name="cedilla" xMin="78" yMin="-200" xMax="222" yMax="6">
      <component glyphName="uni0327" x="0" y="0" flags="0x4"/>
    </TTGlyph>
    <TTGlyph name="cent" xMin="112" yMin="-120" xMax="490" yMax="620">
      <contour>
        <pt x="300" y="500" on="1"/>
        <pt x="300" y="620" on="1"/>
        <pt x="320" y="620" on="1"/>
        <pt x="320" y="500" on="1"/>
      </contour>
      <contour>
        <pt x="300" y="-120" on="1"/>
        <pt x="300" y="0" on="1"/>
        <pt x="320" y="0" on="1"/>
        <pt x="320" y="-120" on="1"/>
      </contour>
      <contour>
        <pt x="316" y="-12" on="1"/>
        <pt x="256" y="-12" on="0"/>
        <pt x="162" y="50" on="0"/>
        <pt x="112" y="164" on="0"/>
        <pt x="112" y="250" on="1"/>
        <pt x="112" y="336" on="0"/>
        <pt x="162" y="450" on="0"/>
        <pt x="256" y="512" on="0"/>
        <pt x="316" y="512" on="1"/>
        <pt x="372" y="512" on="0"/>
        <pt x="448" y="470" on="0"/>
        <pt x="490" y="398" on="0"/>
        <pt x="490" y="370" on="1"/>
        <pt x="470" y="370" on="1"/>
        <pt x="470" y="392" on="0"/>
        <pt x="432" y="456" on="0"/>
        <pt x="366" y="492" on="0"/>
        <pt x="316" y="492" on="1"/>
        <pt x="262" y="492" on="0"/>
        <pt x="178" y="436" on="0"/>
        <pt x="132" y="330" on="0"/>
        <pt x="132" y="250" on="1"/>
        <pt x="132" y="170" on="0"/>
        <pt x="178" y="64" on="0"/>
        <pt x="262" y="8" on="0"/>
        <pt x="316" y="8" on="1"/>
        <pt x="366" y="8" on="0"/>
        <pt x="432" y="44" on="0"/>
        <pt x="470" y="108" on="0"/>
        <pt x="470" y="130" on="1"/>
        <pt x="490" y="130" on="1"/>
        <pt x="490" y="102" on="0"/>
        <pt x="448" y="30" on="0"/>
        <pt x="372" y="-12" on="0"/>
      </contour>
    </TTGlyph>
    <TTGlyph name="circle" xMin="60" yMin="-10" xMax="800" yMax="730">
      <contour>
        <pt x="430" y="-10" on="1"/>
        <pt x="325" y="-10" on="0"/>
        <pt x="156" y="85" on="0"/>
        <pt x="60" y="254" on="0"/>
        <pt x="60" y="360" on="1"/>
        <pt x="60" y="465" on="0"/>
        <pt x="155" y="634" on="0"/>
        <pt x="324" y="730" on="0"/>
        <pt x="430" y="730" on="1"/>
        <pt x="535" y="730" on="0"/>
        <pt x="704" y="635" on="0"/>
        <pt x="800" y="466" on="0"/>
        <pt x="800" y="360" on="1"/>
        <pt x="800" y="255" on="0"/>
        <pt x="705" y="86" on="0"/>
        <pt x="536" y="-10" on="0"/>
      </contour>
      <contour>
        <pt x="430" y="9" on="1"/>
        <pt x="529" y="9" on="0"/>
        <pt x="690" y="99" on="0"/>
        <pt x="781" y="260" on="0"/>
        <pt x="781" y="360" on="1"/>
        <pt x="781" y="459" on="0"/>
        <pt x="691" y="620" on="0"/>
        <pt x="530" y="711" on="0"/>
        <pt x="430" y="711" on="1"/>
        <pt x="331" y="711" on="0"/>
        <pt x="170" y="621" on="0"/>
        <pt x="79" y="460" on="0"/>
        <pt x="79" y="360" on="1"/>
        <pt x="79" y="261" on="0"/>
        <pt x="169" y="100" on="0"/>
        <pt x="330" y="9" on="0"/>
      </contour>
    </TTGlyph>
    <TTGlyph name="circumflex" xMin="82" yMin="560" xMax="318" yMax="720">
      <component glyphName="uni0302" x="0" y="0" flags="0x4"/>
    </TTGlyph>
    <TTGlyph name="colon" xMin="130" yMin="-6" xMax="190" yMax="506">
      <component glyphName="period" x="0" y="452" flags="0x204"/>
      <component glyphName="period" x="0" y="0" flags="0x4"/>
    </TTGlyph>
    <TTGlyph name="colon.case" xMin="130" yMin="104" xMax="190" yMax="616">
      <component glyphName="period" x="0" y="562" flags="0x204"/>
      <component glyphName="period" x="0" y="110" flags="0x4"/>
    </TTGlyph>
    <TTGlyph name="comma" xMin="100" yMin="-200" xMax="190" yMax="54">
      <contour>
        <pt x="100" y="-200" on="1"/>
        <pt x="167" y="20" on="1"/>
        <pt x="189" y="16" on="1"/>
        <pt x="122" y="-200" on="1"/>
      </contour>
      <contour>
        <pt x="160" y="-6" on="1"/>
        <pt x="147" y="-6" on="0"/>
        <pt x="130" y="11" on="0"/>
        <pt x="130" y="24" on="1"/>
        <pt x="130" y="37" on="0"/>
        <pt x="147" y="54" on="0"/>
        <pt x="160" y="54" on="1"/>
        <pt x="173" y="54" on="0"/>
        <pt x="190" y="37" on="0"/>
        <pt x="190" y="24" on="1"/>
        <pt x="190" y="11" on="0"/>
        <pt x="173" y="-6" on="0"/>
      </contour>
    </TTGlyph>
    <TTGlyph name="comma.small" xMin="33" yMin="-122" xMax="88" yMax="33">
      <contour>
        <pt x="33" y="-122" on="1"/>
        <pt x="74" y="12" on="1"/>
        <pt x="88" y="10" on="1"/>
        <pt x="47" y="-122" on="1"/>
      </contour>
      <contour>
        <pt x="70" y="-4" on="1"/>
        <pt x="62" y="-4" on="0"/>
        <pt x="52" y="7" on="0"/>
        <pt x="52" y="15" on="1"/>
        <pt x="52" y="23" on="0"/>
        <pt x="62" y="33" on="0"/>
        <pt x="70" y="33" on="1"/>
        <pt x="78" y="33" on="0"/>
        <pt x="88" y="23" on="0"/>
        <pt x="88" y="15" on="1"/>
        <pt x="88" y="7" on="0"/>
        <pt x="78" y="-4" on="0"/>
      </contour>
    </TTGlyph>
    <TTGlyph name="comma.sub" xMin="33" yMin="-202" xMax="88" yMax="-47">
      <component glyphName="comma.small" x="0" y="-80" flags="0x204"/>
    </TTGlyph>
    <TTGlyph name="comma.superior" xMin="33" yMin="292" xMax="88" yMax="447">
      <component glyphName="comma.small" x="0" y="414" flags="0x204"/>
    </TTGlyph>
    <TTGlyph name="copyright" xMin="60" yMin="-10" xMax="800" yMax="730">
      <contour>
        <pt x="438" y="160" on="1"/>
        <pt x="359" y="160" on="0"/>
        <pt x="269" y="267" on="0"/>
        <pt x="269" y="360" on="1"/>
        <pt x="269" y="453" on="0"/>
        <pt x="359" y="560" on="0"/>
        <pt x="438" y="560" on="1"/>
        <pt x="498" y="560" on="0"/>
        <pt x="573" y="498" on="0"/>
        <pt x="581" y="452" on="1"/>
        <pt x="561" y="452" on="1"/>
        <pt x="551" y="494" on="0"/>
        <pt x="488" y="540" on="0"/>
        <pt x="438" y="540" on="1"/>
        <pt x="365" y="540" on="0"/>
        <pt x="289" y="447" on="0"/>
        <pt x="289" y="360" on="1"/>
        <pt x="289" y="273" on="0"/>
        <pt x="365" y="180" on="0"/>
        <pt x="438" y="180" on="1"/>
        <pt x="488" y="180" on="0"/>
        <pt x="551" y="226" on="0"/>
        <pt x="561" y="268" on="1"/>
        <pt x="581" y="268" on="1"/>
        <pt x="573" y="222" on="0"/>
        <pt x="498" y="160" on="0"/>
      </contour>
      <contour>
        <pt x="430" y="-10" on="1"/>
        <pt x="325" y="-10" on="0"/>
        <pt x="156" y="85" on="0"/>
        <pt x="108" y="170" on="1"/>
        <pt x="60" y="254" on="0"/>
        <pt x="60" y="360" on="1"/>
        <pt x="60" y="465" on="0"/>
        <pt x="155" y="634" on="0"/>
        <pt x="240" y="682" on="1"/>
        <pt x="324" y="730" on="0"/>
        <pt x="430" y="730" on="1"/>
        <pt x="535" y="730" on="0"/>
        <pt x="704" y="635" on="0"/>
        <pt x="752" y="550" on="1"/>
        <pt x="800" y="466" on="0"/>
        <pt x="800" y="360" on="1"/>
        <pt x="800" y="255" on="0"/>
        <pt x="705" y="86" on="0"/>
        <pt x="620" y="38" on="1"/>
        <pt x="536" y="-10" on="0"/>
      </contour>
      <contour>
        <pt x="430" y="9" on="1"/>
        <pt x="529" y="9" on="0"/>
        <pt x="690" y="99" on="0"/>
        <pt x="736" y="180" on="1"/>
        <pt x="781" y="260" on="0"/>
        <pt x="781" y="360" on="1"/>
        <pt x="781" y="459" on="0"/>
        <pt x="691" y="620" on="0"/>
        <pt x="610" y="666" on="1"/>
        <pt x="530" y="711" on="0"/>
        <pt x="430" y="711" on="1"/>
        <pt x="331" y="711" on="0"/>
        <pt x="170" y="621" on="0"/>
        <pt x="125" y="540" on="1"/>
        <pt x="79" y="460" on="0"/>
        <pt x="79" y="360" on="1"/>
        <pt x="79" y="261" on="0"/>
        <pt x="169" y="100" on="0"/>
        <pt x="250" y="55" on="1"/>
        <pt x="330" y="9" on="0"/>
      </contour>
    </TTGlyph>
    <TTGlyph name="currency" xMin="64" yMin="104" xMax="575" yMax="616">
      <contour>
        <pt x="317" y="130" on="1"/>
        <pt x="219" y="130" on="0"/>
        <pt x="87" y="262" on="0"/>
        <pt x="87" y="360" on="1"/>
        <pt x="87" y="458" on="0"/>
        <pt x="219" y="590" on="0"/>
        <pt x="317" y="590" on="1"/>
        <pt x="415" y="590" on="0"/>
        <pt x="547" y="458" on="0"/>
        <pt x="547" y="360" on="1"/>
        <pt x="547" y="262" on="0"/>
        <pt x="415" y="130" on="0"/>
      </contour>
      <contour>
        <pt x="75" y="104" on="1"/>
        <pt x="64" y="119" on="1"/>
        <pt x="153" y="207" on="1"/>
        <pt x="163" y="193" on="1"/>
      </contour>
      <contour>
        <pt x="317" y="150" on="1"/>
        <pt x="407" y="150" on="0"/>
        <pt x="527" y="270" on="0"/>
        <pt x="527" y="360" on="1"/>
        <pt x="527" y="450" on="0"/>
        <pt x="407" y="570" on="0"/>
        <pt x="317" y="570" on="1"/>
        <pt x="227" y="570" on="0"/>
        <pt x="107" y="450" on="0"/>
        <pt x="107" y="360" on="1"/>
        <pt x="107" y="270" on="0"/>
        <pt x="227" y="150" on="0"/>
      </contour>
      <contour>
        <pt x="561" y="104" on="1"/>
        <pt x="473" y="192" on="1"/>
        <pt x="487" y="207" on="1"/>
        <pt x="574" y="119" on="1"/>
      </contour>
      <contour>
        <pt x="152" y="514" on="1"/>
        <pt x="64" y="602" on="1"/>
        <pt x="79" y="616" on="1"/>
        <pt x="166" y="528" on="1"/>
      </contour>
      <contour>
        <pt x="487" y="514" on="1"/>
        <pt x="473" y="529" on="1"/>
        <pt x="560" y="615" on="1"/>
        <pt x="575" y="602" on="1"/>
      </contour>
    </TTGlyph>
    <TTGlyph name="d" xMin="68" yMin="-12" xMax="484" yMax="720">
      <contour>
        <pt x="276" y="-12" on="1"/>
        <pt x="210" y="-12" on="0"/>
        <pt x="121" y="50" on="0"/>
        <pt x="68" y="164" on="0"/>
        <pt x="68" y="250" on="1"/>
        <pt x="68" y="336" on="0"/>
        <pt x="121" y="450" on="0"/>
        <pt x="210" y="512" on="0"/>
        <pt x="276" y="512" on="1"/>
        <pt x="324" y="512" on="0"/>
        <pt x="401" y="478" on="0"/>
        <pt x="456" y="408" on="0"/>
        <pt x="464" y="380" on="1"/>
        <pt x="464" y="720" on="1"/>
        <pt x="484" y="720" on="1"/>
        <pt x="484" y="0" on="1"/>
        <pt x="464" y="0" on="1"/>
        <pt x="464" y="120" on="1"/>
        <pt x="456" y="92" on="0"/>
        <pt x="401" y="22" on="0"/>
        <pt x="324" y="-12" on="0"/>
      </contour>
      <contour>
        <pt x="276" y="8" on="1"/>
        <pt x="336" y="8" on="0"/>
        <pt x="417" y="64" on="0"/>
        <pt x="464" y="170" on="0"/>
        <pt x="464" y="250" on="1"/>
        <pt x="464" y="330" on="0"/>
        <pt x="417" y="436" on="0"/>
        <pt x="336" y="492" on="0"/>
        <pt x="276" y="492" on="1"/>
        <pt x="216" y="492" on="0"/>
        <pt x="137" y="436" on="0"/>
        <pt x="88" y="330" on="0"/>
        <pt x="88" y="250" on="1"/>
        <pt x="88" y="170" on="0"/>
        <pt x="137" y="64" on="0"/>
        <pt x="216" y="8" on="0"/>
      </contour>
    </TTGlyph>
    <TTGlyph name="d.small" xMin="42" yMin="-7" xMax="296" yMax="441">
      <contour>
        <pt x="169" y="-7" on="1"/>
        <pt x="129" y="-7" on="0"/>
        <pt x="74" y="31" on="0"/>
        <pt x="42" y="100" on="0"/>
        <pt x="42" y="153" on="1"/>
        <pt x="42" y="206" on="0"/>
        <pt x="74" y="275" on="0"/>
        <pt x="129" y="313" on="0"/>
        <pt x="169" y="313" on="1"/>
        <pt x="198" y="313" on="0"/>
        <pt x="245" y="293" on="0"/>
        <pt x="279" y="250" on="0"/>
        <pt x="284" y="233" on="1"/>
        <pt x="284" y="441" on="1"/>
        <pt x="296" y="441" on="1"/>
        <pt x="296" y="0" on="1"/>
        <pt x="284" y="0" on="1"/>
        <pt x="284" y="73" on="1"/>
        <pt x="279" y="56" on="0"/>
        <pt x="245" y="13" on="0"/>
        <pt x="198" y="-7" on="0"/>
      </contour>
      <contour>
        <pt x="169" y="5" on="1"/>
        <pt x="206" y="5" on="0"/>
        <pt x="255" y="39" on="0"/>
        <pt x="284" y="104" on="0"/>
        <pt x="284" y="153" on="1"/>
        <pt x="284" y="202" on="0"/>
        <pt x="255" y="267" on="0"/>
        <pt x="206" y="301" on="0"/>
        <pt x="169" y="301" on="1"/>
        <pt x="132" y="301" on="0"/>
        <pt x="84" y="267" on="0"/>
        <pt x="54" y="202" on="0"/>
        <pt x="54" y="153" on="1"/>
        <pt x="54" y="104" on="0"/>
        <pt x="84" y="39" on="0"/>
        <pt x="132" y="5" on="0"/>
      </contour>
    </TTGlyph>
    <TTGlyph name="d.sub" xMin="42" yMin="-87" xMax="296" yMax="361">
      <component glyphName="d.small" x="0" y="-80" flags="0x204"/>
    </TTGlyph>
    <TTGlyph name="dagger" xMin="60" yMin="100" xMax="460" yMax="720">
      <contour>
        <pt x="250" y="100" on="1"/>
        <pt x="250" y="520" on="1"/>
        <pt x="60" y="520" on="1"/>
        <pt x="60" y="540" on="1"/>
        <pt x="250" y="540" on="1"/>
        <pt x="250" y="720" on="1"/>
        <pt x="270" y="720" on="1"/>
        <pt x="270" y="540" on="1"/>
        <pt x="460" y="540" on="1"/>
        <pt x="460" y="520" on="1"/>
        <pt x="270" y="520" on="1"/>
        <pt x="270" y="100" on="1"/>
      </contour>
    </TTGlyph>
    <TTGlyph name="daggerdbl" xMin="60" yMin="100" xMax="460" yMax="720">
      <contour>
        <pt x="250" y="100" on="1"/>
        <pt x="250" y="280" on="1"/>
        <pt x="60" y="280" on="1"/>
        <pt x="60" y="300" on="1"/>
        <pt x="250" y="300" on="1"/>
        <pt x="250" y="540" on="1"/>
        <pt x="60" y="540" on="1"/>
        <pt x="60" y="560" on="1"/>
        <pt x="250" y="560" on="1"/>
        <pt x="250" y="720" on="1"/>
        <pt x="270" y="720" on="1"/>
        <pt x="270" y="560" on="1"/>
        <pt x="460" y="560" on="1"/>
        <pt x="460" y="540" on="1"/>
        <pt x="270" y="540" on="1"/>
        <pt x="270" y="300" on="1"/>
        <pt x="460" y="300" on="1"/>
        <pt x="460" y="280" on="1"/>
        <pt x="270" y="280" on="1"/>
        <pt x="270" y="100" on="1"/>
      </contour>
    </TTGlyph>
    <TTGlyph name="dcaron" xMin="68" yMin="-12" xMax="632" yMax="720">
      <component glyphName="d" x="0" y="0" flags="0x4"/>
      <component glyphName="uni030C.alt" x="520" y="0" flags="0x4"/>
    </TTGlyph>
    <TTGlyph name="dcroat" xMin="68" yMin="-12" xMax="484" yMax="720">
      <contour>
        <pt x="276" y="-12" on="1"/>
        <pt x="210" y="-12" on="0"/>
        <pt x="121" y="50" on="0"/>
        <pt x="68" y="164" on="0"/>
        <pt x="68" y="250" on="1"/>
        <pt x="68" y="336" on="0"/>
        <pt x="121" y="450" on="0"/>
        <pt x="210" y="512" on="0"/>
        <pt x="276" y="512" on="1"/>
        <pt x="324" y="512" on="0"/>
        <pt x="401" y="478" on="0"/>
        <pt x="456" y="408" on="0"/>
        <pt x="464" y="380" on="1"/>
        <pt x="464" y="720" on="1"/>
        <pt x="484" y="720" on="1"/>
        <pt x="484" y="0" on="1"/>
        <pt x="464" y="0" on="1"/>
        <pt x="464" y="120" on="1"/>
        <pt x="456" y="92" on="0"/>
        <pt x="401" y="22" on="0"/>
        <pt x="324" y="-12" on="0"/>
      </contour>
      <contour>
        <pt x="276" y="8" on="1"/>
        <pt x="336" y="8" on="0"/>
        <pt x="417" y="64" on="0"/>
        <pt x="464" y="170" on="0"/>
        <pt x="464" y="250" on="1"/>
        <pt x="464" y="330" on="0"/>
        <pt x="417" y="436" on="0"/>
        <pt x="336" y="492" on="0"/>
        <pt x="276" y="492" on="1"/>
        <pt x="216" y="492" on="0"/>
        <pt x="137" y="436" on="0"/>
        <pt x="88" y="330" on="0"/>
        <pt x="88" y="250" on="1"/>
        <pt x="88" y="170" on="0"/>
        <pt x="137" y="64" on="0"/>
        <pt x="216" y="8" on="0"/>
      </contour>
      <contour>
        <pt x="472" y="250" on="1"/>
        <pt x="112" y="250" on="1"/>
        <pt x="112" y="270" on="1"/>
        <pt x="472" y="270" on="1"/>
      </contour>
    </TTGlyph>
    <TTGlyph name="degree" xMin="30" yMin="352" xMax="410" yMax="732">
      <contour>
        <pt x="220" y="352" on="1"/>
        <pt x="137" y="352" on="0"/>
        <pt x="30" y="461" on="0"/>
        <pt x="30" y="542" on="1"/>
        <pt x="30" y="623" on="0"/>
        <pt x="137" y="732" on="0"/>
        <pt x="220" y="732" on="1"/>
        <pt x="303" y="732" on="0"/>
        <pt x="410" y="623" on="0"/>
        <pt x="410" y="542" on="1"/>
        <pt x="410" y="461" on="0"/>
        <pt x="303" y="352" on="0"/>
      </contour>
      <contour>
        <pt x="220" y="372" on="1"/>
        <pt x="294" y="372" on="0"/>
        <pt x="390" y="468" on="0"/>
        <pt x="390" y="542" on="1"/>
        <pt x="390" y="616" on="0"/>
        <pt x="294" y="712" on="0"/>
        <pt x="220" y="712" on="1"/>
        <pt x="146" y="712" on="0"/>
        <pt x="50" y="616" on="0"/>
        <pt x="50" y="542" on="1"/>
        <pt x="50" y="468" on="0"/>
        <pt x="146" y="372" on="0"/>
      </contour>
    </TTGlyph>
    <TTGlyph name="delta" xMin="68" yMin="-12" xMax="472" yMax="714">
      <contour>
        <pt x="270" y="-12" on="1"/>
        <pt x="204" y="-12" on="0"/>
        <pt x="118" y="44" on="0"/>
        <pt x="68" y="146" on="0"/>
        <pt x="68" y="232" on="1"/>
        <pt x="68" y="318" on="0"/>
        <pt x="118" y="420" on="0"/>
        <pt x="204" y="476" on="0"/>
        <pt x="270" y="476" on="1"/>
        <pt x="234" y="490" on="0"/>
        <pt x="164" y="523" on="0"/>
        <pt x="116" y="578" on="0"/>
        <pt x="116" y="616" on="1"/>
        <pt x="116" y="648" on="0"/>
        <pt x="150" y="692" on="0"/>
        <pt x="208" y="714" on="0"/>
        <pt x="242" y="714" on="1"/>
        <pt x="290" y="714" on="0"/>
        <pt x="359" y="698" on="0"/>
        <pt x="418" y="677" on="0"/>
        <pt x="450" y="662" on="1"/>
        <pt x="450" y="640" on="1"/>
        <pt x="412" y="657" on="0"/>
        <pt x="353" y="678" on="0"/>
        <pt x="284" y="694" on="0"/>
        <pt x="242" y="694" on="1"/>
        <pt x="214" y="694" on="0"/>
        <pt x="166" y="678" on="0"/>
        <pt x="136" y="640" on="0"/>
        <pt x="136" y="616" on="1"/>
        <pt x="136" y="584" on="0"/>
        <pt x="178" y="538" on="0"/>
        <pt x="242" y="509" on="0"/>
        <pt x="295" y="486" on="0"/>
        <pt x="355" y="466" on="0"/>
        <pt x="422" y="420" on="0"/>
        <pt x="472" y="318" on="0"/>
        <pt x="472" y="232" on="1"/>
        <pt x="472" y="146" on="0"/>
        <pt x="422" y="44" on="0"/>
        <pt x="336" y="-12" on="0"/>
      </contour>
      <contour>
        <pt x="270" y="8" on="1"/>
        <pt x="330" y="8" on="0"/>
        <pt x="406" y="58" on="0"/>
        <pt x="452" y="152" on="0"/>
        <pt x="452" y="232" on="1"/>
        <pt x="452" y="312" on="0"/>
        <pt x="406" y="406" on="0"/>
        <pt x="330" y="456" on="0"/>
        <pt x="270" y="456" on="1"/>
        <pt x="210" y="456" on="0"/>
        <pt x="134" y="406" on="0"/>
        <pt x="88" y="312" on="0"/>
        <pt x="88" y="232" on="1"/>
        <pt x="88" y="152" on="0"/>
        <pt x="134" y="58" on="0"/>
        <pt x="210" y="8" on="0"/>
      </contour>
    </TTGlyph>
    <TTGlyph name="dieresis" xMin="80" yMin="600" xMax="320" yMax="660">
      <component glyphName="uni0307" x="10" y="0" flags="0x4"/>
      <component glyphName="uni0307" x="190" y="0" flags="0x4"/>
    </TTGlyph>
    <TTGlyph name="divide" xMin="80" yMin="85" xMax="520" yMax="555">
      <component glyphName="minus" x="0" y="0" flags="0x204"/>
      <component glyphName="uni0307" x="200" y="-105" flags="0x4"/>
      <component glyphName="uni0307" x="200" y="-515" flags="0x4"/>
    </TTGlyph>
    <TTGlyph name="dollar" xMin="103" yMin="-100" xMax="487" yMax="820">
      <contour>
        <pt x="302" y="-12" on="1"/>
        <pt x="245" y="-12" on="0"/>
        <pt x="157" y="28" on="0"/>
        <pt x="103" y="112" on="0"/>
        <pt x="103" y="170" on="1"/>
        <pt x="123" y="170" on="1"/>
        <pt x="123" y="118" on="0"/>
        <pt x="171" y="44" on="0"/>
        <pt x="249" y="8" on="0"/>
        <pt x="302" y="8" on="1"/>
        <pt x="346" y="8" on="0"/>
        <pt x="423" y="40" on="0"/>
        <pt x="467" y="108" on="0"/>
        <pt x="467" y="152" on="1"/>
        <pt x="467" y="182" on="0"/>
        <pt x="449" y="232" on="0"/>
        <pt x="403" y="285" on="0"/>
        <pt x="352" y="321" on="1"/>
        <pt x="226" y="409" on="1"/>
        <pt x="184" y="439" on="0"/>
        <pt x="137" y="478" on="0"/>
        <pt x="111" y="537" on="0"/>
        <pt x="111" y="573" on="1"/>
        <pt x="111" y="629" on="0"/>
        <pt x="167" y="699" on="0"/>
        <pt x="246" y="732" on="0"/>
        <pt x="292" y="732" on="1"/>
        <pt x="346" y="732" on="0"/>
        <pt x="433" y="693" on="0"/>
        <pt x="487" y="608" on="0"/>
        <pt x="487" y="550" on="1"/>
        <pt x="467" y="550" on="1"/>
        <pt x="467" y="602" on="0"/>
        <pt x="416" y="679" on="0"/>
        <pt x="340" y="712" on="0"/>
        <pt x="292" y="712" on="1"/>
        <pt x="252" y="712" on="0"/>
        <pt x="179" y="683" on="0"/>
        <pt x="131" y="621" on="0"/>
        <pt x="131" y="573" on="1"/>
        <pt x="131" y="543" on="0"/>
        <pt x="153" y="490" on="0"/>
        <pt x="198" y="452" on="0"/>
        <pt x="240" y="423" on="1"/>
        <pt x="364" y="337" on="1"/>
        <pt x="417" y="300" on="0"/>
        <pt x="468" y="242" on="0"/>
        <pt x="487" y="182" on="0"/>
        <pt x="487" y="152" on="1"/>
        <pt x="487" y="99" on="0"/>
        <pt x="434" y="24" on="0"/>
        <pt x="354" y="-12" on="0"/>
      </contour>
      <contour>
        <pt x="292" y="-100" on="1"/>
        <pt x="292" y="0" on="1"/>
        <pt x="312" y="0" on="1"/>
        <pt x="312" y="-100" on="1"/>
      </contour>
      <contour>
        <pt x="292" y="720" on="1"/>
        <pt x="292" y="820" on="1"/>
        <pt x="312" y="820" on="1"/>
        <pt x="312" y="720" on="1"/>
      </contour>
    </TTGlyph>
    <TTGlyph name="dotaccent" xMin="70" yMin="600" xMax="130" yMax="660">
      <component glyphName="uni0307" x="0" y="0" flags="0x4"/>
    </TTGlyph>
    <TTGlyph name="dotbelowcomb" xMin="70" yMin="-206" xMax="130" yMax="-146">
      <component glyphName="uni0307" x="0" y="-806" flags="0x204"/>
    </TTGlyph>
    <TTGlyph name="dotlessi" xMin="118" yMin="0" xMax="138" yMax="500">
      <contour>
        <pt x="118" y="0" on="1"/>
        <pt x="118" y="500" on="1"/>
        <pt x="138" y="500" on="1"/>
        <pt x="138" y="0" on="1"/>
      </contour>
    </TTGlyph>
    <TTGlyph name="dotmath" xMin="270" yMin="330" xMax="330" yMax="390">
      <component glyphName="period" x="140" y="336" flags="0x4"/>
    </TTGlyph>
    <TTGlyph name="e" xMin="68" yMin="-12" xMax="462" yMax="512">
      <contour>
        <pt x="272" y="-12" on="1"/>
        <pt x="206" y="-12" on="0"/>
        <pt x="114" y="50" on="0"/>
        <pt x="68" y="157" on="0"/>
        <pt x="68" y="250" on="1"/>
        <pt x="68" y="343" on="0"/>
        <pt x="118" y="452" on="0"/>
        <pt x="204" y="512" on="0"/>
        <pt x="270" y="512" on="1"/>
        <pt x="334" y="512" on="0"/>
        <pt x="420" y="453" on="0"/>
        <pt x="462" y="345" on="0"/>
        <pt x="462" y="270" on="1"/>
        <pt x="462" y="256" on="1"/>
        <pt x="80" y="256" on="1"/>
        <pt x="80" y="276" on="1"/>
        <pt x="442" y="276" on="1"/>
        <pt x="442" y="343" on="0"/>
        <pt x="402" y="440" on="0"/>
        <pt x="326" y="492" on="0"/>
        <pt x="270" y="492" on="1"/>
        <pt x="210" y="492" on="0"/>
        <pt x="134" y="438" on="0"/>
        <pt x="88" y="338" on="0"/>
        <pt x="88" y="256" on="1"/>
        <pt x="88" y="244" on="1"/>
        <pt x="88" y="164" on="0"/>
        <pt x="130" y="66" on="0"/>
        <pt x="212" y="8" on="0"/>
        <pt x="272" y="8" on="1"/>
        <pt x="320" y="8" on="0"/>
        <pt x="387" y="42" on="0"/>
        <pt x="425" y="98" on="0"/>
        <pt x="429" y="130" on="1"/>
        <pt x="450" y="130" on="1"/>
        <pt x="448" y="96" on="0"/>
        <pt x="400" y="26" on="0"/>
        <pt x="326" y="-12" on="0"/>
      </contour>
    </TTGlyph>
    <TTGlyph name="e.small" xMin="42" yMin="-7" xMax="283" yMax="313">
      <contour>
        <pt x="166" y="-7" on="1"/>
        <pt x="126" y="-7" on="0"/>
        <pt x="70" y="31" on="0"/>
        <pt x="42" y="96" on="0"/>
        <pt x="42" y="153" on="1"/>
        <pt x="42" y="210" on="0"/>
        <pt x="72" y="277" on="0"/>
        <pt x="125" y="313" on="0"/>
        <pt x="165" y="313" on="1"/>
        <pt x="204" y="313" on="0"/>
        <pt x="257" y="277" on="0"/>
        <pt x="283" y="211" on="0"/>
        <pt x="283" y="165" on="1"/>
        <pt x="283" y="157" on="1"/>
        <pt x="49" y="157" on="1"/>
        <pt x="49" y="169" on="1"/>
        <pt x="271" y="169" on="1"/>
        <pt x="271" y="210" on="0"/>
        <pt x="246" y="269" on="0"/>
        <pt x="200" y="301" on="0"/>
        <pt x="165" y="301" on="1"/>
        <pt x="129" y="301" on="0"/>
        <pt x="82" y="268" on="0"/>
        <pt x="54" y="207" on="0"/>
        <pt x="54" y="157" on="1"/>
        <pt x="54" y="149" on="1"/>
        <pt x="54" y="100" on="0"/>
        <pt x="80" y="40" on="0"/>
        <pt x="130" y="5" on="0"/>
        <pt x="166" y="5" on="1"/>
        <pt x="196" y="5" on="0"/>
        <pt x="237" y="26" on="0"/>
        <pt x="260" y="60" on="0"/>
        <pt x="263" y="80" on="1"/>
        <pt x="275" y="80" on="1"/>
        <pt x="274" y="59" on="0"/>
        <pt x="245" y="16" on="0"/>
        <pt x="200" y="-7" on="0"/>
      </contour>
    </TTGlyph>
    <TTGlyph name="eacute" xMin="68" yMin="-12" xMax="462" yMax="720">
      <component glyphName="e" x="0" y="0" flags="0x204"/>
      <component glyphName="acutecomb" x="172" y="0" flags="0x4"/>
    </TTGlyph>
    <TTGlyph name="ebreve" xMin="68" yMin="-12" xMax="462" yMax="720">
      <component glyphName="e" x="0" y="0" flags="0x204"/>
      <component glyphName="uni0306" x="72" y="0" flags="0x4"/>
    </TTGlyph>
    <TTGlyph name="ecaron" xMin="68" yMin="-12" xMax="462" yMax="720">
      <component glyphName="e" x="0" y="0" flags="0x204"/>
      <component glyphName="uni030C" x="72" y="0" flags="0x4"/>
    </TTGlyph>
    <TTGlyph name="ecircumflex" xMin="68" yMin="-12" xMax="462" yMax="720">
      <component glyphName="e" x="0" y="0" flags="0x204"/>
      <component glyphName="uni0302" x="72" y="0" flags="0x4"/>
    </TTGlyph>
    <TTGlyph name="edieresis" xMin="68" yMin="-12" xMax="462" yMax="660">
      <component glyphName="e" x="0" y="0" flags="0x204"/>
      <component glyphName="uni0307" x="82" y="0" flags="0x4"/>
      <component glyphName="uni0307" x="262" y="0" flags="0x4"/>
    </TTGlyph>
    <TTGlyph name="edotaccent" xMin="68" yMin="-12" xMax="462" yMax="660">
      <component glyphName="e" x="0" y="0" flags="0x204"/>
      <component glyphName="uni0307" x="172" y="0" flags="0x4"/>
    </TTGlyph>
    <TTGlyph name="egrave" xMin="68" yMin="-12" xMax="462" yMax="720">
      <component glyphName="e" x="0" y="0" flags="0x204"/>
      <component glyphName="gravecomb" x="72" y="0" flags="0x4"/>
    </TTGlyph>
    <TTGlyph name="eight" xMin="78" yMin="-12" xMax="542" yMax="732">
      <contour>
        <pt x="310" y="-12" on="1"/>
        <pt x="244" y="-12" on="0"/>
        <pt x="132" y="41" on="0"/>
        <pt x="78" y="128" on="0"/>
        <pt x="78" y="184" on="1"/>
        <pt x="78" y="236" on="0"/>
        <pt x="128" y="320" on="0"/>
        <pt x="196" y="362" on="0"/>
        <pt x="232" y="370" on="1"/>
        <pt x="212" y="372" on="0"/>
        <pt x="146" y="412" on="0"/>
        <pt x="100" y="489" on="0"/>
        <pt x="100" y="546" on="1"/>
        <pt x="100" y="602" on="0"/>
        <pt x="152" y="684" on="0"/>
        <pt x="244" y="732" on="0"/>
        <pt x="310" y="732" on="1"/>
        <pt x="376" y="732" on="0"/>
        <pt x="468" y="684" on="0"/>
        <pt x="520" y="602" on="0"/>
        <pt x="520" y="546" on="1"/>
        <pt x="520" y="494" on="0"/>
        <pt x="474" y="412" on="0"/>
        <pt x="408" y="372" on="0"/>
        <pt x="388" y="370" on="1"/>
        <pt x="424" y="362" on="0"/>
        <pt x="492" y="320" on="0"/>
        <pt x="542" y="236" on="0"/>
        <pt x="542" y="184" on="1"/>
        <pt x="542" y="128" on="0"/>
        <pt x="483" y="36" on="0"/>
        <pt x="376" y="-12" on="0"/>
      </contour>
      <contour>
        <pt x="310" y="8" on="1"/>
        <pt x="370" y="8" on="0"/>
        <pt x="469" y="52" on="0"/>
        <pt x="522" y="134" on="0"/>
        <pt x="522" y="184" on="1"/>
        <pt x="522" y="234" on="0"/>
        <pt x="470" y="316" on="0"/>
        <pt x="370" y="360" on="0"/>
        <pt x="310" y="360" on="1"/>
        <pt x="250" y="360" on="0"/>
        <pt x="150" y="316" on="0"/>
        <pt x="98" y="234" on="0"/>
        <pt x="98" y="184" on="1"/>
        <pt x="98" y="134" on="0"/>
        <pt x="146" y="57" on="0"/>
        <pt x="250" y="8" on="0"/>
      </contour>
      <contour>
        <pt x="310" y="380" on="1"/>
        <pt x="370" y="380" on="0"/>
        <pt x="458" y="424" on="0"/>
        <pt x="500" y="499" on="0"/>
        <pt x="500" y="546" on="1"/>
        <pt x="500" y="596" on="0"/>
        <pt x="454" y="668" on="0"/>
        <pt x="370" y="712" on="0"/>
        <pt x="310" y="712" on="1"/>
        <pt x="250" y="712" on="0"/>
        <pt x="166" y="668" on="0"/>
        <pt x="120" y="596" on="0"/>
        <pt x="120" y="546" on="1"/>
        <pt x="120" y="499" on="0"/>
        <pt x="162" y="424" on="0"/>
        <pt x="250" y="380" on="0"/>
      </contour>
    </TTGlyph>
    <TTGlyph name="eight.dnom" xMin="43" yMin="-7" xMax="301" yMax="407">
      <contour>
        <pt x="172" y="-7" on="1"/>
        <pt x="136" y="-7" on="0"/>
        <pt x="73" y="23" on="0"/>
        <pt x="43" y="71" on="0"/>
        <pt x="43" y="102" on="1"/>
        <pt x="43" y="131" on="0"/>
        <pt x="71" y="178" on="0"/>
        <pt x="109" y="201" on="0"/>
        <pt x="129" y="206" on="1"/>
        <pt x="118" y="207" on="0"/>
        <pt x="81" y="229" on="0"/>
        <pt x="56" y="272" on="0"/>
        <pt x="56" y="303" on="1"/>
        <pt x="56" y="335" on="0"/>
        <pt x="84" y="380" on="0"/>
        <pt x="136" y="407" on="0"/>
        <pt x="172" y="407" on="1"/>
        <pt x="209" y="407" on="0"/>
        <pt x="260" y="380" on="0"/>
        <pt x="289" y="335" on="0"/>
        <pt x="289" y="303" on="1"/>
        <pt x="289" y="275" on="0"/>
        <pt x="263" y="229" on="0"/>
        <pt x="227" y="207" on="0"/>
        <pt x="216" y="206" on="1"/>
        <pt x="236" y="201" on="0"/>
        <pt x="273" y="178" on="0"/>
        <pt x="301" y="131" on="0"/>
        <pt x="301" y="102" on="1"/>
        <pt x="301" y="71" on="0"/>
        <pt x="268" y="20" on="0"/>
        <pt x="209" y="-7" on="0"/>
      </contour>
      <contour>
        <pt x="172" y="4" on="1"/>
        <pt x="206" y="4" on="0"/>
        <pt x="261" y="29" on="0"/>
        <pt x="290" y="74" on="0"/>
        <pt x="290" y="102" on="1"/>
        <pt x="290" y="130" on="0"/>
        <pt x="261" y="176" on="0"/>
        <pt x="206" y="200" on="0"/>
        <pt x="172" y="200" on="1"/>
        <pt x="139" y="200" on="0"/>
        <pt x="83" y="176" on="0"/>
        <pt x="54" y="130" on="0"/>
        <pt x="54" y="102" on="1"/>
        <pt x="54" y="74" on="0"/>
        <pt x="81" y="32" on="0"/>
        <pt x="139" y="4" on="0"/>
      </contour>
      <contour>
        <pt x="172" y="211" on="1"/>
        <pt x="206" y="211" on="0"/>
        <pt x="255" y="236" on="0"/>
        <pt x="278" y="277" on="0"/>
        <pt x="278" y="303" on="1"/>
        <pt x="278" y="331" on="0"/>
        <pt x="252" y="371" on="0"/>
        <pt x="206" y="396" on="0"/>
        <pt x="172" y="396" on="1"/>
        <pt x="139" y="396" on="0"/>
        <pt x="92" y="371" on="0"/>
        <pt x="67" y="331" on="0"/>
        <pt x="67" y="303" on="1"/>
        <pt x="67" y="277" on="0"/>
        <pt x="90" y="236" on="0"/>
        <pt x="139" y="211" on="0"/>
      </contour>
    </TTGlyph>
    <TTGlyph name="eight.numr" xMin="43" yMin="313" xMax="301" yMax="727">
      <contour>
        <pt x="172" y="313" on="1"/>
        <pt x="136" y="313" on="0"/>
        <pt x="73" y="343" on="0"/>
        <pt x="43" y="391" on="0"/>
        <pt x="43" y="422" on="1"/>
        <pt x="43" y="451" on="0"/>
        <pt x="71" y="498" on="0"/>
        <pt x="109" y="521" on="0"/>
        <pt x="129" y="526" on="1"/>
        <pt x="118" y="527" on="0"/>
        <pt x="81" y="549" on="0"/>
        <pt x="56" y="592" on="0"/>
        <pt x="56" y="623" on="1"/>
        <pt x="56" y="655" on="0"/>
        <pt x="84" y="700" on="0"/>
        <pt x="136" y="727" on="0"/>
        <pt x="172" y="727" on="1"/>
        <pt x="209" y="727" on="0"/>
        <pt x="260" y="700" on="0"/>
        <pt x="289" y="655" on="0"/>
        <pt x="289" y="623" on="1"/>
        <pt x="289" y="595" on="0"/>
        <pt x="263" y="549" on="0"/>
        <pt x="227" y="527" on="0"/>
        <pt x="216" y="526" on="1"/>
        <pt x="236" y="521" on="0"/>
        <pt x="273" y="498" on="0"/>
        <pt x="301" y="451" on="0"/>
        <pt x="301" y="422" on="1"/>
        <pt x="301" y="391" on="0"/>
        <pt x="268" y="340" on="0"/>
        <pt x="209" y="313" on="0"/>
      </contour>
      <contour>
        <pt x="172" y="324" on="1"/>
        <pt x="206" y="324" on="0"/>
        <pt x="261" y="349" on="0"/>
        <pt x="290" y="394" on="0"/>
        <pt x="290" y="422" on="1"/>
        <pt x="290" y="450" on="0"/>
        <pt x="261" y="496" on="0"/>
        <pt x="206" y="520" on="0"/>
        <pt x="172" y="520" on="1"/>
        <pt x="139" y="520" on="0"/>
        <pt x="83" y="496" on="0"/>
        <pt x="54" y="450" on="0"/>
        <pt x="54" y="422" on="1"/>
        <pt x="54" y="394" on="0"/>
        <pt x="81" y="352" on="0"/>
        <pt x="139" y="324" on="0"/>
      </contour>
      <contour>
        <pt x="172" y="531" on="1"/>
        <pt x="206" y="531" on="0"/>
        <pt x="255" y="556" on="0"/>
        <pt x="278" y="597" on="0"/>
        <pt x="278" y="623" on="1"/>
        <pt x="278" y="651" on="0"/>
        <pt x="252" y="691" on="0"/>
        <pt x="206" y="716" on="0"/>
        <pt x="172" y="716" on="1"/>
        <pt x="139" y="716" on="0"/>
        <pt x="92" y="691" on="0"/>
        <pt x="67" y="651" on="0"/>
        <pt x="67" y="623" on="1"/>
        <pt x="67" y="597" on="0"/>
        <pt x="90" y="556" on="0"/>
        <pt x="139" y="531" on="0"/>
      </contour>
    </TTGlyph>
    <TTGlyph name="eight.osf" xMin="78" yMin="-12" xMax="542" yMax="732">
      <component glyphName="eight" x="0" y="0" flags="0x204"/>
    </TTGlyph>
    <TTGlyph name="eight.small" xMin="48" yMin="-7" xMax="332" yMax="448">
      <contour>
        <pt x="190" y="-7" on="1"/>
        <pt x="149" y="-7" on="0"/>
        <pt x="81" y="25" on="0"/>
        <pt x="48" y="78" on="0"/>
        <pt x="48" y="113" on="1"/>
        <pt x="48" y="144" on="0"/>
        <pt x="78" y="196" on="0"/>
        <pt x="120" y="222" on="0"/>
        <pt x="142" y="226" on="1"/>
        <pt x="130" y="228" on="0"/>
        <pt x="89" y="252" on="0"/>
        <pt x="61" y="299" on="0"/>
        <pt x="61" y="334" on="1"/>
        <pt x="61" y="368" on="0"/>
        <pt x="93" y="419" on="0"/>
        <pt x="149" y="448" on="0"/>
        <pt x="190" y="448" on="1"/>
        <pt x="230" y="448" on="0"/>
        <pt x="286" y="419" on="0"/>
        <pt x="318" y="368" on="0"/>
        <pt x="318" y="334" on="1"/>
        <pt x="318" y="302" on="0"/>
        <pt x="290" y="252" on="0"/>
        <pt x="250" y="228" on="0"/>
        <pt x="237" y="226" on="1"/>
        <pt x="259" y="222" on="0"/>
        <pt x="301" y="196" on="0"/>
        <pt x="332" y="144" on="0"/>
        <pt x="332" y="113" on="1"/>
        <pt x="332" y="78" on="0"/>
        <pt x="296" y="22" on="0"/>
        <pt x="230" y="-7" on="0"/>
      </contour>
      <contour>
        <pt x="190" y="5" on="1"/>
        <pt x="226" y="5" on="0"/>
        <pt x="287" y="32" on="0"/>
        <pt x="319" y="82" on="0"/>
        <pt x="319" y="113" on="1"/>
        <pt x="319" y="143" on="0"/>
        <pt x="288" y="193" on="0"/>
        <pt x="226" y="220" on="0"/>
        <pt x="190" y="220" on="1"/>
        <pt x="153" y="220" on="0"/>
        <pt x="92" y="193" on="0"/>
        <pt x="60" y="143" on="0"/>
        <pt x="60" y="113" on="1"/>
        <pt x="60" y="82" on="0"/>
        <pt x="89" y="35" on="0"/>
        <pt x="153" y="5" on="0"/>
      </contour>
      <contour>
        <pt x="190" y="233" on="1"/>
        <pt x="226" y="233" on="0"/>
        <pt x="280" y="259" on="0"/>
        <pt x="306" y="305" on="0"/>
        <pt x="306" y="334" on="1"/>
        <pt x="306" y="365" on="0"/>
        <pt x="278" y="409" on="0"/>
        <pt x="226" y="436" on="0"/>
        <pt x="190" y="436" on="1"/>
        <pt x="153" y="436" on="0"/>
        <pt x="102" y="409" on="0"/>
        <pt x="73" y="365" on="0"/>
        <pt x="73" y="334" on="1"/>
        <pt x="73" y="305" on="0"/>
        <pt x="99" y="259" on="0"/>
        <pt x="153" y="233" on="0"/>
      </contour>
    </TTGlyph>
    <TTGlyph name="ellipsis" xMin="130" yMin="-6" xMax="610" yMax="54">
      <contour>
        <pt x="580" y="-6" on="1"/>
        <pt x="567" y="-6" on="0"/>
        <pt x="550" y="11" on="0"/>
        <pt x="550" y="24" on="1"/>
        <pt x="550" y="24" on="1"/>
        <pt x="550" y="37" on="0"/>
        <pt x="567" y="54" on="0"/>
        <pt x="580" y="54" on="1"/>
        <pt x="593" y="54" on="0"/>
        <pt x="610" y="37" on="0"/>
        <pt x="610" y="24" on="1"/>
        <pt x="610" y="24" on="1"/>
        <pt x="610" y="11" on="0"/>
        <pt x="593" y="-6" on="0"/>
      </contour>
      <contour>
        <pt x="160" y="-6" on="1"/>
        <pt x="147" y="-6" on="0"/>
        <pt x="130" y="11" on="0"/>
        <pt x="130" y="24" on="1"/>
        <pt x="130" y="24" on="1"/>
        <pt x="130" y="37" on="0"/>
        <pt x="147" y="54" on="0"/>
        <pt x="160" y="54" on="1"/>
        <pt x="173" y="54" on="0"/>
        <pt x="190" y="37" on="0"/>
        <pt x="190" y="24" on="1"/>
        <pt x="190" y="24" on="1"/>
        <pt x="190" y="11" on="0"/>
        <pt x="173" y="-6" on="0"/>
      </contour>
      <contour>
        <pt x="370" y="-6" on="1"/>
        <pt x="357" y="-6" on="0"/>
        <pt x="340" y="11" on="0"/>
        <pt x="340" y="24" on="1"/>
        <pt x="340" y="24" on="1"/>
        <pt x="340" y="37" on="0"/>
        <pt x="357" y="54" on="0"/>
        <pt x="370" y="54" on="1"/>
        <pt x="383" y="54" on="0"/>
        <pt x="400" y="37" on="0"/>
        <pt x="400" y="24" on="1"/>
        <pt x="400" y="24" on="1"/>
        <pt x="400" y="11" on="0"/>
        <pt x="383" y="-6" on="0"/>
      </contour>
    </TTGlyph>
    <TTGlyph name="emacron" xMin="68" yMin="-12" xMax="462" yMax="640">
      <component glyphName="e" x="0" y="0" flags="0x204"/>
      <component glyphName="uni0304" x="72" y="0" flags="0x4"/>
    </TTGlyph>
    <TTGlyph name="emdash" xMin="90" yMin="250" xMax="890" yMax="270">
      <contour>
        <pt x="90" y="250" on="1"/>
        <pt x="90" y="270" on="1"/>
        <pt x="890" y="270" on="1"/>
        <pt x="890" y="250" on="1"/>
      </contour>
    </TTGlyph>
    <TTGlyph name="emdash.case" xMin="90" yMin="310" xMax="890" yMax="330">
      <component glyphName="emdash" x="0" y="60" flags="0x204"/>
    </TTGlyph>
    <TTGlyph name="endash" xMin="90" yMin="250" xMax="530" yMax="270">
      <contour>
        <pt x="90" y="250" on="1"/>
        <pt x="90" y="270" on="1"/>
        <pt x="530" y="270" on="1"/>
        <pt x="530" y="250" on="1"/>
      </contour>
    </TTGlyph>
    <TTGlyph name="endash.case" xMin="90" yMin="310" xMax="530" yMax="330">
      <component glyphName="endash" x="0" y="60" flags="0x204"/>
    </TTGlyph>
    <TTGlyph name="eng" xMin="100" yMin="-160" xMax="462" yMax="512">
      <component glyphName="n" x="0" y="0" flags="0x204"/>
      <component glyphName="hook2" x="242" y="0" flags="0x4"/>
    </TTGlyph>
    <TTGlyph name="eogonek" xMin="68" yMin="-200" xMax="462" yMax="512">
      <component glyphName="e" x="0" y="0" flags="0x204"/>
      <component glyphName="uni0328" x="150" y="0" flags="0x4"/>
    </TTGlyph>
    <TTGlyph name="equal" xMin="80" yMin="190" xMax="520" yMax="450">
      <component glyphName="minus" x="0" y="120" flags="0x204"/>
      <component glyphName="minus" x="0" y="-120" flags="0x4"/>
    </TTGlyph>
    <TTGlyph name="equal.small" xMin="49" yMin="116" xMax="318" yMax="275">
      <contour>
        <pt x="49" y="263" on="1"/>
        <pt x="49" y="275" on="1"/>
        <pt x="318" y="275" on="1"/>
        <pt x="318" y="263" on="1"/>
      </contour>
      <contour>
        <pt x="49" y="116" on="1"/>
        <pt x="49" y="129" on="1"/>
        <pt x="318" y="129" on="1"/>
        <pt x="318" y="116" on="1"/>
      </contour>
    </TTGlyph>
    <TTGlyph name="equivalence" xMin="80" yMin="150" xMax="520" yMax="570">
      <component glyphName="minus" x="0" y="-160" flags="0x204"/>
      <component glyphName="minus" x="0" y="40" flags="0x4"/>
      <component glyphName="minus" x="0" y="240" flags="0x4"/>
    </TTGlyph>
    <TTGlyph name="estimated" xMin="60" yMin="-10" xMax="800" yMax="730">
      <contour>
        <pt x="437" y="160" on="1"/>
        <pt x="378" y="160" on="0"/>
        <pt x="285" y="211" on="0"/>
        <pt x="233" y="302" on="0"/>
        <pt x="233" y="360" on="1"/>
        <pt x="233" y="417" on="0"/>
        <pt x="284" y="508" on="0"/>
        <pt x="376" y="560" on="0"/>
        <pt x="430" y="560" on="1"/>
        <pt x="484" y="560" on="0"/>
        <pt x="576" y="508" on="0"/>
        <pt x="627" y="417" on="0"/>
        <pt x="627" y="360" on="1"/>
        <pt x="627" y="356" on="1"/>
        <pt x="286" y="356" on="1"/>
        <pt x="286" y="253" on="1"/>
        <pt x="305" y="219" on="0"/>
        <pt x="385" y="179" on="0"/>
        <pt x="437" y="179" on="1"/>
        <pt x="489" y="179" on="0"/>
        <pt x="577" y="234" on="0"/>
        <pt x="595" y="284" on="1"/>
        <pt x="618" y="284" on="1"/>
        <pt x="598" y="226" on="0"/>
        <pt x="500" y="160" on="0"/>
      </contour>
      <contour>
        <pt x="286" y="375" on="1"/>
        <pt x="574" y="375" on="1"/>
        <pt x="574" y="470" on="1"/>
        <pt x="554" y="500" on="0"/>
        <pt x="480" y="541" on="0"/>
        <pt x="430" y="541" on="1"/>
        <pt x="380" y="541" on="0"/>
        <pt x="306" y="500" on="0"/>
        <pt x="286" y="470" on="1"/>
      </contour>
      <contour>
        <pt x="430" y="-10" on="1"/>
        <pt x="325" y="-10" on="0"/>
        <pt x="156" y="85" on="0"/>
        <pt x="108" y="170" on="1"/>
        <pt x="60" y="254" on="0"/>
        <pt x="60" y="360" on="1"/>
        <pt x="60" y="465" on="0"/>
        <pt x="155" y="634" on="0"/>
        <pt x="240" y="682" on="1"/>
        <pt x="324" y="730" on="0"/>
        <pt x="430" y="730" on="1"/>
        <pt x="535" y="730" on="0"/>
        <pt x="704" y="635" on="0"/>
        <pt x="752" y="550" on="1"/>
        <pt x="800" y="466" on="0"/>
        <pt x="800" y="360" on="1"/>
        <pt x="800" y="255" on="0"/>
        <pt x="705" y="86" on="0"/>
        <pt x="620" y="38" on="1"/>
        <pt x="536" y="-10" on="0"/>
      </contour>
      <contour>
        <pt x="430" y="9" on="1"/>
        <pt x="529" y="9" on="0"/>
        <pt x="690" y="99" on="0"/>
        <pt x="736" y="180" on="1"/>
        <pt x="781" y="260" on="0"/>
        <pt x="781" y="360" on="1"/>
        <pt x="781" y="459" on="0"/>
        <pt x="691" y="620" on="0"/>
        <pt x="610" y="666" on="1"/>
        <pt x="530" y="711" on="0"/>
        <pt x="430" y="711" on="1"/>
        <pt x="331" y="711" on="0"/>
        <pt x="170" y="621" on="0"/>
        <pt x="125" y="540" on="1"/>
        <pt x="79" y="460" on="0"/>
        <pt x="79" y="360" on="1"/>
        <pt x="79" y="261" on="0"/>
        <pt x="169" y="100" on="0"/>
        <pt x="250" y="55" on="1"/>
        <pt x="330" y="9" on="0"/>
      </contour>
    </TTGlyph>
    <TTGlyph name="eth" xMin="68" yMin="-12" xMax="492" yMax="746">
      <contour>
        <pt x="190" y="540" on="1"/>
        <pt x="388" y="746" on="1"/>
        <pt x="416" y="746" on="1"/>
        <pt x="218" y="540" on="1"/>
      </contour>
      <contour>
        <pt x="280" y="-12" on="1"/>
        <pt x="216" y="-12" on="0"/>
        <pt x="121" y="46" on="0"/>
        <pt x="68" y="154" on="0"/>
        <pt x="68" y="240" on="1"/>
        <pt x="68" y="326" on="0"/>
        <pt x="121" y="438" on="0"/>
        <pt x="216" y="492" on="0"/>
        <pt x="280" y="492" on="1"/>
        <pt x="344" y="492" on="0"/>
        <pt x="426" y="445" on="0"/>
        <pt x="466" y="388" on="0"/>
        <pt x="469" y="370" on="1"/>
        <pt x="457" y="511" on="0"/>
        <pt x="396" y="639" on="0"/>
        <pt x="282" y="705" on="0"/>
        <pt x="180" y="705" on="1"/>
        <pt x="138" y="705" on="0"/>
        <pt x="87" y="700" on="1"/>
        <pt x="87" y="720" on="1"/>
        <pt x="138" y="726" on="0"/>
        <pt x="181" y="726" on="1"/>
        <pt x="287" y="726" on="0"/>
        <pt x="415" y="652" on="0"/>
        <pt x="476" y="514" on="0"/>
        <pt x="492" y="328" on="0"/>
        <pt x="492" y="240" on="1"/>
        <pt x="492" y="154" on="0"/>
        <pt x="439" y="46" on="0"/>
        <pt x="344" y="-12" on="0"/>
      </contour>
      <contour>
        <pt x="280" y="8" on="1"/>
        <pt x="340" y="8" on="0"/>
        <pt x="424" y="62" on="0"/>
        <pt x="472" y="158" on="0"/>
        <pt x="472" y="240" on="1"/>
        <pt x="472" y="322" on="0"/>
        <pt x="424" y="422" on="0"/>
        <pt x="340" y="472" on="0"/>
        <pt x="280" y="472" on="1"/>
        <pt x="220" y="472" on="0"/>
        <pt x="136" y="422" on="0"/>
        <pt x="88" y="322" on="0"/>
        <pt x="88" y="240" on="1"/>
        <pt x="88" y="158" on="0"/>
        <pt x="136" y="62" on="0"/>
        <pt x="220" y="8" on="0"/>
      </contour>
    </TTGlyph>
    <TTGlyph name="exclam" xMin="130" yMin="-6" xMax="190" yMax="720">
      <contour>
        <pt x="150" y="160" on="1"/>
        <pt x="150" y="240" on="1"/>
        <pt x="150" y="720" on="1"/>
        <pt x="170" y="720" on="1"/>
        <pt x="170" y="240" on="1"/>
        <pt x="170" y="160" on="1"/>
      </contour>
      <contour>
        <pt x="160" y="-6" on="1"/>
        <pt x="147" y="-6" on="0"/>
        <pt x="130" y="11" on="0"/>
        <pt x="130" y="24" on="1"/>
        <pt x="130" y="37" on="0"/>
        <pt x="147" y="54" on="0"/>
        <pt x="160" y="54" on="1"/>
        <pt x="173" y="54" on="0"/>
        <pt x="190" y="37" on="0"/>
        <pt x="190" y="24" on="1"/>
        <pt x="190" y="11" on="0"/>
        <pt x="173" y="-6" on="0"/>
      </contour>
    </TTGlyph>
    <TTGlyph name="exclamdbl" xMin="130" yMin="-6" xMax="510" yMax="720">
      <component glyphName="exclam" x="0" y="0" flags="0x4"/>
      <component glyphName="exclam" x="320" y="0" flags="0x4"/>
    </TTGlyph>
    <TTGlyph name="exclamdown" xMin="130" yMin="-220" xMax="190" yMax="506">
      <contour>
        <pt x="150" y="340" on="1"/>
        <pt x="170" y="340" on="1"/>
        <pt x="170" y="260" on="1"/>
        <pt x="170" y="-220" on="1"/>
        <pt x="150" y="-220" on="1"/>
        <pt x="150" y="260" on="1"/>
      </contour>
      <contour>
        <pt x="160" y="506" on="1"/>
        <pt x="173" y="506" on="0"/>
        <pt x="190" y="489" on="0"/>
        <pt x="190" y="476" on="1"/>
        <pt x="190" y="463" on="0"/>
        <pt x="173" y="446" on="0"/>
        <pt x="160" y="446" on="1"/>
        <pt x="147" y="446" on="0"/>
        <pt x="130" y="463" on="0"/>
        <pt x="130" y="476" on="1"/>
        <pt x="130" y="489" on="0"/>
        <pt x="147" y="506" on="0"/>
      </contour>
    </TTGlyph>
    <TTGlyph name="f" xMin="40" yMin="0" xMax="306" yMax="720">
      <contour>
        <pt x="150" y="0" on="1"/>
        <pt x="150" y="600" on="1"/>
        <pt x="150" y="665" on="0"/>
        <pt x="213" y="720" on="0"/>
        <pt x="284" y="720" on="1"/>
        <pt x="306" y="720" on="1"/>
        <pt x="306" y="700" on="1"/>
        <pt x="284" y="700" on="1"/>
        <pt x="221" y="700" on="0"/>
        <pt x="170" y="653" on="0"/>
        <pt x="170" y="594" on="1"/>
        <pt x="170" y="0" on="1"/>
      </contour>
      <contour>
        <pt x="40" y="480" on="1"/>
        <pt x="40" y="500" on="1"/>
        <pt x="306" y="500" on="1"/>
        <pt x="306" y="480" on="1"/>
      </contour>
    </TTGlyph>
    <TTGlyph name="f.small" xMin="24" yMin="0" xMax="187" yMax="441">
      <contour>
        <pt x="92" y="0" on="1"/>
        <pt x="92" y="367" on="1"/>
        <pt x="92" y="407" on="0"/>
        <pt x="130" y="441" on="0"/>
        <pt x="174" y="441" on="1"/>
        <pt x="187" y="441" on="1"/>
        <pt x="187" y="428" on="1"/>
        <pt x="174" y="428" on="1"/>
        <pt x="135" y="428" on="0"/>
        <pt x="104" y="400" on="0"/>
        <pt x="104" y="364" on="1"/>
        <pt x="104" y="0" on="1"/>
      </contour>
      <contour>
        <pt x="24" y="294" on="1"/>
        <pt x="24" y="306" on="1"/>
        <pt x="187" y="306" on="1"/>
        <pt x="187" y="294" on="1"/>
      </contour>
    </TTGlyph>
    <TTGlyph name="f.sub" xMin="24" yMin="-80" xMax="187" yMax="361">
      <component glyphName="f.small" x="0" y="-80" flags="0x204"/>
    </TTGlyph>
    <TTGlyph name="f.superior" xMin="24" yMin="414" xMax="187" yMax="855">
      <component glyphName="f.small" x="0" y="414" flags="0x204"/>
    </TTGlyph>
    <TTGlyph name="f_f" xMin="40" yMin="0" xMax="646" yMax="720">
      <contour>
        <pt x="150" y="0" on="1"/>
        <pt x="150" y="480" on="1"/>
        <pt x="40" y="480" on="1"/>
        <pt x="40" y="500" on="1"/>
        <pt x="150" y="500" on="1"/>
        <pt x="150" y="600" on="1"/>
        <pt x="150" y="665" on="0"/>
        <pt x="213" y="720" on="0"/>
        <pt x="284" y="720" on="1"/>
        <pt x="306" y="720" on="1"/>
        <pt x="306" y="700" on="1"/>
        <pt x="284" y="700" on="1"/>
        <pt x="221" y="700" on="0"/>
        <pt x="170" y="653" on="0"/>
        <pt x="170" y="594" on="1"/>
        <pt x="170" y="500" on="1"/>
        <pt x="490" y="500" on="1"/>
        <pt x="490" y="600" on="1"/>
        <pt x="490" y="665" on="0"/>
        <pt x="553" y="720" on="0"/>
        <pt x="624" y="720" on="1"/>
        <pt x="646" y="720" on="1"/>
        <pt x="646" y="700" on="1"/>
        <pt x="624" y="700" on="1"/>
        <pt x="561" y="700" on="0"/>
        <pt x="510" y="653" on="0"/>
        <pt x="510" y="594" on="1"/>
        <pt x="510" y="500" on="1"/>
        <pt x="646" y="500" on="1"/>
        <pt x="646" y="480" on="1"/>
        <pt x="510" y="480" on="1"/>
        <pt x="510" y="0" on="1"/>
        <pt x="490" y="0" on="1"/>
        <pt x="490" y="480" on="1"/>
        <pt x="170" y="480" on="1"/>
        <pt x="170" y="0" on="1"/>
      </contour>
    </TTGlyph>
    <TTGlyph name="f_f_i" xMin="40" yMin="0" xMax="858" yMax="720">
      <contour>
        <pt x="158" y="0" on="1"/>
        <pt x="158" y="480" on="1"/>
        <pt x="40" y="480" on="1"/>
        <pt x="40" y="500" on="1"/>
        <pt x="158" y="500" on="1"/>
        <pt x="158" y="600" on="1"/>
        <pt x="158" y="665" on="0"/>
        <pt x="221" y="720" on="0"/>
        <pt x="292" y="720" on="1"/>
        <pt x="314" y="720" on="1"/>
        <pt x="314" y="700" on="1"/>
        <pt x="292" y="700" on="1"/>
        <pt x="229" y="700" on="0"/>
        <pt x="178" y="653" on="0"/>
        <pt x="178" y="594" on="1"/>
        <pt x="178" y="500" on="1"/>
        <pt x="498" y="500" on="1"/>
        <pt x="498" y="600" on="1"/>
        <pt x="498" y="665" on="0"/>
        <pt x="561" y="720" on="0"/>
        <pt x="632" y="720" on="1"/>
        <pt x="754" y="720" on="1"/>
        <pt x="754" y="700" on="1"/>
        <pt x="632" y="700" on="1"/>
        <pt x="569" y="700" on="0"/>
        <pt x="518" y="653" on="0"/>
        <pt x="518" y="594" on="1"/>
        <pt x="518" y="500" on="1"/>
        <pt x="858" y="500" on="1"/>
        <pt x="858" y="0" on="1"/>
        <pt x="838" y="0" on="1"/>
        <pt x="838" y="480" on="1"/>
        <pt x="518" y="480" on="1"/>
        <pt x="518" y="0" on="1"/>
        <pt x="498" y="0" on="1"/>
        <pt x="498" y="480" on="1"/>
        <pt x="178" y="480" on="1"/>
        <pt x="178" y="0" on="1"/>
      </contour>
    </TTGlyph>
    <TTGlyph name="f_f_j" xMin="40" yMin="-200" xMax="858" yMax="720">
      <contour>
        <pt x="736" y="-200" on="1"/>
        <pt x="736" y="-180" on="1"/>
        <pt x="744" y="-180" on="1"/>
        <pt x="793" y="-180" on="0"/>
        <pt x="838" y="-131" on="0"/>
        <pt x="838" y="-74" on="1"/>
        <pt x="838" y="480" on="1"/>
        <pt x="518" y="480" on="1"/>
        <pt x="518" y="0" on="1"/>
        <pt x="498" y="0" on="1"/>
        <pt x="498" y="480" on="1"/>
        <pt x="178" y="480" on="1"/>
        <pt x="178" y="0" on="1"/>
        <pt x="158" y="0" on="1"/>
        <pt x="158" y="480" on="1"/>
        <pt x="40" y="480" on="1"/>
        <pt x="40" y="500" on="1"/>
        <pt x="158" y="500" on="1"/>
        <pt x="158" y="600" on="1"/>
        <pt x="158" y="665" on="0"/>
        <pt x="221" y="720" on="0"/>
        <pt x="292" y="720" on="1"/>
        <pt x="314" y="720" on="1"/>
        <pt x="314" y="700" on="1"/>
        <pt x="292" y="700" on="1"/>
        <pt x="229" y="700" on="0"/>
        <pt x="178" y="653" on="0"/>
        <pt x="178" y="594" on="1"/>
        <pt x="178" y="500" on="1"/>
        <pt x="498" y="500" on="1"/>
        <pt x="498" y="600" on="1"/>
        <pt x="498" y="665" on="0"/>
        <pt x="561" y="720" on="0"/>
        <pt x="632" y="720" on="1"/>
        <pt x="754" y="720" on="1"/>
        <pt x="754" y="700" on="1"/>
        <pt x="632" y="700" on="1"/>
        <pt x="569" y="700" on="0"/>
        <pt x="518" y="653" on="0"/>
        <pt x="518" y="594" on="1"/>
        <pt x="518" y="500" on="1"/>
        <pt x="858" y="500" on="1"/>
        <pt x="858" y="-80" on="1"/>
        <pt x="858" y="-143" on="0"/>
        <pt x="802" y="-200" on="0"/>
        <pt x="744" y="-200" on="1"/>
      </contour>
    </TTGlyph>
    <TTGlyph name="f_f_l" xMin="40" yMin="0" xMax="859" yMax="720">
      <contour>
        <pt x="158" y="0" on="1"/>
        <pt x="158" y="480" on="1"/>
        <pt x="40" y="480" on="1"/>
        <pt x="40" y="500" on="1"/>
        <pt x="158" y="500" on="1"/>
        <pt x="158" y="600" on="1"/>
        <pt x="158" y="665" on="0"/>
        <pt x="221" y="720" on="0"/>
        <pt x="292" y="720" on="1"/>
        <pt x="314" y="720" on="1"/>
        <pt x="314" y="700" on="1"/>
        <pt x="292" y="700" on="1"/>
        <pt x="229" y="700" on="0"/>
        <pt x="178" y="653" on="0"/>
        <pt x="178" y="594" on="1"/>
        <pt x="178" y="500" on="1"/>
        <pt x="498" y="500" on="1"/>
        <pt x="498" y="600" on="1"/>
        <pt x="498" y="665" on="0"/>
        <pt x="561" y="720" on="0"/>
        <pt x="632" y="720" on="1"/>
        <pt x="859" y="720" on="1"/>
        <pt x="859" y="0" on="1"/>
        <pt x="839" y="0" on="1"/>
        <pt x="839" y="700" on="1"/>
        <pt x="632" y="700" on="1"/>
        <pt x="569" y="700" on="0"/>
        <pt x="518" y="653" on="0"/>
        <pt x="518" y="594" on="1"/>
        <pt x="518" y="500" on="1"/>
        <pt x="754" y="500" on="1"/>
        <pt x="754" y="480" on="1"/>
        <pt x="518" y="480" on="1"/>
        <pt x="518" y="0" on="1"/>
        <pt x="498" y="0" on="1"/>
        <pt x="498" y="480" on="1"/>
        <pt x="178" y="480" on="1"/>
        <pt x="178" y="0" on="1"/>
      </contour>
    </TTGlyph>
    <TTGlyph name="f_j" xMin="40" yMin="-200" xMax="518" yMax="720">
      <contour>
        <pt x="396" y="-200" on="1"/>
        <pt x="396" y="-180" on="1"/>
        <pt x="404" y="-180" on="1"/>
        <pt x="453" y="-180" on="0"/>
        <pt x="498" y="-131" on="0"/>
        <pt x="498" y="-74" on="1"/>
        <pt x="498" y="480" on="1"/>
        <pt x="178" y="480" on="1"/>
        <pt x="178" y="0" on="1"/>
        <pt x="158" y="0" on="1"/>
        <pt x="158" y="480" on="1"/>
        <pt x="40" y="480" on="1"/>
        <pt x="40" y="500" on="1"/>
        <pt x="158" y="500" on="1"/>
        <pt x="158" y="600" on="1"/>
        <pt x="158" y="665" on="0"/>
        <pt x="221" y="720" on="0"/>
        <pt x="292" y="720" on="1"/>
        <pt x="414" y="720" on="1"/>
        <pt x="414" y="700" on="1"/>
        <pt x="292" y="700" on="1"/>
        <pt x="229" y="700" on="0"/>
        <pt x="178" y="653" on="0"/>
        <pt x="178" y="594" on="1"/>
        <pt x="178" y="500" on="1"/>
        <pt x="518" y="500" on="1"/>
        <pt x="518" y="-80" on="1"/>
        <pt x="518" y="-143" on="0"/>
        <pt x="463" y="-200" on="0"/>
        <pt x="404" y="-200" on="1"/>
      </contour>
    </TTGlyph>
    <TTGlyph name="f_t" xMin="40" yMin="0" xMax="646" yMax="720">
      <contour>
        <pt x="146" y="0" on="1"/>
        <pt x="146" y="480" on="1"/>
        <pt x="40" y="480" on="1"/>
        <pt x="40" y="500" on="1"/>
        <pt x="146" y="500" on="1"/>
        <pt x="146" y="600" on="1"/>
        <pt x="146" y="665" on="0"/>
        <pt x="209" y="720" on="0"/>
        <pt x="280" y="720" on="1"/>
        <pt x="302" y="720" on="1"/>
        <pt x="302" y="700" on="1"/>
        <pt x="280" y="700" on="1"/>
        <pt x="217" y="700" on="0"/>
        <pt x="166" y="653" on="0"/>
        <pt x="166" y="594" on="1"/>
        <pt x="166" y="500" on="1"/>
        <pt x="486" y="500" on="1"/>
        <pt x="486" y="620" on="1"/>
        <pt x="506" y="620" on="1"/>
        <pt x="506" y="500" on="1"/>
        <pt x="646" y="500" on="1"/>
        <pt x="646" y="480" on="1"/>
        <pt x="506" y="480" on="1"/>
        <pt x="506" y="90" on="1"/>
        <pt x="506" y="54" on="0"/>
        <pt x="548" y="20" on="0"/>
        <pt x="580" y="20" on="1"/>
        <pt x="646" y="20" on="1"/>
        <pt x="646" y="0" on="1"/>
        <pt x="580" y="0" on="1"/>
        <pt x="537" y="0" on="0"/>
        <pt x="486" y="44" on="0"/>
        <pt x="486" y="84" on="1"/>
        <pt x="486" y="480" on="1"/>
        <pt x="166" y="480" on="1"/>
        <pt x="166" y="0" on="1"/>
      </contour>
    </TTGlyph>
    <TTGlyph name="fi" xMin="40" yMin="0" xMax="518" yMax="720">
      <contour>
        <pt x="158" y="0" on="1"/>
        <pt x="158" y="480" on="1"/>
        <pt x="40" y="480" on="1"/>
        <pt x="40" y="500" on="1"/>
        <pt x="158" y="500" on="1"/>
        <pt x="158" y="600" on="1"/>
        <pt x="158" y="665" on="0"/>
        <pt x="221" y="720" on="0"/>
        <pt x="292" y="720" on="1"/>
        <pt x="414" y="720" on="1"/>
        <pt x="414" y="700" on="1"/>
        <pt x="292" y="700" on="1"/>
        <pt x="229" y="700" on="0"/>
        <pt x="178" y="653" on="0"/>
        <pt x="178" y="594" on="1"/>
        <pt x="178" y="500" on="1"/>
        <pt x="518" y="500" on="1"/>
        <pt x="518" y="0" on="1"/>
        <pt x="498" y="0" on="1"/>
        <pt x="498" y="480" on="1"/>
        <pt x="178" y="480" on="1"/>
        <pt x="178" y="0" on="1"/>
      </contour>
    </TTGlyph>
    <TTGlyph name="figuredash" xMin="50" yMin="350" xMax="550" yMax="370">
      <contour>
        <pt x="50" y="350" on="1"/>
        <pt x="50" y="370" on="1"/>
        <pt x="550" y="370" on="1"/>
        <pt x="550" y="350" on="1"/>
      </contour>
    </TTGlyph>
    <TTGlyph name="filledbox" xMin="100" yMin="0" xMax="820" yMax="720">
      <contour>
        <pt x="100" y="0" on="1"/>
        <pt x="100" y="720" on="1"/>
        <pt x="820" y="720" on="1"/>
        <pt x="820" y="0" on="1"/>
      </contour>
    </TTGlyph>
    <TTGlyph name="five" xMin="88" yMin="-8" xMax="522" yMax="720">
      <contour>
        <pt x="303" y="-8" on="1"/>
        <pt x="241" y="-8" on="0"/>
        <pt x="148" y="31" on="0"/>
        <pt x="88" y="114" on="0"/>
        <pt x="88" y="170" on="1"/>
        <pt x="108" y="170" on="1"/>
        <pt x="108" y="120" on="0"/>
        <pt x="162" y="47" on="0"/>
        <pt x="247" y="12" on="0"/>
        <pt x="303" y="12" on="1"/>
        <pt x="365" y="12" on="0"/>
        <pt x="451" y="64" on="0"/>
        <pt x="502" y="161" on="0"/>
        <pt x="502" y="231" on="1"/>
        <pt x="502" y="303" on="0"/>
        <pt x="443" y="401" on="0"/>
        <pt x="353" y="442" on="0"/>
        <pt x="303" y="442" on="1"/>
        <pt x="261" y="442" on="0"/>
        <pt x="193" y="415" on="0"/>
        <pt x="140" y="366" on="0"/>
        <pt x="124" y="334" on="1"/>
        <pt x="103" y="334" on="1"/>
        <pt x="126" y="720" on="1"/>
        <pt x="494" y="720" on="1"/>
        <pt x="494" y="700" on="1"/>
        <pt x="146" y="700" on="1"/>
        <pt x="126" y="370" on="1"/>
        <pt x="138" y="390" on="0"/>
        <pt x="181" y="431" on="0"/>
        <pt x="255" y="462" on="0"/>
        <pt x="303" y="462" on="1"/>
        <pt x="356" y="462" on="0"/>
        <pt x="457" y="417" on="0"/>
        <pt x="522" y="309" on="0"/>
        <pt x="522" y="231" on="1"/>
        <pt x="522" y="155" on="0"/>
        <pt x="465" y="48" on="0"/>
        <pt x="371" y="-8" on="0"/>
      </contour>
    </TTGlyph>
    <TTGlyph name="five.dnom" xMin="49" yMin="-4" xMax="290" yMax="400">
      <contour>
        <pt x="168" y="-4" on="1"/>
        <pt x="134" y="-4" on="0"/>
        <pt x="82" y="17" on="0"/>
        <pt x="49" y="63" on="0"/>
        <pt x="49" y="94" on="1"/>
        <pt x="60" y="94" on="1"/>
        <pt x="60" y="67" on="0"/>
        <pt x="90" y="26" on="0"/>
        <pt x="137" y="7" on="0"/>
        <pt x="168" y="7" on="1"/>
        <pt x="203" y="7" on="0"/>
        <pt x="251" y="36" on="0"/>
        <pt x="279" y="89" on="0"/>
        <pt x="279" y="128" on="1"/>
        <pt x="279" y="168" on="0"/>
        <pt x="246" y="223" on="0"/>
        <pt x="196" y="246" on="0"/>
        <pt x="168" y="246" on="1"/>
        <pt x="145" y="246" on="0"/>
        <pt x="107" y="231" on="0"/>
        <pt x="78" y="203" on="0"/>
        <pt x="69" y="186" on="1"/>
        <pt x="57" y="186" on="1"/>
        <pt x="70" y="400" on="1"/>
        <pt x="275" y="400" on="1"/>
        <pt x="275" y="389" on="1"/>
        <pt x="81" y="389" on="1"/>
        <pt x="70" y="206" on="1"/>
        <pt x="77" y="217" on="0"/>
        <pt x="101" y="240" on="0"/>
        <pt x="142" y="257" on="0"/>
        <pt x="168" y="257" on="1"/>
        <pt x="198" y="257" on="0"/>
        <pt x="254" y="232" on="0"/>
        <pt x="290" y="172" on="0"/>
        <pt x="290" y="128" on="1"/>
        <pt x="290" y="86" on="0"/>
        <pt x="258" y="27" on="0"/>
        <pt x="206" y="-4" on="0"/>
      </contour>
    </TTGlyph>
    <TTGlyph name="five.numr" xMin="49" yMin="316" xMax="290" yMax="720">
      <contour>
        <pt x="168" y="316" on="1"/>
        <pt x="134" y="316" on="0"/>
        <pt x="82" y="337" on="0"/>
        <pt x="49" y="383" on="0"/>
        <pt x="49" y="414" on="1"/>
        <pt x="60" y="414" on="1"/>
        <pt x="60" y="387" on="0"/>
        <pt x="90" y="346" on="0"/>
        <pt x="137" y="327" on="0"/>
        <pt x="168" y="327" on="1"/>
        <pt x="203" y="327" on="0"/>
        <pt x="251" y="356" on="0"/>
        <pt x="279" y="409" on="0"/>
        <pt x="279" y="448" on="1"/>
        <pt x="279" y="488" on="0"/>
        <pt x="246" y="543" on="0"/>
        <pt x="196" y="566" on="0"/>
        <pt x="168" y="566" on="1"/>
        <pt x="145" y="566" on="0"/>
        <pt x="107" y="551" on="0"/>
        <pt x="78" y="523" on="0"/>
        <pt x="69" y="506" on="1"/>
        <pt x="57" y="506" on="1"/>
        <pt x="70" y="720" on="1"/>
        <pt x="275" y="720" on="1"/>
        <pt x="275" y="709" on="1"/>
        <pt x="81" y="709" on="1"/>
        <pt x="70" y="526" on="1"/>
        <pt x="77" y="537" on="0"/>
        <pt x="101" y="560" on="0"/>
        <pt x="142" y="577" on="0"/>
        <pt x="168" y="577" on="1"/>
        <pt x="198" y="577" on="0"/>
        <pt x="254" y="552" on="0"/>
        <pt x="290" y="492" on="0"/>
        <pt x="290" y="448" on="1"/>
        <pt x="290" y="406" on="0"/>
        <pt x="258" y="347" on="0"/>
        <pt x="206" y="316" on="0"/>
      </contour>
    </TTGlyph>
    <TTGlyph name="five.osf" xMin="88" yMin="-228" xMax="522" yMax="500">
      <component glyphName="five" x="0" y="-220" flags="0x204"/>
    </TTGlyph>
    <TTGlyph name="five.small" xMin="54" yMin="-5" xMax="319" yMax="441">
      <contour>
        <pt x="185" y="-5" on="1"/>
        <pt x="147" y="-5" on="0"/>
        <pt x="91" y="19" on="0"/>
        <pt x="54" y="70" on="0"/>
        <pt x="54" y="104" on="1"/>
        <pt x="66" y="104" on="1"/>
        <pt x="66" y="73" on="0"/>
        <pt x="99" y="29" on="0"/>
        <pt x="151" y="7" on="0"/>
        <pt x="185" y="7" on="1"/>
        <pt x="223" y="7" on="0"/>
        <pt x="276" y="39" on="0"/>
        <pt x="307" y="99" on="0"/>
        <pt x="307" y="141" on="1"/>
        <pt x="307" y="185" on="0"/>
        <pt x="271" y="245" on="0"/>
        <pt x="216" y="271" on="0"/>
        <pt x="185" y="271" on="1"/>
        <pt x="160" y="271" on="0"/>
        <pt x="118" y="254" on="0"/>
        <pt x="86" y="224" on="0"/>
        <pt x="76" y="204" on="1"/>
        <pt x="63" y="204" on="1"/>
        <pt x="77" y="441" on="1"/>
        <pt x="302" y="441" on="1"/>
        <pt x="302" y="428" on="1"/>
        <pt x="89" y="428" on="1"/>
        <pt x="77" y="226" on="1"/>
        <pt x="84" y="239" on="0"/>
        <pt x="111" y="264" on="0"/>
        <pt x="156" y="283" on="0"/>
        <pt x="185" y="283" on="1"/>
        <pt x="218" y="283" on="0"/>
        <pt x="280" y="255" on="0"/>
        <pt x="319" y="189" on="0"/>
        <pt x="319" y="141" on="1"/>
        <pt x="319" y="95" on="0"/>
        <pt x="285" y="29" on="0"/>
        <pt x="227" y="-5" on="0"/>
      </contour>
    </TTGlyph>
    <TTGlyph name="fiveeighths" xMin="49" yMin="-7" xMax="840" yMax="720">
      <component glyphName="five.numr" x="0" y="0" flags="0x4"/>
      <component glyphName="fraction" x="339" y="0" flags="0x4"/>
      <component glyphName="eight.dnom" x="539" y="0" flags="0x4"/>
    </TTGlyph>
    <TTGlyph name="fl" xMin="40" yMin="0" xMax="519" yMax="720">
      <contour>
        <pt x="158" y="0" on="1"/>
        <pt x="158" y="480" on="1"/>
        <pt x="40" y="480" on="1"/>
        <pt x="40" y="500" on="1"/>
        <pt x="158" y="500" on="1"/>
        <pt x="158" y="600" on="1"/>
        <pt x="158" y="665" on="0"/>
        <pt x="221" y="720" on="0"/>
        <pt x="292" y="720" on="1"/>
        <pt x="519" y="720" on="1"/>
        <pt x="519" y="0" on="1"/>
        <pt x="499" y="0" on="1"/>
        <pt x="499" y="700" on="1"/>
        <pt x="292" y="700" on="1"/>
        <pt x="229" y="700" on="0"/>
        <pt x="178" y="653" on="0"/>
        <pt x="178" y="594" on="1"/>
        <pt x="178" y="500" on="1"/>
        <pt x="414" y="500" on="1"/>
        <pt x="414" y="480" on="1"/>
        <pt x="178" y="480" on="1"/>
        <pt x="178" y="0" on="1"/>
      </contour>
    </TTGlyph>
    <TTGlyph name="florin" xMin="50" yMin="-200" xMax="432" yMax="720">
      <contour>
        <pt x="50" y="-200" on="1"/>
        <pt x="175" y="380" on="1"/>
        <pt x="52" y="380" on="1"/>
        <pt x="52" y="400" on="1"/>
        <pt x="179" y="400" on="1"/>
        <pt x="224" y="610" on="1"/>
        <pt x="236" y="669" on="0"/>
        <pt x="300" y="720" on="0"/>
        <pt x="362" y="720" on="1"/>
        <pt x="432" y="720" on="1"/>
        <pt x="432" y="700" on="1"/>
        <pt x="362" y="700" on="1"/>
        <pt x="307" y="700" on="0"/>
        <pt x="254" y="658" on="0"/>
        <pt x="243" y="605" on="1"/>
        <pt x="199" y="400" on="1"/>
        <pt x="392" y="400" on="1"/>
        <pt x="392" y="380" on="1"/>
        <pt x="195" y="380" on="1"/>
        <pt x="72" y="-200" on="1"/>
      </contour>
    </TTGlyph>
    <TTGlyph name="four" xMin="48" yMin="0" xMax="594" yMax="720">
      <contour>
        <pt x="410" y="0" on="1"/>
        <pt x="410" y="220" on="1"/>
        <pt x="48" y="220" on="1"/>
        <pt x="48" y="230" on="1"/>
        <pt x="406" y="720" on="1"/>
        <pt x="430" y="720" on="1"/>
        <pt x="430" y="240" on="1"/>
        <pt x="594" y="240" on="1"/>
        <pt x="594" y="220" on="1"/>
        <pt x="430" y="220" on="1"/>
        <pt x="430" y="0" on="1"/>
      </contour>
      <contour>
        <pt x="80" y="240" on="1"/>
        <pt x="410" y="240" on="1"/>
        <pt x="410" y="692" on="1"/>
      </contour>
    </TTGlyph>
    <TTGlyph name="four.dnom" xMin="27" yMin="0" xMax="330" yMax="400">
      <contour>
        <pt x="228" y="0" on="1"/>
        <pt x="228" y="122" on="1"/>
        <pt x="27" y="122" on="1"/>
        <pt x="27" y="128" on="1"/>
        <pt x="226" y="400" on="1"/>
        <pt x="239" y="400" on="1"/>
        <pt x="239" y="133" on="1"/>
        <pt x="330" y="133" on="1"/>
        <pt x="330" y="122" on="1"/>
        <pt x="239" y="122" on="1"/>
        <pt x="239" y="0" on="1"/>
      </contour>
      <contour>
        <pt x="44" y="133" on="1"/>
        <pt x="228" y="133" on="1"/>
        <pt x="228" y="385" on="1"/>
      </contour>
    </TTGlyph>
    <TTGlyph name="four.numr" xMin="27" yMin="320" xMax="330" yMax="720">
      <contour>
        <pt x="228" y="320" on="1"/>
        <pt x="228" y="442" on="1"/>
        <pt x="27" y="442" on="1"/>
        <pt x="27" y="448" on="1"/>
        <pt x="226" y="720" on="1"/>
        <pt x="239" y="720" on="1"/>
        <pt x="239" y="453" on="1"/>
        <pt x="330" y="453" on="1"/>
        <pt x="330" y="442" on="1"/>
        <pt x="239" y="442" on="1"/>
        <pt x="239" y="320" on="1"/>
      </contour>
      <contour>
        <pt x="44" y="453" on="1"/>
        <pt x="228" y="453" on="1"/>
        <pt x="228" y="705" on="1"/>
      </contour>
    </TTGlyph>
    <TTGlyph name="four.osf" xMin="48" yMin="-220" xMax="594" yMax="500">
      <component glyphName="four" x="0" y="-220" flags="0x204"/>
    </TTGlyph>
    <TTGlyph name="four.small" xMin="29" yMin="0" xMax="364" yMax="441">
      <contour>
        <pt x="251" y="0" on="1"/>
        <pt x="251" y="135" on="1"/>
        <pt x="29" y="135" on="1"/>
        <pt x="29" y="141" on="1"/>
        <pt x="248" y="441" on="1"/>
        <pt x="263" y="441" on="1"/>
        <pt x="263" y="147" on="1"/>
        <pt x="364" y="147" on="1"/>
        <pt x="364" y="135" on="1"/>
        <pt x="263" y="135" on="1"/>
        <pt x="263" y="0" on="1"/>
      </contour>
      <contour>
        <pt x="49" y="147" on="1"/>
        <pt x="251" y="147" on="1"/>
        <pt x="251" y="424" on="1"/>
      </contour>
    </TTGlyph>
    <TTGlyph name="fraction" xMin="-160" yMin="0" xMax="360" yMax="720">
      <contour>
        <pt x="-160" y="0" on="1"/>
        <pt x="334" y="720" on="1"/>
        <pt x="360" y="720" on="1"/>
        <pt x="-134" y="0" on="1"/>
      </contour>
    </TTGlyph>
    <TTGlyph name="franc" xMin="90" yMin="0" xMax="520" yMax="720">
      <contour>
        <pt x="180" y="0" on="1"/>
        <pt x="180" y="190" on="1"/>
        <pt x="90" y="190" on="1"/>
        <pt x="90" y="210" on="1"/>
        <pt x="180" y="210" on="1"/>
        <pt x="180" y="720" on="1"/>
        <pt x="520" y="720" on="1"/>
        <pt x="520" y="700" on="1"/>
        <pt x="200" y="700" on="1"/>
        <pt x="200" y="400" on="1"/>
        <pt x="480" y="400" on="1"/>
        <pt x="480" y="380" on="1"/>
        <pt x="200" y="380" on="1"/>
        <pt x="200" y="190" on="1"/>
        <pt x="180" y="190" on="1"/>
        <pt x="180" y="210" on="1"/>
        <pt x="380" y="210" on="1"/>
        <pt x="380" y="190" on="1"/>
        <pt x="200" y="190" on="1"/>
        <pt x="200" y="0" on="1"/>
      </contour>
    </TTGlyph>
    <TTGlyph name="g" xMin="68" yMin="-212" xMax="474" yMax="512">
      <contour>
        <pt x="282" y="-212" on="1"/>
        <pt x="228" y="-212" on="0"/>
        <pt x="144" y="-176" on="0"/>
        <pt x="98" y="-108" on="0"/>
        <pt x="98" y="-70" on="1"/>
        <pt x="118" y="-70" on="1"/>
        <pt x="118" y="-102" on="0"/>
        <pt x="158" y="-160" on="0"/>
        <pt x="234" y="-192" on="0"/>
        <pt x="282" y="-192" on="1"/>
        <pt x="330" y="-192" on="0"/>
        <pt x="406" y="-160" on="0"/>
        <pt x="454" y="-80" on="0"/>
        <pt x="454" y="0" on="1"/>
        <pt x="454" y="144" on="1"/>
        <pt x="448" y="116" on="0"/>
        <pt x="396" y="54" on="0"/>
        <pt x="319" y="16" on="0"/>
        <pt x="271" y="16" on="1"/>
        <pt x="207" y="16" on="0"/>
        <pt x="114" y="80" on="0"/>
        <pt x="68" y="184" on="0"/>
        <pt x="68" y="264" on="1"/>
        <pt x="68" y="344" on="0"/>
        <pt x="114" y="448" on="0"/>
        <pt x="207" y="512" on="0"/>
        <pt x="271" y="512" on="1"/>
        <pt x="319" y="512" on="0"/>
        <pt x="396" y="474" on="0"/>
        <pt x="448" y="412" on="0"/>
        <pt x="454" y="384" on="1"/>
        <pt x="454" y="500" on="1"/>
        <pt x="474" y="500" on="1"/>
        <pt x="474" y="0" on="1"/>
        <pt x="474" y="-86" on="0"/>
        <pt x="420" y="-176" on="0"/>
        <pt x="336" y="-212" on="0"/>
      </contour>
      <contour>
        <pt x="271" y="36" on="1"/>
        <pt x="329" y="36" on="0"/>
        <pt x="410" y="94" on="0"/>
        <pt x="454" y="190" on="0"/>
        <pt x="454" y="264" on="1"/>
        <pt x="454" y="338" on="0"/>
        <pt x="410" y="434" on="0"/>
        <pt x="329" y="492" on="0"/>
        <pt x="271" y="492" on="1"/>
        <pt x="213" y="492" on="0"/>
        <pt x="130" y="434" on="0"/>
        <pt x="88" y="338" on="0"/>
        <pt x="88" y="264" on="1"/>
        <pt x="88" y="190" on="0"/>
        <pt x="130" y="94" on="0"/>
        <pt x="213" y="36" on="0"/>
      </contour>
    </TTGlyph>
    <TTGlyph name="g.small" xMin="42" yMin="-130" xMax="290" yMax="313">
      <contour>
        <pt x="173" y="-130" on="1"/>
        <pt x="140" y="-130" on="0"/>
        <pt x="88" y="-108" on="0"/>
        <pt x="60" y="-66" on="0"/>
        <pt x="60" y="-43" on="1"/>
        <pt x="72" y="-43" on="1"/>
        <pt x="72" y="-62" on="0"/>
        <pt x="97" y="-98" on="0"/>
        <pt x="143" y="-118" on="0"/>
        <pt x="173" y="-118" on="1"/>
        <pt x="202" y="-118" on="0"/>
        <pt x="248" y="-98" on="0"/>
        <pt x="278" y="-49" on="0"/>
        <pt x="278" y="0" on="1"/>
        <pt x="278" y="88" on="1"/>
        <pt x="274" y="71" on="0"/>
        <pt x="242" y="33" on="0"/>
        <pt x="195" y="10" on="0"/>
        <pt x="166" y="10" on="1"/>
        <pt x="127" y="10" on="0"/>
        <pt x="70" y="49" on="0"/>
        <pt x="42" y="113" on="0"/>
        <pt x="42" y="162" on="1"/>
        <pt x="42" y="211" on="0"/>
        <pt x="70" y="274" on="0"/>
        <pt x="127" y="313" on="0"/>
        <pt x="166" y="313" on="1"/>
        <pt x="195" y="313" on="0"/>
        <pt x="242" y="290" on="0"/>
        <pt x="274" y="252" on="0"/>
        <pt x="278" y="235" on="1"/>
        <pt x="278" y="306" on="1"/>
        <pt x="290" y="306" on="1"/>
        <pt x="290" y="0" on="1"/>
        <pt x="290" y="-53" on="0"/>
        <pt x="257" y="-108" on="0"/>
        <pt x="206" y="-130" on="0"/>
      </contour>
      <contour>
        <pt x="166" y="22" on="1"/>
        <pt x="201" y="22" on="0"/>
        <pt x="251" y="58" on="0"/>
        <pt x="278" y="116" on="0"/>
        <pt x="278" y="162" on="1"/>
        <pt x="278" y="207" on="0"/>
        <pt x="251" y="266" on="0"/>
        <pt x="201" y="301" on="0"/>
        <pt x="166" y="301" on="1"/>
        <pt x="130" y="301" on="0"/>
        <pt x="80" y="266" on="0"/>
        <pt x="54" y="207" on="0"/>
        <pt x="54" y="162" on="1"/>
        <pt x="54" y="116" on="0"/>
        <pt x="80" y="58" on="0"/>
        <pt x="130" y="22" on="0"/>
      </contour>
    </TTGlyph>
    <TTGlyph name="g.ss01" xMin="68" yMin="-218" xMax="486" yMax="512">
      <contour>
        <pt x="274" y="-218" on="1"/>
        <pt x="206" y="-218" on="0"/>
        <pt x="122" y="-188" on="0"/>
        <pt x="68" y="-122" on="0"/>
        <pt x="68" y="-70" on="1"/>
        <pt x="68" y="-18" on="0"/>
        <pt x="122" y="48" on="0"/>
        <pt x="206" y="78" on="0"/>
        <pt x="274" y="78" on="1"/>
        <pt x="274" y="58" on="1"/>
        <pt x="214" y="58" on="0"/>
        <pt x="134" y="32" on="0"/>
        <pt x="88" y="-26" on="0"/>
        <pt x="88" y="-70" on="1"/>
        <pt x="88" y="-114" on="0"/>
        <pt x="134" y="-172" on="0"/>
        <pt x="214" y="-198" on="0"/>
        <pt x="274" y="-198" on="1"/>
        <pt x="334" y="-198" on="0"/>
        <pt x="414" y="-172" on="0"/>
        <pt x="462" y="-114" on="0"/>
        <pt x="462" y="-70" on="1"/>
        <pt x="462" y="-26" on="0"/>
        <pt x="414" y="32" on="0"/>
        <pt x="334" y="58" on="0"/>
        <pt x="274" y="58" on="1"/>
        <pt x="188" y="58" on="1"/>
        <pt x="158" y="58" on="0"/>
        <pt x="124" y="76" on="0"/>
        <pt x="108" y="106" on="0"/>
        <pt x="108" y="124" on="1"/>
        <pt x="108" y="140" on="0"/>
        <pt x="123" y="168" on="0"/>
        <pt x="158" y="186" on="0"/>
        <pt x="182" y="188" on="1"/>
        <pt x="162" y="194" on="0"/>
        <pt x="117" y="232" on="0"/>
        <pt x="89" y="298" on="0"/>
        <pt x="89" y="340" on="1"/>
        <pt x="89" y="392" on="0"/>
        <pt x="138" y="470" on="0"/>
        <pt x="218" y="512" on="0"/>
        <pt x="274" y="512" on="1"/>
        <pt x="321" y="512" on="0"/>
        <pt x="351" y="500" on="1"/>
        <pt x="486" y="500" on="1"/>
        <pt x="486" y="480" on="1"/>
        <pt x="389" y="480" on="1"/>
        <pt x="419" y="462" on="0"/>
        <pt x="461" y="388" on="0"/>
        <pt x="461" y="340" on="1"/>
        <pt x="461" y="288" on="0"/>
        <pt x="411" y="205" on="0"/>
        <pt x="330" y="168" on="0"/>
        <pt x="274" y="168" on="1"/>
        <pt x="190" y="168" on="1"/>
        <pt x="158" y="168" on="0"/>
        <pt x="128" y="144" on="0"/>
        <pt x="128" y="124" on="1"/>
        <pt x="128" y="104" on="0"/>
        <pt x="158" y="78" on="0"/>
        <pt x="190" y="78" on="1"/>
        <pt x="274" y="78" on="1"/>
        <pt x="342" y="78" on="0"/>
        <pt x="426" y="48" on="0"/>
        <pt x="482" y="-18" on="0"/>
        <pt x="482" y="-70" on="1"/>
        <pt x="482" y="-122" on="0"/>
        <pt x="426" y="-188" on="0"/>
        <pt x="342" y="-218" on="0"/>
      </contour>
      <contour>
        <pt x="274" y="188" on="1"/>
        <pt x="322" y="188" on="0"/>
        <pt x="399" y="221" on="0"/>
        <pt x="441" y="296" on="0"/>
        <pt x="441" y="340" on="1"/>
        <pt x="441" y="384" on="0"/>
        <pt x="398" y="458" on="0"/>
        <pt x="322" y="492" on="0"/>
        <pt x="274" y="492" on="1"/>
        <pt x="226" y="492" on="0"/>
        <pt x="150" y="454" on="0"/>
        <pt x="109" y="384" on="0"/>
        <pt x="109" y="340" on="1"/>
        <pt x="109" y="296" on="0"/>
        <pt x="150" y="221" on="0"/>
        <pt x="226" y="188" on="0"/>
      </contour>
    </TTGlyph>
    <TTGlyph name="g.ss02" xMin="68" yMin="-218" xMax="482" yMax="512">
      <contour>
        <pt x="274" y="168" on="1"/>
        <pt x="218" y="168" on="0"/>
        <pt x="136" y="212" on="0"/>
        <pt x="89" y="288" on="0"/>
        <pt x="89" y="340" on="1"/>
        <pt x="89" y="392" on="0"/>
        <pt x="136" y="468" on="0"/>
        <pt x="218" y="512" on="0"/>
        <pt x="274" y="512" on="1"/>
        <pt x="330" y="512" on="0"/>
        <pt x="412" y="468" on="0"/>
        <pt x="461" y="392" on="0"/>
        <pt x="461" y="340" on="1"/>
        <pt x="461" y="288" on="0"/>
        <pt x="413" y="212" on="0"/>
        <pt x="330" y="168" on="0"/>
      </contour>
      <contour>
        <pt x="274" y="188" on="1"/>
        <pt x="322" y="188" on="0"/>
        <pt x="399" y="226" on="0"/>
        <pt x="441" y="296" on="0"/>
        <pt x="441" y="340" on="1"/>
        <pt x="441" y="384" on="0"/>
        <pt x="398" y="454" on="0"/>
        <pt x="322" y="492" on="0"/>
        <pt x="274" y="492" on="1"/>
        <pt x="226" y="492" on="0"/>
        <pt x="150" y="454" on="0"/>
        <pt x="109" y="384" on="0"/>
        <pt x="109" y="340" on="1"/>
        <pt x="109" y="296" on="0"/>
        <pt x="150" y="226" on="0"/>
        <pt x="226" y="188" on="0"/>
      </contour>
      <contour>
        <pt x="274" y="78" on="1"/>
        <pt x="367" y="78" on="0"/>
        <pt x="482" y="7" on="0"/>
        <pt x="482" y="-70" on="1"/>
        <pt x="482" y="-146" on="0"/>
        <pt x="370" y="-218" on="0"/>
        <pt x="274" y="-218" on="1"/>
        <pt x="181" y="-218" on="0"/>
        <pt x="68" y="-149" on="0"/>
        <pt x="68" y="-70" on="1"/>
        <pt x="68" y="7" on="0"/>
        <pt x="179" y="78" on="0"/>
      </contour>
      <contour>
        <pt x="88" y="-70" on="1"/>
        <pt x="88" y="-138" on="0"/>
        <pt x="188" y="-198" on="0"/>
        <pt x="274" y="-198" on="1"/>
        <pt x="359" y="-198" on="0"/>
        <pt x="462" y="-138" on="0"/>
        <pt x="462" y="-70" on="1"/>
        <pt x="462" y="-2" on="0"/>
        <pt x="357" y="58" on="0"/>
        <pt x="274" y="58" on="1"/>
        <pt x="190" y="58" on="0"/>
        <pt x="88" y="-1" on="0"/>
      </contour>
      <contour>
        <pt x="284" y="180" on="1"/>
        <pt x="284" y="70" on="1"/>
        <pt x="264" y="70" on="1"/>
        <pt x="264" y="180" on="1"/>
      </contour>
    </TTGlyph>
    <TTGlyph name="g.sub" xMin="42" yMin="-210" xMax="290" yMax="233">
      <component glyphName="g.small" x="0" y="-80" flags="0x204"/>
    </TTGlyph>
    <TTGlyph name="g.superior" xMin="42" yMin="284" xMax="290" yMax="727">
      <component glyphName="g.small" x="0" y="414" flags="0x204"/>
    </TTGlyph>
    <TTGlyph name="gbreve" xMin="68" yMin="-212" xMax="474" yMax="720">
      <component glyphName="g" x="0" y="0" flags="0x204"/>
      <component glyphName="uni0306" x="76" y="0" flags="0x4"/>
    </TTGlyph>
</ttFont>
